{
.formatVersion = 3;
axes = (
{
name = Weight;
tag = wght;
}
);
classes = (
{

glyphs = (
{
glyphname = exclam;
layers = (
{
layerId = "52170CEE-5BA0-420B-B358-B20FB7EDC86A";
shapes = (
{
closed = 1;
nodes = (
(318,734,l),
(340,709,l),
(230,283,l),
(109,265,l),
(91,285,l),
(123,698,l),
(144,722,l)
);
},
{
closed = 1;
nodes = (
(211,207,o),
(248,169,o),
(248,104,cs),
(248,34,o),
(206,-10,o),
(138,-10,cs),
(71,-10,o),
(35,27,o),
(35,94,cs),
(35,164,o),
(78,207,o),
(146,207,cs)
);
}
);
width = 312;
},
{
layerId = "C64F1ECC-30E2-4AB6-9CDD-B17FE72FA4E1";
shapes = (
{
closed = 1;
nodes = (
(252,722,l),
(261,710,l),
(178,240,l),
(123,234,l),
(114,245,l),
(169,707,l),
(180,717,l)
);
},
{
closed = 1;
nodes = (
(158,102,o),
(176,82,o),
(176,50,cs),
(176,17,o),
(155,-5,o),
(122,-5,cs),
(90,-5,o),
(71,15,o),
(71,47,cs),
(71,80,o),
(91,102,o),
(126,102,cs)
);
}
);
width = 286;
},
{
layerId = "AC2035D7-313F-43E0-B352-008DE9991D96";
shapes = (
{
closed = 1;
nodes = (
(215,714,l),
(217,711,l),
(149,216,l),
(131,216,l),
(127,222,l),
(195,711,l),
(200,714,l)
);
},
{
closed = 1;
nodes = (
(125,41,o),
(134,32,o),
(134,20,cs),
(134,7,o),
(125,-2,o),
(112,-2,cs),
(100,-2,o),
(91,7,o),
(91,20,cs),
(91,32,o),
(100,41,o),
(112,41,cs)
);
}
);
width = 272;
}
);
unicode = 33;
},
{
glyphname = quotedbl;
layers = (
{
layerId = "52170CEE-5BA0-420B-B358-B20FB7EDC86A";
shapes = (
{
closed = 1;
nodes = (
(482,705,l),
(491,692,l),
(403,406,l),
(306,391,l),
(290,403,l),
(316,696,l)
);
},
{
closed = 1;
nodes = (
(277,705,l),
(287,692,l),
(199,406,l),
(102,391,l),
(86,403,l),
(111,696,l)
);
}
);
width = 477;
},
{
layerId = "C64F1ECC-30E2-4AB6-9CDD-B17FE72FA4E1";
shapes = (
{
closed = 1;
nodes = (
(319,698,l),
(324,690,l),
(272,486,l),
(224,479,l),
(217,487,l),
(247,692,l)
);
},
{
closed = 1;
nodes = (
(188,698,l),
(193,690,l),
(141,486,l),
(93,479,l),
(86,487,l),
(116,692,l)
);
}
);
width = 317;
},
{
layerId = "AC2035D7-313F-43E0-B352-008DE9991D96";
shapes = (
{
closed = 1;
nodes = (
(245,693,l),
(247,689,l),
(214,532,l),
(195,530,l),
(193,534,l),
(225,691,l)
);
},
{
closed = 1;
nodes = (
(139,693,l),
(141,689,l),
(108,532,l),
(90,530,l),
(87,534,l),
(119,691,l)
);
}
);
width = 242;
}
);
leftKerningGroup = tilde2;
rightKerningGroup = tilde;
unicode = 34;
},
{
glyphname = numbersign;
layers = (
{
layerId = "52170CEE-5BA0-420B-B358-B20FB7EDC86A";
shapes = (
{
closed = 1;
nodes = (
(535,625,l),
(548,610,l),
(456,34,l),
(335,34,l),
(325,47,l),
(417,625,l)
);
},
{
closed = 1;
nodes = (
(574,280,l),
(586,266,l),
(578,161,l),
(34,161,l),
(22,174,l),
(31,280,l)
);
},
{
closed = 1;
nodes = (
(302,625,l),
(316,610,l),
(224,34,l),
(103,34,l),
(93,47,l),
(185,625,l)
);
},
{
closed = 1;
nodes = (
(607,497,l),
(619,484,l),
(610,378,l),
(67,378,l),
(55,391,l),
(63,497,l)
);
}
);
width = 642;
},
{
layerId = "C64F1ECC-30E2-4AB6-9CDD-B17FE72FA4E1";
shapes = (
{
closed = 1;
nodes = (
(456,627,l),
(463,618,l),
(334,35,l),
(280,35,l),
(274,43,l),
(403,627,l)
);
},
{
closed = 1;
nodes = (
(500,272,l),
(507,265,l),
(501,215,l),
(28,215,l),
(22,222,l),
(26,272,l)
);
},
{
closed = 1;
nodes = (
(276,627,l),
(283,618,l),
(154,35,l),
(99,35,l),
(94,43,l),
(223,627,l)
);
},
{
closed = 1;
nodes = (
(538,454,l),
(545,448,l),
(539,397,l),
(67,397,l),
(60,404,l),
(64,454,l)
);
}
);
width = 567;
},
{
layerId = "AC2035D7-313F-43E0-B352-008DE9991D96";
shapes = (
{
closed = 1;
nodes = (
(413,628,l),
(415,622,l),
(266,35,l),
(249,35,l),
(246,39,l),
(395,628,l)
);
},
{
closed = 1;
nodes = (
(458,268,l),
(461,264,l),
(459,246,l),
(25,246,l),
(22,249,l),
(24,268,l)
);
},
{
closed = 1;
nodes = (
(262,628,l),
(264,622,l),
(116,35,l),
(98,35,l),
(95,39,l),
(245,628,l)
);
},
{
closed = 1;
nodes = (
(499,430,l),
(502,427,l),
(500,408,l),
(67,408,l),
(63,412,l),
(66,430,l)
);
}
);
width = 524;
}
);
unicode = 35;
},
{
glyphname = dollar;
layers = (
{
anchors = (
{
name = m.fi;
position = "{291, 558}";
},
{
name = b.uni0324_5;
position = "{268, 0}";
}
);
layerId = "52170CEE-5BA0-420B-B358-B20FB7EDC86A";
shapes = (
{
closed = 1;
nodes = (
(419,568,o),
(482,555,o),
(529,539,c),
(486,384,l),
(459,378,l),
(408,411,o),
(349,430,o),
(318,430,cs),
(309,430,o),
(301,429,o),
(294,427,cs),
(281,423,o),
(273,415,o),
(273,404,cs),
(273,395,o),
(279,387,o),
(290,380,cs),
(312,366,o),
(350,355,o),
(389,338,cs),
(408,329,o),
(427,319,o),
(445,307,cs),
(480,283,o),
(504,249,o),
(504,194,cs),
(504,161,o),
(495,129,o),
(476,98,cs),
(439,34,o),
(359,-12,o),
(230,-12,cs),
(175,-12,o),
(103,-4,o),
(32,20,c),
(75,181,l),
(93,194,l),
(149,150,o),
(221,120,o),
(266,120,cs),
(277,120,o),
(286,121,o),
(294,124,cs),
(309,129,o),
(317,138,o),
(317,150,cs),
(317,159,o),
(311,167,o),
(300,174,c),
(277,186,o),
(241,199,o),
(202,215,cs),
(182,223,o),
(163,233,o),
(146,246,c),
(110,270,o),
(86,307,o),
(86,360,cs),
(86,399,o),
(97,434,o),
(118,465,cs),
(161,528,o),
(243,568,o),
(358,568,cs)
);
},
{
closed = 1;
nodes = (
(341,90,l),
(315,-153,l),
(209,-153,l),
(197,-138,l),
(220,90,l)
);
},
{
closed = 1;
nodes = (
(385,471,l),
(341,90,l),
(220,90,l),
(265,471,l)
);
},
{
closed = 1;
nodes = (
(394,704,l),
(409,689,l),
(385,471,l),
(265,471,l),
(290,704,l)
);
}
);
width = 568;
},
{
anchors = (
{
name = m.fi;
position = "{316, 558}";
},
{
name = b.uni0324_5;
position = "{293, 0}";
}
);
layerId = "C64F1ECC-30E2-4AB6-9CDD-B17FE72FA4E1";
shapes = (
{
closed = 1;
nodes = (
(380,548,o),
(432,541,o),
(475,522,c),
(455,447,l),
(441,443,l),
(405,475,o),
(371,488,o),
(332,488,cs),
(307,488,o),
(286,484,o),
(269,475,c),
(233,458,o),
(213,429,o),
(213,400,cs),
(213,383,o),
(219,369,o),
(231,358,c),
(254,334,o),
(293,318,o),
(333,300,cs),
(353,291,o),
(372,280,o),
(390,269,cs),
(426,245,o),
(452,213,o),
(452,162,cs),
(452,134,o),
(444,107,o),
(428,82,cs),
(395,31,o),
(334,-5,o),
(245,-5,cs),
(197,-5,o),
(132,6,o),
(84,31,c),
(101,110,l),
(112,115,l),
(149,74,o),
(209,54,o),
(254,54,cs),
(278,54,o),
(299,59,o),
(318,68,cs),
(354,86,o),
(377,115,o),
(377,146,cs),
(377,164,o),
(371,179,o),
(360,190,cs),
(336,213,o),
(298,231,o),
(258,249,cs),
(237,258,o),
(218,268,o),
(200,280,cs),
(164,303,o),
(138,335,o),
(138,387,cs),
(138,415,o),
(146,441,o),
(163,466,cs),
(195,514,o),
(257,548,o),
(340,548,cs)
);
},
{
closed = 1;
nodes = (
(295,35,l),
(272,-142,l),
(226,-142,l),
(219,-133,l),
(239,35,l)
);
},
{
closed = 1;
nodes = (
(357,508,l),
(295,35,l),
(239,35,l),
(302,508,l)
);
},
{
closed = 1;
nodes = (
(370,700,l),
(380,690,l),
(356,508,l),
(302,508,l),
(325,700,l)
);
}
);
width = 568;
},
{
anchors = (
{
name = m.fi;
position = "{310, 550}";
},
{
name = b.uni0324_5;
position = "{294, 0}";
}
);
layerId = "AC2035D7-313F-43E0-B352-008DE9991D96";
shapes = (
{
closed = 1;
nodes = (
(365,538,o),
(405,534,o),
(446,514,c),
(438,495,l),
(431,494,l),
(399,511,o),
(363,517,o),
(335,517,cs),
(305,517,o),
(279,511,o),
(257,499,cs),
(213,474,o),
(189,436,o),
(189,395,cs),
(189,375,o),
(195,358,o),
(206,345,cs),
(229,317,o),
(265,299,o),
(305,280,cs),
(325,270,o),
(344,260,o),
(362,249,cs),
(397,227,o),
(422,194,o),
(422,146,cs),
(422,120,o),
(414,96,o),
(399,73,cs),
(368,27,o),
(313,-3,o),
(245,-3,cs),
(201,-3,o),
(150,9,o),
(115,36,c),
(117,58,l),
(122,59,l),
(158,31,o),
(205,19,o),
(246,19,cs),
(277,19,o),
(304,25,o),
(327,38,cs),
(373,63,o),
(400,106,o),
(400,147,cs),
(400,168,o),
(394,185,o),
(383,199,cs),
(360,226,o),
(323,245,o),
(283,264,cs),
(263,273,o),
(244,284,o),
(227,296,cs),
(192,319,o),
(167,349,o),
(167,396,cs),
(167,422,o),
(174,446,o),
(189,467,c),
(217,510,o),
(269,538,o),
(336,538,cs)
);
},
{
closed = 1;
nodes = (
(270,8,l),
(249,-135,l),
(233,-135,l),
(228,-131,l),
(248,8,l)
);
},
{
closed = 1;
nodes = (
(342,526,l),
(270,8,l),
(248,8,l),
(319,526,l)
);
},
{
closed = 1;
nodes = (
(359,688,l),
(364,683,l),
(342,526,l),
(319,526,l),
(342,688,l)
);
}
);
width = 568;
}
);
unicode = 36;
},
{
glyphname = percent;
layers = (
{
layerId = "52170CEE-5BA0-420B-B358-B20FB7EDC86A";
shapes = (
{
closed = 1;
nodes = (
(372,715,o),
(425,657,o),
(425,556,cs),
(425,401,o),
(344,307,o),
(201,307,cs),
(104,307,o),
(50,364,o),
(50,465,cs),
(50,621,o),
(133,715,o),
(276,715,cs)
);
},
{
closed = 1;
nodes = (
(205,584,o),
(178,565,o),
(178,485,cs),
(178,445,o),
(191,427,o),
(226,427,cs),
(257,427,o),
(277,436,o),
(285,455,cs),
(293,474,o),
(297,497,o),
(297,526,cs),
(297,567,o),
(282,584,o),
(246,584,cs)
);
},
{
closed = 1;
nodes = (
(737,758,l),
(815,707,l),
(822,680,l),
(222,-103,l),
(139,-48,l),
(134,-29,l)
);
},
{
closed = 1;
nodes = (
(899,401,o),
(951,344,o),
(951,241,cs),
(951,88,o),
(870,-8,o),
(727,-8,cs),
(630,-8,o),
(577,48,o),
(577,151,cs),
(577,307,o),
(660,401,o),
(803,401,cs)
);
},
{
closed = 1;
nodes = (
(731,270,o),
(704,250,o),
(704,170,cs),
(704,131,o),
(717,112,o),
(752,112,cs),
(783,112,o),
(803,121,o),
(811,140,cs),
(819,159,o),
(823,183,o),
(823,212,cs),
(823,252,o),
(808,270,o),
(772,270,cs)
);
}
);
width = 980;
},
{
layerId = "C64F1ECC-30E2-4AB6-9CDD-B17FE72FA4E1";
shapes = (
{
closed = 1;
nodes = (
(354,705,o),
(402,651,o),
(402,554,cs),
(402,406,o),
(333,318,o),
(209,318,cs),
(120,318,o),
(72,372,o),
(72,471,cs),
(72,616,o),
(142,705,o),
(265,705,cs)
);
},
{
closed = 1;
nodes = (
(175,641,o),
(135,582,o),
(135,482,cs),
(135,414,o),
(165,379,o),
(218,379,cs),
(259,379,o),
(290,393,o),
(309,422,cs),
(328,450,o),
(337,489,o),
(337,538,cs),
(337,606,o),
(309,641,o),
(252,641,cs)
);
},
{
closed = 1;
nodes = (
(728,741,l),
(764,717,l),
(770,702,l),
(156,-99,l),
(119,-75,l),
(115,-62,l)
);
},
{
closed = 1;
nodes = (
(814,382,o),
(862,329,o),
(862,230,cs),
(862,83,o),
(793,-5,o),
(668,-5,cs),
(580,-5,o),
(532,50,o),
(532,147,cs),
(532,294,o),
(601,382,o),
(725,382,cs)
);
},
{
closed = 1;
nodes = (
(635,318,o),
(595,259,o),
(595,158,cs),
(595,91,o),
(625,56,o),
(678,56,cs),
(719,56,o),
(749,70,o),
(768,99,cs),
(787,127,o),
(797,166,o),
(797,215,cs),
(797,282,o),
(769,318,o),
(712,318,cs)
);
}
);
width = 911;
},
{
layerId = "AC2035D7-313F-43E0-B352-008DE9991D96";
shapes = (
{
closed = 1;
nodes = (
(345,697,o),
(390,643,o),
(390,548,cs),
(390,409,o),
(327,323,o),
(212,323,cs),
(129,323,o),
(85,376,o),
(85,472,cs),
(85,609,o),
(151,697,o),
(264,697,cs)
);
},
{
closed = 1;
nodes = (
(162,676,o),
(106,600,o),
(106,476,cs),
(106,392,o),
(145,344,o),
(217,344,cs),
(265,344,o),
(303,362,o),
(330,398,cs),
(357,433,o),
(370,482,o),
(370,544,cs),
(370,629,o),
(331,676,o),
(259,676,cs)
);
},
{
closed = 1;
nodes = (
(731,731,l),
(741,725,l),
(744,716,l),
(114,-98,l),
(105,-94,l),
(102,-84,l)
);
},
{
closed = 1;
nodes = (
(767,370,o),
(811,317,o),
(811,222,cs),
(811,83,o),
(749,-3,o),
(633,-3,cs),
(550,-3,o),
(507,49,o),
(507,145,cs),
(507,284,o),
(573,370,o),
(686,370,cs)
);
},
{
closed = 1;
nodes = (
(583,349,o),
(527,273,o),
(527,150,cs),
(527,65,o),
(566,17,o),
(639,17,cs),
(687,17,o),
(725,35,o),
(752,71,cs),
(779,106,o),
(792,155,o),
(792,217,cs),
(792,304,o),
(753,349,o),
(680,349,cs)
);
}
);
width = 873;
}
);
unicode = 37;
},
{
glyphname = ampersand;
layers = (
{
layerId = "52170CEE-5BA0-420B-B358-B20FB7EDC86A";
shapes = (
{
closed = 1;
nodes = (
(434,720,o),
(487,712,o),
(558,691,c),
(512,541,l),
(489,533,l),
(434,564,o),
(388,583,o),
(345,583,cs),
(296,583,o),
(268,560,o),
(268,511,cs),
(268,444,o),
(297,420,o),
(348,420,c),
(710,433,l),
(729,416,l),
(698,306,l),
(574,302,l),
(569,296,l),
(581,272,o),
(585,245,o),
(585,216,cs),
(585,164,o),
(563,107,o),
(516,62,cs),
(468,17,o),
(394,-13,o),
(289,-13,cs),
(130,-13,o),
(36,57,o),
(36,177,cs),
(36,250,o),
(85,308,o),
(177,348,c),
(177,353,l),
(130,392,o),
(102,441,o),
(102,508,cs),
(102,571,o),
(126,622,o),
(175,661,cs),
(224,700,o),
(292,720,o),
(379,720,cs)
);
},
{
closed = 1;
nodes = (
(281,293,l),
(240,266,o),
(218,233,o),
(218,193,cs),
(218,140,o),
(250,112,o),
(311,112,cs),
(351,112,o),
(381,121,o),
(402,140,cs),
(422,159,o),
(432,186,o),
(432,223,cs),
(432,255,o),
(421,280,o),
(401,297,c)
);
}
);
width = 709;
},
{
layerId = "C64F1ECC-30E2-4AB6-9CDD-B17FE72FA4E1";
shapes = (
{
closed = 1;
nodes = (
(429,710,o),
(481,697,o),
(542,672,c),
(517,593,l),
(502,590,l),
(451,622,o),
(404,638,o),
(352,638,cs),
(267,638,o),
(215,595,o),
(215,514,cs),
(215,443,o),
(256,400,o),
(323,395,c),
(731,413,l),
(739,399,l),
(721,346,l),
(536,337,l),
(534,332,l),
(554,303,o),
(565,262,o),
(565,221,cs),
(565,158,o),
(542,102,o),
(497,59,cs),
(452,15,o),
(383,-10,o),
(294,-10,cs),
(149,-10,o),
(61,58,o),
(61,162,cs),
(61,243,o),
(114,311,o),
(222,358,c),
(222,363,l),
(163,391,o),
(131,446,o),
(131,515,cs),
(131,574,o),
(152,621,o),
(194,657,cs),
(236,692,o),
(294,710,o),
(369,710,cs)
);
},
{
closed = 1;
nodes = (
(280,327,l),
(199,290,o),
(154,242,o),
(154,175,cs),
(154,103,o),
(213,58,o),
(306,58,cs),
(365,58,o),
(409,74,o),
(439,105,cs),
(468,136,o),
(483,174,o),
(483,221,cs),
(483,268,o),
(466,310,o),
(437,333,c)
);
}
);
width = 700;
},
{
layerId = "AC2035D7-313F-43E0-B352-008DE9991D96";
shapes = (
{
closed = 1;
nodes = (
(408,702,o),
(458,686,o),
(510,655,c),
(501,634,l),
(494,634,l),
(446,666,o),
(399,680,o),
(343,680,cs),
(230,680,o),
(163,621,o),
(163,524,cs),
(163,441,o),
(212,382,o),
(292,377,c),
(695,402,l),
(697,397,l),
(688,376,l),
(482,365,l),
(480,360,l),
(507,324,o),
(523,273,o),
(523,216,cs),
(523,149,o),
(500,94,o),
(457,55,cs),
(414,15,o),
(353,-7,o),
(277,-7,cs),
(148,-7,o),
(69,59,o),
(69,156,cs),
(69,245,o),
(131,318,o),
(236,365,c),
(236,369,l),
(176,393,o),
(141,449,o),
(141,524,cs),
(141,579,o),
(159,622,o),
(195,654,cs),
(230,686,o),
(280,702,o),
(344,702,cs)
);
},
{
closed = 1;
nodes = (
(263,353,l),
(159,312,o),
(91,246,o),
(91,161,cs),
(91,74,o),
(161,15,o),
(278,15,cs),
(347,15,o),
(402,34,o),
(442,71,cs),
(481,108,o),
(501,157,o),
(501,218,cs),
(501,279,o),
(481,332,o),
(446,363,c)
);
}
);
width = 656;
}
);
unicode = 38;
},
{
glyphname = quotesingle;
layers = (
{
layerId = "52170CEE-5BA0-420B-B358-B20FB7EDC86A";
shapes = (
{
closed = 1;
nodes = (
(277,705,l),
(287,692,l),
(199,406,l),
(102,391,l),
(86,403,l),
(111,696,l)
);
}
);
width = 273;
},
{
layerId = "C64F1ECC-30E2-4AB6-9CDD-B17FE72FA4E1";
shapes = (
{
closed = 1;
nodes = (
(188,698,l),
(193,690,l),
(141,486,l),
(93,479,l),
(86,487,l),
(116,692,l)
);
}
);
width = 186;
},
{
layerId = "AC2035D7-313F-43E0-B352-008DE9991D96";
shapes = (
{
closed = 1;
nodes = (
(139,693,l),
(141,689,l),
(108,532,l),
(90,530,l),
(87,534,l),
(119,691,l)
);
}
);
width = 137;
}
);
leftKerningGroup = tilde2;
rightKerningGroup = tilde;
unicode = 39;
},
{
glyphname = parenleft;
layers = (
{
layerId = "52170CEE-5BA0-420B-B358-B20FB7EDC86A";
shapes = (
{
closed = 1;
nodes = (
(312,720,l),
(380,657,l),
(378,641,l),
(317,583,o),
(280,494,o),
(258,402,cs),
(236,309,o),
(228,217,o),
(228,153,cs),
(228,104,o),
(234,60,o),
(245,24,c),
(254,-13,o),
(270,-45,o),
(290,-71,c),
(288,-87,l),
(205,-150,l),
(187,-150,l),
(158,-127,o),
(134,-99,o),
(116,-70,cs),
(78,-9,o),
(59,67,o),
(59,162,cs),
(59,253,o),
(71,359,o),
(106,461,cs),
(140,562,o),
(199,654,o),
(294,720,c)
);
}
);
width = 335;
},
{
layerId = "C64F1ECC-30E2-4AB6-9CDD-B17FE72FA4E1";
shapes = (
{
closed = 1;
nodes = (
(319,723,l),
(349,692,l),
(348,684,l),
(263,623,o),
(210,532,o),
(182,434,cs),
(154,336,o),
(144,240,o),
(144,167,cs),
(144,103,o),
(152,49,o),
(167,6,cs),
(182,-38,o),
(210,-78,o),
(250,-115,c),
(249,-123,l),
(211,-154,l),
(202,-154,l),
(169,-127,o),
(143,-99,o),
(124,-69,cs),
(85,-8,o),
(69,67,o),
(69,168,cs),
(69,251,o),
(79,356,o),
(115,460,cs),
(150,563,o),
(210,658,o),
(310,723,c)
);
}
);
width = 314;
},
{
layerId = "AC2035D7-313F-43E0-B352-008DE9991D96";
shapes = (
{
closed = 1;
nodes = (
(339,724,l),
(347,712,l),
(346,708,l),
(245,640,o),
(185,551,o),
(153,455,cs),
(121,358,o),
(111,254,o),
(111,158,cs),
(111,89,o),
(122,31,o),
(143,-16,cs),
(164,-63,o),
(197,-104,o),
(242,-140,c),
(241,-144,l),
(230,-156,l),
(226,-156,l),
(195,-130,o),
(169,-102,o),
(149,-73,cs),
(108,-13,o),
(90,59,o),
(90,155,cs),
(90,260,o),
(100,366,o),
(134,466,cs),
(168,566,o),
(231,655,o),
(334,724,c)
);
}
);
width = 306;
}
);
unicode = 40;
},
{
glyphname = asterisk;
layers = (
{
layerId = "52170CEE-5BA0-420B-B358-B20FB7EDC86A";
shapes = (
{
closed = 1;
nodes = (
(195,582,l),
(246,556,l),
(248,544,l),
(178,435,l),
(146,443,o),
(113,461,o),
(81,480,c),
(82,494,l)
);
},
{
closed = 1;
nodes = (
(92,741,l),
(211,661,l),
(201,605,l),
(189,600,l),
(64,632,l),
(63,665,o),
(68,702,o),
(79,738,c)
);
},
{
closed = 1;
nodes = (
(307,583,l),
(320,582,l),
(402,480,l),
(383,453,o),
(355,429,o),
(327,404,c),
(316,408,l),
(266,545,l)
);
},
{
closed = 1;
nodes = (
(329,809,l),
(289,670,l),
(234,664,l),
(224,673,l),
(217,802,l),
(248,813,o),
(287,819,o),
(323,820,c)
);
},
{
closed = 1;
nodes = (
(427,708,l),
(446,681,o),
(463,649,o),
(476,613,c),
(468,604,l),
(324,600,l),
(299,650,l),
(305,662,l)
);
}
);
width = 430;
},
{
layerId = "C64F1ECC-30E2-4AB6-9CDD-B17FE72FA4E1";
shapes = (
{
closed = 1;
nodes = (
(211,586,l),
(244,569,l),
(245,558,l),
(181,456,l),
(161,464,o),
(138,476,o),
(118,488,c),
(118,496,l)
);
},
{
closed = 1;
nodes = (
(112,717,l),
(218,651,l),
(213,613,l),
(203,608,l),
(94,645,l),
(94,666,o),
(96,694,o),
(104,715,c)
);
},
{
closed = 1;
nodes = (
(293,587,l),
(302,586,l),
(370,487,l),
(358,467,o),
(341,452,o),
(322,437,c),
(313,438,l),
(265,562,l)
);
},
{
closed = 1;
nodes = (
(305,795,l),
(278,664,l),
(240,660,l),
(234,667,l),
(232,792,l),
(253,799,o),
(277,803,o),
(300,803,c)
);
},
{
closed = 1;
nodes = (
(404,693,l),
(416,674,o),
(428,654,o),
(435,630,c),
(430,625,l),
(308,608,l),
(292,643,l),
(296,653,l)
);
}
);
width = 411;
},
{
layerId = "AC2035D7-313F-43E0-B352-008DE9991D96";
shapes = (
{
closed = 1;
nodes = (
(216,593,l),
(229,585,l),
(228,579,l),
(155,486,l),
(148,489,o),
(141,493,o),
(134,497,c),
(133,500,l)
);
},
{
closed = 1;
nodes = (
(97,687,l),
(211,637,l),
(207,621,l),
(202,620,l),
(91,662,l),
(91,670,o),
(93,678,o),
(94,685,c)
);
},
{
closed = 1;
nodes = (
(271,594,l),
(276,592,l),
(342,494,l),
(335,486,o),
(332,480,o),
(325,477,c),
(322,477,l),
(259,584,l)
);
},
{
closed = 1;
nodes = (
(263,779,l),
(251,655,l),
(236,653,l),
(233,658,l),
(238,778,l),
(246,781,o),
(256,781,o),
(261,781,c)
);
},
{
closed = 1;
nodes = (
(392,673,l),
(397,666,o),
(402,659,o),
(403,652,c),
(402,650,l),
(281,622,l),
(275,637,l),
(278,641,l)
);
}
);
width = 399;
}
);
leftKerningGroup = tilde2;
rightKerningGroup = tilde;
unicode = 42;
},
{
glyphname = plus;
layers = (
{
layerId = "52170CEE-5BA0-420B-B358-B20FB7EDC86A";
shapes = (
{
closed = 1;
nodes = (
(349,525,l),
(363,512,l),
(343,349,l),
(503,349,l),
(515,335,l),
(489,207,l),
(325,207,l),
(305,41,l),
(176,32,l),
(163,45,l),
(183,207,l),
(21,207,l),
(10,222,l),
(35,349,l),
(201,349,l),
(221,515,l)
);
}
);
width = 521;
},
{
layerId = "C64F1ECC-30E2-4AB6-9CDD-B17FE72FA4E1";
shapes = (
{
closed = 1;
nodes = (
(319,519,l),
(325,511,l),
(301,321,l),
(490,321,l),
(498,314,l),
(485,257,l),
(294,257,l),
(271,64,l),
(212,60,l),
(205,67,l),
(228,257,l),
(38,257,l),
(33,263,l),
(46,321,l),
(236,321,l),
(260,513,l)
);
}
);
width = 521;
},
{
layerId = "AC2035D7-313F-43E0-B352-008DE9991D96";
shapes = (
{
closed = 1;
nodes = (
(301,514,l),
(305,511,l),
(280,306,l),
(484,306,l),
(487,302,l),
(483,284,l),
(276,284,l),
(251,78,l),
(233,75,l),
(229,79,l),
(254,284,l),
(50,284,l),
(47,287,l),
(51,306,l),
(258,306,l),
(283,512,l)
);
}
);
width = 522;
}
);
unicode = 43;
},
{
glyphname = comma;
layers = (
{
layerId = "52170CEE-5BA0-420B-B358-B20FB7EDC86A";
shapes = (
{
closed = 1;
nodes = (
(195,167,o),
(213,129,o),
(213,84,cs),
(213,0,o),
(161,-76,o),
(47,-155,c),
(-20,-97,l),
(-22,-82,l),
(19,-46,o),
(39,-7,o),
(39,37,cs),
(39,68,o),
(27,95,o),
(3,119,c),
(4,137,l),
(54,164,o),
(105,186,o),
(161,200,c)
);
}
);
width = 250;
},
{
layerId = "C64F1ECC-30E2-4AB6-9CDD-B17FE72FA4E1";
shapes = (
{
closed = 1;
nodes = (
(141,80,o),
(156,55,o),
(156,25,cs),
(156,-24,o),
(122,-74,o),
(50,-126,c),
(19,-97,l),
(19,-90,l),
(59,-57,o),
(79,-25,o),
(79,8,cs),
(79,27,o),
(68,45,o),
(45,61,c),
(45,70,l),
(65,83,o),
(87,95,o),
(110,100,c)
);
}
);
width = 250;
},
{
layerId = "AC2035D7-313F-43E0-B352-008DE9991D96";
shapes = (
{
closed = 1;
nodes = (
(118,32,o),
(132,15,o),
(132,-8,cs),
(132,-36,o),
(107,-73,o),
(60,-109,c),
(49,-97,l),
(50,-94,l),
(89,-65,o),
(109,-36,o),
(109,-9,cs),
(109,6,o),
(98,18,o),
(76,28,c),
(76,33,l),
(80,37,o),
(84,42,o),
(91,45,c)
);
}
);
width = 250;
}
);
leftKerningGroup = comma2;
rightKerningGroup = comma;
unicode = 44;
},
{
glyphname = hyphen;
layers = (
{
anchors = (
{
name = top;
position = "{181, 312}";
}
);
layerId = "52170CEE-5BA0-420B-B358-B20FB7EDC86A";
shapes = (
{
closed = 1;
nodes = (
(26,370,l),
(16,242,l),
(29,228,l),
(320,228,l),
(330,356,l),
(317,370,l)
);
}
);
width = 331;
},
{
anchors = (
{
name = top;
position = "{190, 280}";
}
);
background = {
shapes = (
{
closed = 1;
nodes = (
(37,268,l),
(37,214,l),
(45,206,l),
(286,241,l),
(286,295,l),
(278,302,l)
);
}
);
};
layerId = "C64F1ECC-30E2-4AB6-9CDD-B17FE72FA4E1";
shapes = (
{
closed = 1;
nodes = (
(32,332,l),
(27,275,l),
(34,268,l),
(343,268,l),
(348,325,l),
(342,332,l)
);
}
);
width = 355;
},
{
anchors = (
{
name = top;
position = "{198, 257}";
}
);
layerId = "AC2035D7-313F-43E0-B352-008DE9991D96";
shapes = (
{
closed = 1;
nodes = (
(39,311,l),
(37,292,l),
(40,289,l),
(356,289,l),
(358,307,l),
(355,311,l)
);
}
);
width = 376;
}
);
leftKerningGroup = bullet2;
rightKerningGroup = bullet;
unicode = 45;
},
{
glyphname = period;
layers = (
{
layerId = "52170CEE-5BA0-420B-B358-B20FB7EDC86A";
shapes = (
{
closed = 1;
nodes = (
(175,207,o),
(212,169,o),
(212,104,cs),
(212,34,o),
(170,-10,o),
(102,-10,cs),
(35,-10,o),
(-1,27,o),
(-1,94,cs),
(-1,164,o),
(41,207,o),
(110,207,cs)
);
}
);
width = 250;
},
{
layerId = "C64F1ECC-30E2-4AB6-9CDD-B17FE72FA4E1";
shapes = (
{
closed = 1;
nodes = (
(135,102,o),
(153,82,o),
(153,50,cs),
(153,17,o),
(132,-5,o),
(99,-5,cs),
(67,-5,o),
(48,15,o),
(48,47,cs),
(48,80,o),
(70,102,o),
(103,102,cs)
);
}
);
width = 250;
},
{
layerId = "AC2035D7-313F-43E0-B352-008DE9991D96";
shapes = (
{
closed = 1;
nodes = (
(110,41,o),
(119,32,o),
(119,20,cs),
(119,7,o),
(110,-2,o),
(97,-2,cs),
(84,-2,o),
(75,7,o),
(75,20,cs),
(75,32,o),
(84,41,o),
(97,41,cs)
);
}
);
width = 250;
}
);
leftKerningGroup = comma2;
rightKerningGroup = comma;
unicode = 46;
},
{
glyphname = slash;
layers = (
{
layerId = "52170CEE-5BA0-420B-B358-B20FB7EDC86A";
shapes = (
{
closed = 1;
nodes = (
(370,746,l),
(385,728,l),
(98,-129,l),
(-49,-129,l),
(-60,-112,l),
(227,746,l)
);
}
);
width = 306;
},
{
layerId = "C64F1ECC-30E2-4AB6-9CDD-B17FE72FA4E1";
shapes = (
{
closed = 1;
nodes = (
(340,740,l),
(346,731,l),
(62,-123,l),
(-2,-123,l),
(-8,-115,l),
(276,740,l)
);
}
);
width = 313;
},
{
layerId = "AC2035D7-313F-43E0-B352-008DE9991D96";
shapes = (
{
closed = 1;
nodes = (
(321,737,l),
(324,732,l),
(43,-120,l),
(25,-120,l),
(22,-116,l),
(304,737,l)
);
}
);
width = 318;
}
);
unicode = 47;
},
{
glyphname = zero;
layers = (
{
layerId = "52170CEE-5BA0-420B-B358-B20FB7EDC86A";
shapes = (
{
closed = 1;
nodes = (
(486,719,o),
(571,625,o),
(571,422,cs),
(571,339,o),
(557,264,o),
(530,200,cs),
(478,68,o),
(381,-14,o),
(248,-14,cs),
(104,-14,o),
(20,83,o),
(20,284,cs),
(20,367,o),
(33,441,o),
(58,505,cs),
(110,636,o),
(208,719,o),
(344,719,cs)
);
},
{
closed = 1;
nodes = (
(280,500,o),
(259,492,o),
(244,477,cs),
(214,446,o),
(206,388,o),
(206,313,cs),
(206,234,o),
(217,192,o),
(277,192,cs),
(304,192,o),
(325,200,o),
(340,215,cs),
(370,244,o),
(383,302,o),
(383,380,cs),
(383,467,o),
(367,500,o),
(309,500,cs)
);
}
);
width = 568;
},
{
layerId = "C64F1ECC-30E2-4AB6-9CDD-B17FE72FA4E1";
shapes = (
{
closed = 1;
nodes = (
(460,705,o),
(534,607,o),
(534,432,cs),
(534,343,o),
(523,265,o),
(500,200,cs),
(455,68,o),
(369,-9,o),
(250,-9,cs),
(115,-9,o),
(45,92,o),
(45,265,cs),
(45,355,o),
(56,432,o),
(79,499,cs),
(122,631,o),
(211,705,o),
(334,705,cs)
);
},
{
closed = 1;
nodes = (
(276,612,o),
(241,598,o),
(213,572,cs),
(155,519,o),
(124,419,o),
(124,284,cs),
(124,154,o),
(169,81,o),
(257,81,cs),
(299,81,o),
(335,94,o),
(365,121,cs),
(421,174,o),
(451,274,o),
(451,410,cs),
(451,542,o),
(406,612,o),
(318,612,cs)
);
}
);
width = 568;
},
{
layerId = "AC2035D7-313F-43E0-B352-008DE9991D96";
shapes = (
{
closed = 1;
nodes = (
(449,691,o),
(513,594,o),
(513,423,cs),
(513,336,o),
(503,259,o),
(482,196,cs),
(442,68,o),
(362,-4,o),
(248,-4,cs),
(131,-4,o),
(66,94,o),
(66,265,cs),
(66,352,o),
(76,428,o),
(97,492,cs),
(139,620,o),
(220,691,o),
(331,691,cs)
);
},
{
closed = 1;
nodes = (
(278,667,o),
(236,652,o),
(200,619,cs),
(129,553,o),
(90,432,o),
(90,268,cs),
(90,109,o),
(146,19,o),
(250,19,cs),
(302,19,o),
(344,35,o),
(380,68,cs),
(451,132,o),
(489,256,o),
(489,419,cs),
(489,578,o),
(435,667,o),
(328,667,cs)
);
}
);
width = 568;
}
);
unicode = 48;
},
{
glyphname = one;
layers = (
{
layerId = "52170CEE-5BA0-420B-B358-B20FB7EDC86A";
shapes = (
{
closed = 1;
nodes = (
(470,706,l),
(505,706,l),
(416,0,l),
(184,0,l),
(240,437,l),
(75,413,l),
(62,424,l),
(85,614,l)
);
}
);
width = 568;
},
{
layerId = "C64F1ECC-30E2-4AB6-9CDD-B17FE72FA4E1";
shapes = (
{
closed = 1;
nodes = (
(429,700,l),
(443,700,l),
(346,0,l),
(250,0,l),
(331,582,l),
(124,539,l),
(116,546,l),
(126,626,l)
);
}
);
width = 568;
},
{
layerId = "AC2035D7-313F-43E0-B352-008DE9991D96";
shapes = (
{
closed = 1;
nodes = (
(406,690,l),
(412,690,l),
(326,0,l),
(303,0,l),
(385,657,l),
(160,604,l),
(153,608,l),
(155,627,l)
);
}
);
width = 568;
}
);
unicode = 49;
},
{
glyphname = two;
layers = (
{
layerId = "52170CEE-5BA0-420B-B358-B20FB7EDC86A";
shapes = (
{
closed = 1;
nodes = (
(368,719,o),
(404,711,o),
(437,696,cs),
(502,666,o),
(541,611,o),
(541,538,cs),
(541,514,o),
(537,490,o),
(526,466,c),
(507,417,o),
(465,359,o),
(385,272,c),
(317,191,l),
(321,184,l),
(527,184,l),
(538,169,l),
(486,0,l),
(1,0,l),
(-8,7,l),
(10,148,l),
(193,334,l),
(218,361,o),
(242,387,o),
(264,413,cs),
(285,439,o),
(296,462,o),
(296,483,cs),
(296,504,o),
(286,518,o),
(259,518,cs),
(224,518,o),
(160,490,o),
(103,445,c),
(77,445,l),
(62,627,l),
(145,684,o),
(240,719,o),
(327,719,cs)
);
}
);
width = 568;
},
{
layerId = "C64F1ECC-30E2-4AB6-9CDD-B17FE72FA4E1";
shapes = (
{
closed = 1;
nodes = (
(347,707,o),
(378,700,o),
(405,687,c),
(457,660,o),
(490,612,o),
(490,547,cs),
(490,522,o),
(485,496,o),
(473,471,cs),
(449,419,o),
(397,358,o),
(311,263,cs),
(155,86,l),
(156,81,l),
(504,81,l),
(511,71,l),
(487,0,l),
(17,0,l),
(12,4,l),
(20,67,l),
(223,289,ls),
(274,345,o),
(314,392,o),
(344,432,c),
(373,473,o),
(388,508,o),
(388,539,cs),
(388,584,o),
(360,620,o),
(298,620,cs),
(234,620,o),
(171,585,o),
(111,520,c),
(100,520,l),
(93,601,l),
(162,666,o),
(236,707,o),
(313,707,cs)
);
}
);
width = 568;
},
{
layerId = "AC2035D7-313F-43E0-B352-008DE9991D96";
shapes = (
{
closed = 1;
nodes = (
(357,693,o),
(382,688,o),
(402,678,cs),
(445,657,o),
(467,619,o),
(467,569,cs),
(467,541,o),
(459,514,o),
(446,484,c),
(417,425,o),
(360,355,o),
(272,255,cs),
(75,27,l),
(78,24,l),
(495,24,l),
(497,18,l),
(490,0,l),
(38,0,l),
(37,2,l),
(39,22,l),
(257,273,ls),
(317,343,o),
(364,400,o),
(396,445,cs),
(429,489,o),
(445,528,o),
(445,566,cs),
(445,622,o),
(405,669,o),
(328,669,cs),
(258,669,o),
(189,630,o),
(129,561,c),
(125,561,l),
(122,582,l),
(178,647,o),
(251,693,o),
(329,693,cs)
);
}
);
width = 568;
}
);
unicode = 50;
},
{
glyphname = three;
layers = (
{
layerId = "52170CEE-5BA0-420B-B358-B20FB7EDC86A";
shapes = (
{
closed = 1;
nodes = (
(364,720,o),
(404,714,o),
(440,701,c),
(508,674,o),
(552,624,o),
(552,563,cs),
(552,531,o),
(541,499,o),
(518,463,cs),
(496,427,o),
(465,397,o),
(422,376,c),
(422,370,l),
(484,335,o),
(516,300,o),
(516,230,cs),
(516,183,o),
(502,141,o),
(474,105,cs),
(417,32,o),
(307,-12,o),
(164,-12,cs),
(119,-12,o),
(55,-7,o),
(12,1,c),
(21,175,l),
(38,190,l),
(90,172,o),
(137,165,o),
(182,165,cs),
(207,165,o),
(227,167,o),
(243,171,c),
(274,181,o),
(289,199,o),
(289,221,cs),
(289,244,o),
(276,255,o),
(240,255,cs),
(139,255,l),
(131,270,l),
(156,432,l),
(228,435,l),
(245,435,o),
(264,444,o),
(278,455,cs),
(292,466,o),
(304,481,o),
(304,498,cs),
(304,519,o),
(288,529,o),
(254,529,cs),
(215,529,o),
(168,515,o),
(117,492,c),
(93,492,l),
(77,656,l),
(157,696,o),
(237,720,o),
(320,720,cs)
);
}
);
width = 568;
},
{
layerId = "C64F1ECC-30E2-4AB6-9CDD-B17FE72FA4E1";
shapes = (
{
closed = 1;
nodes = (
(333,711,o),
(366,705,o),
(393,693,cs),
(449,669,o),
(477,625,o),
(477,568,cs),
(477,536,o),
(466,502,o),
(443,468,cs),
(420,434,o),
(383,404,o),
(333,381,c),
(333,377,l),
(415,355,o),
(462,310,o),
(462,228,cs),
(462,183,o),
(449,144,o),
(423,108,cs),
(370,37,o),
(274,-8,o),
(159,-8,cs),
(121,-8,o),
(73,0,o),
(35,5,c),
(40,97,l),
(50,105,l),
(88,84,o),
(131,74,o),
(170,74,cs),
(207,74,o),
(240,81,o),
(270,93,cs),
(328,117,o),
(362,161,o),
(362,221,cs),
(362,285,o),
(316,322,o),
(225,327,c),
(153,327,l),
(146,333,l),
(158,404,l),
(211,405,l),
(245,405,o),
(285,418,o),
(317,444,cs),
(348,470,o),
(371,505,o),
(371,547,cs),
(371,596,o),
(336,627,o),
(279,627,cs),
(226,627,o),
(177,602,o),
(119,557,c),
(108,557,l),
(104,637,l),
(170,688,o),
(228,711,o),
(295,711,cs)
);
}
);
width = 568;
},
{
layerId = "AC2035D7-313F-43E0-B352-008DE9991D96";
shapes = (
{
closed = 1;
nodes = (
(331,694,o),
(356,689,o),
(378,679,cs),
(420,659,o),
(445,621,o),
(445,571,cs),
(445,533,o),
(431,496,o),
(401,460,cs),
(373,425,o),
(336,397,o),
(292,378,c),
(291,375,l),
(385,354,o),
(437,300,o),
(437,218,cs),
(437,175,o),
(425,138,o),
(401,104,cs),
(353,37,o),
(267,-2,o),
(163,-2,cs),
(132,-2,o),
(90,0,o),
(58,8,c),
(57,27,l),
(60,31,l),
(94,25,o),
(136,22,o),
(165,22,cs),
(213,22,o),
(256,31,o),
(294,46,c),
(368,80,o),
(413,140,o),
(413,216,cs),
(413,304,o),
(347,353,o),
(225,361,c),
(169,361,l),
(165,364,l),
(169,382,l),
(221,382,ls),
(259,382,o),
(308,401,o),
(349,436,cs),
(389,469,o),
(420,515,o),
(420,566,cs),
(420,630,o),
(372,669,o),
(300,669,cs),
(244,669,o),
(191,646,o),
(132,595,c),
(127,595,l),
(126,617,l),
(187,669,o),
(243,694,o),
(303,694,cs)
);
}
);
width = 568;
}
);
unicode = 51;
},
{
glyphname = four;
layers = (
{
layerId = "52170CEE-5BA0-420B-B358-B20FB7EDC86A";
shapes = (
{
closed = 1;
nodes = (
(523,706,l),
(435,14,l),
(422,0,l),
(260,0,l),
(251,13,l),
(319,466,l),
(307,466,l),
(193,308,l),
(550,308,l),
(561,287,l),
(531,142,l),
(-3,142,l),
(-15,158,l),
(3,291,l),
(324,706,l)
);
}
);
width = 568;
},
{
layerId = "C64F1ECC-30E2-4AB6-9CDD-B17FE72FA4E1";
shapes = (
{
closed = 1;
nodes = (
(457,700,l),
(375,9,l),
(368,0,l),
(288,0,l),
(284,8,l),
(360,578,l),
(352,578,l),
(110,277,l),
(510,277,l),
(515,268,l),
(501,199,l),
(19,199,l),
(13,209,l),
(20,273,l),
(361,700,l)
);
}
);
width = 568;
},
{
layerId = "AC2035D7-313F-43E0-B352-008DE9991D96";
shapes = (
{
closed = 1;
nodes = (
(422,690,l),
(338,3,l),
(336,0,l),
(316,0,l),
(314,3,l),
(393,644,l),
(388,644,l),
(70,252,l),
(492,252,l),
(497,247,l),
(490,229,l),
(39,229,l),
(36,234,l),
(38,252,l),
(396,690,l)
);
}
);
width = 568;
}
);
unicode = 52;
},
{
glyphname = five;
layers = (
{
layerId = "52170CEE-5BA0-420B-B358-B20FB7EDC86A";
shapes = (
{
closed = 1;
nodes = (
(567,706,l),
(579,692,l),
(536,542,l),
(516,524,l),
(285,524,l),
(275,455,l),
(348,440,ls),
(464,417,o),
(520,360,o),
(520,267,cs),
(520,212,o),
(505,163,o),
(474,121,cs),
(410,36,o),
(296,-14,o),
(152,-14,cs),
(107,-14,o),
(46,-8,o),
(-1,1,c),
(5,169,l),
(21,185,l),
(75,168,o),
(123,163,o),
(176,163,cs),
(202,163,o),
(223,165,o),
(240,170,c),
(274,180,o),
(292,200,o),
(292,227,cs),
(292,253,o),
(268,268,o),
(221,274,c),
(92,296,l),
(80,313,l),
(125,682,l),
(151,706,l)
);
}
);
width = 568;
},
{
layerId = "C64F1ECC-30E2-4AB6-9CDD-B17FE72FA4E1";
shapes = (
{
closed = 1;
nodes = (
(523,700,l),
(528,694,l),
(510,623,l),
(501,616,l),
(231,616,l),
(207,436,l),
(284,420,ls),
(409,394,o),
(474,335,o),
(474,239,cs),
(474,192,o),
(460,151,o),
(432,112,cs),
(376,36,o),
(276,-13,o),
(158,-13,cs),
(120,-13,o),
(75,-7,o),
(37,-1,c),
(40,90,l),
(50,98,l),
(95,76,o),
(138,67,o),
(180,67,cs),
(219,67,o),
(254,74,o),
(284,88,cs),
(343,117,o),
(377,166,o),
(377,227,cs),
(377,288,o),
(333,327,o),
(247,343,cs),
(129,365,l),
(121,373,l),
(159,686,l),
(178,700,l)
);
}
);
width = 568;
},
{
layerId = "AC2035D7-313F-43E0-B352-008DE9991D96";
shapes = (
{
closed = 1;
nodes = (
(506,690,l),
(509,688,l),
(504,668,l),
(500,666,l),
(209,666,l),
(176,424,l),
(256,406,ls),
(393,377,o),
(455,320,o),
(455,232,cs),
(455,186,o),
(443,145,o),
(418,109,cs),
(366,37,o),
(274,-4,o),
(154,-4,cs),
(131,-4,o),
(99,-2,o),
(68,3,c),
(63,24,l),
(70,27,l),
(104,22,o),
(134,19,o),
(160,19,cs),
(213,19,o),
(260,28,o),
(302,46,cs),
(383,83,o),
(433,148,o),
(433,230,cs),
(433,303,o),
(371,353,o),
(245,382,cs),
(157,402,l),
(153,409,l),
(187,680,l),
(199,690,l)
);
}
);
width = 568;
}
);
unicode = 53;
},
{
glyphname = six;
layers = (
{
background = {
shapes = (
{
closed = 1;
nodes = (
(83,598,o),
(13,490,o),
(13,391,c),
(13,300,o),
(71,210,o),
(183,210,cs),
(202,210,o),
(225,214,o),
(245,220,c),
(279,180,l),
(303,360,l),
(279,350,o),
(259,345,o),
(242,345,cs),
(204,345,o),
(189,367,o),
(189,410,c),
(189,452,o),
(204,473,o),
(235,473,c),
(282,473,o),
(286,433,o),
(286,363,c),
(286,214,o),
(240,170,o),
(53,93,c),
(53,74,l),
(177,-12,l),
(186,-12,l),
(361,76,o),
(463,211,o),
(463,366,c),
(463,509,o),
(378,598,o),
(240,598,c)
);
}
);
};
layerId = "52170CEE-5BA0-420B-B358-B20FB7EDC86A";
shapes = (
{
closed = 1;
nodes = (
(412,706,l),
(402,706,l),
(166,595,o),
(21,424,o),
(21,232,cs),
(21,81,o),
(112,-13,o),
(269,-13,cs),
(454,-13,o),
(547,118,o),
(547,240,cs),
(547,343,o),
(482,444,o),
(362,444,cs),
(339,444,o),
(321,440,o),
(299,431,c),
(265,477,l),
(211,268,l),
(239,280,o),
(265,286,o),
(285,286,cs),
(324,286,o),
(338,265,o),
(338,219,cs),
(338,169,o),
(318,133,o),
(277,133,cs),
(238,133,o),
(226,161,o),
(226,231,cs),
(226,409,o),
(312,515,o),
(541,583,c),
(543,606,l)
);
}
);
width = 568;
},
{
background = {
shapes = (
{
closed = 1;
nodes = (
(121,595,o),
(49,515,o),
(49,406,c),
(49,306,o),
(108,237,o),
(209,237,cs),
(258,237,o),
(300,253,o),
(336,279,c),
(352,261,l),
(365,358,l),
(325,320,o),
(280,299,o),
(233,299,cs),
(164,299,o),
(125,342,o),
(125,419,c),
(125,496,o),
(169,537,o),
(239,537,cs),
(321,537,o),
(356,482,o),
(356,375,c),
(356,212,o),
(273,112,o),
(66,40,c),
(66,31,l),
(133,-7,l),
(138,-7,l),
(325,68,o),
(433,206,o),
(433,376,c),
(433,514,o),
(372,595,o),
(246,595,cs)
);
}
);
};
layerId = "C64F1ECC-30E2-4AB6-9CDD-B17FE72FA4E1";
shapes = (
{
closed = 1;
nodes = (
(470,700,l),
(460,700,l),
(156,587,o),
(59,379,o),
(59,215,cs),
(59,81,o),
(130,-7,o),
(272,-7,cs),
(459,-7,o),
(511,146,o),
(511,233,cs),
(511,334,o),
(436,413,o),
(329,413,cs),
(276,413,o),
(233,395,o),
(184,364,c),
(169,385,l),
(143,262,l),
(195,314,o),
(256,341,o),
(310,341,cs),
(382,341,o),
(419,297,o),
(419,222,cs),
(419,149,o),
(389,66,o),
(277,66,cs),
(174,66,o),
(150,137,o),
(150,222,cs),
(150,364,o),
(208,537,o),
(546,644,c),
(547,654,l)
);
}
);
width = 568;
},
{
background = {
shapes = (
{
closed = 1;
nodes = (
(131,594,o),
(68,530,o),
(68,414,c),
(68,310,o),
(127,253,o),
(226,253,cs),
(288,253,o),
(342,276,o),
(388,313,c),
(394,308,l),
(400,346,l),
(350,301,o),
(291,273,o),
(227,273,cs),
(140,273,o),
(88,323,o),
(88,414,c),
(88,517,o),
(144,574,o),
(246,574,c),
(343,574,o),
(396,505,o),
(396,382,c),
(396,211,o),
(292,80,o),
(98,11,c),
(98,7,l),
(107,-4,l),
(111,-4,l),
(305,64,o),
(416,203,o),
(416,382,c),
(416,518,o),
(355,594,o),
(246,594,c)
);
}
);
};
layerId = "AC2035D7-313F-43E0-B352-008DE9991D96";
shapes = (
{
closed = 1;
nodes = (
(496,690,l),
(486,690,l),
(163,582,o),
(84,350,o),
(84,201,cs),
(84,73,o),
(145,-3,o),
(262,-3,c),
(440,-3,o),
(482,141,o),
(482,226,cs),
(482,334,o),
(417,392,o),
(311,392,cs),
(242,392,o),
(183,367,o),
(129,324,c),
(122,330,l),
(111,286,l),
(170,338,o),
(238,369,o),
(310,369,cs),
(403,369,o),
(459,318,o),
(459,224,cs),
(459,145,o),
(420,20,o),
(263,20,c),
(158,20,o),
(107,89,o),
(107,204,cs),
(107,355,o),
(193,567,o),
(504,673,c),
(504,677,l)
);
}
);
width = 568;
}
);
unicode = 54;
},
{
glyphname = seven;
layers = (
{
layerId = "52170CEE-5BA0-420B-B358-B20FB7EDC86A";
shapes = (
{
closed = 1;
nodes = (
(89,706,l),
(579,706,l),
(559,538,l),
(254,0,l),
(53,0,l),
(41,36,l),
(328,512,l),
(63,512,l),
(53,529,l)
);
}
);
width = 568;
},
{
layerId = "C64F1ECC-30E2-4AB6-9CDD-B17FE72FA4E1";
shapes = (
{
closed = 1;
nodes = (
(98,700,l),
(555,700,l),
(548,627,l),
(175,0,l),
(78,0,l),
(75,16,l),
(448,615,l),
(88,615,l),
(82,625,l)
);
}
);
width = 568;
},
{
layerId = "AC2035D7-313F-43E0-B352-008DE9991D96";
shapes = (
{
closed = 1;
nodes = (
(116,690,l),
(543,690,l),
(541,669,l),
(138,0,l),
(110,0,l),
(110,4,l),
(513,666,l),
(114,666,l),
(110,671,l)
);
}
);
width = 568;
}
);
unicode = 55;
},
{
glyphname = eight;
layers = (
{
layerId = "52170CEE-5BA0-420B-B358-B20FB7EDC86A";
shapes = (
{
closed = 1;
nodes = (
(474,720,o),
(556,651,o),
(556,548,cs),
(556,523,o),
(553,501,o),
(545,481,cs),
(529,441,o),
(496,406,o),
(448,376,c),
(447,368,l),
(466,356,o),
(481,344,o),
(494,330,cs),
(520,301,o),
(538,262,o),
(538,209,cs),
(538,165,o),
(526,127,o),
(504,93,cs),
(459,25,o),
(374,-14,o),
(265,-14,cs),
(185,-14,o),
(122,2,o),
(77,34,cs),
(32,67,o),
(10,109,o),
(10,162,cs),
(10,191,o),
(14,216,o),
(24,237,cs),
(43,278,o),
(85,309,o),
(143,332,c),
(144,342,l),
(121,357,o),
(103,376,o),
(86,402,cs),
(70,428,o),
(62,459,o),
(62,499,cs),
(62,543,o),
(73,582,o),
(95,615,cs),
(139,682,o),
(223,720,o),
(332,720,cs)
);
},
{
closed = 1;
nodes = (
(242,262,o),
(228,252,o),
(219,240,cs),
(211,228,o),
(206,215,o),
(206,199,cs),
(206,159,o),
(227,140,o),
(271,140,cs),
(296,140,o),
(315,146,o),
(327,158,cs),
(339,170,o),
(345,183,o),
(345,195,cs),
(345,207,o),
(341,218,o),
(334,227,cs),
(320,244,o),
(296,258,o),
(265,271,c)
);
},
{
closed = 1;
nodes = (
(273,562,o),
(254,538,o),
(254,510,cs),
(254,498,o),
(257,488,o),
(263,479,cs),
(274,460,o),
(296,448,o),
(327,434,c),
(337,443,o),
(346,452,o),
(351,460,cs),
(363,478,o),
(370,494,o),
(370,512,cs),
(370,544,o),
(350,562,o),
(314,562,cs)
);
}
);
width = 568;
},
{
layerId = "C64F1ECC-30E2-4AB6-9CDD-B17FE72FA4E1";
shapes = (
{
closed = 1;
nodes = (
(436,707,o),
(510,649,o),
(510,548,cs),
(510,517,o),
(503,489,o),
(489,466,cs),
(462,420,o),
(418,391,o),
(373,369,c),
(372,363,l),
(393,353,o),
(414,341,o),
(432,328,cs),
(470,300,o),
(494,261,o),
(494,197,cs),
(494,157,o),
(484,122,o),
(464,91,cs),
(424,28,o),
(348,-9,o),
(251,-9,cs),
(187,-9,o),
(134,8,o),
(96,39,cs),
(57,71,o),
(37,114,o),
(37,166,cs),
(37,200,o),
(45,228,o),
(60,251,cs),
(89,297,o),
(142,327,o),
(198,353,c),
(199,358,l),
(172,373,o),
(150,392,o),
(131,414,cs),
(112,436,o),
(103,467,o),
(103,509,cs),
(103,548,o),
(112,583,o),
(131,613,cs),
(168,673,o),
(236,707,o),
(323,707,cs)
);
},
{
closed = 1;
nodes = (
(235,308,o),
(200,294,o),
(170,272,cs),
(141,250,o),
(123,221,o),
(123,178,cs),
(123,108,o),
(170,62,o),
(253,62,cs),
(299,62,o),
(336,74,o),
(366,99,cs),
(395,124,o),
(409,155,o),
(409,191,cs),
(409,215,o),
(404,235,o),
(392,250,cs),
(369,281,o),
(325,301,o),
(273,322,c)
);
},
{
closed = 1;
nodes = (
(242,636,o),
(186,589,o),
(186,519,cs),
(186,496,o),
(191,476,o),
(201,462,cs),
(222,431,o),
(258,414,o),
(297,396,c),
(320,406,o),
(341,417,o),
(360,429,cs),
(400,453,o),
(427,487,o),
(427,539,cs),
(427,601,o),
(391,636,o),
(322,636,cs)
);
}
);
width = 568;
},
{
layerId = "AC2035D7-313F-43E0-B352-008DE9991D96";
shapes = (
{
closed = 1;
nodes = (
(421,693,o),
(483,643,o),
(483,551,cs),
(483,516,o),
(475,485,o),
(458,460,cs),
(425,412,o),
(372,382,o),
(316,362,c),
(316,358,l),
(343,347,o),
(370,335,o),
(391,322,c),
(438,296,o),
(468,257,o),
(468,189,cs),
(468,153,o),
(459,119,o),
(442,91,cs),
(406,32,o),
(338,-4,o),
(248,-4,cs),
(191,-4,o),
(146,10,o),
(113,38,cs),
(80,67,o),
(63,105,o),
(63,154,cs),
(63,194,o),
(73,226,o),
(93,253,cs),
(131,305,o),
(194,338,o),
(253,360,c),
(253,363,l),
(218,379,o),
(189,398,o),
(168,421,c),
(145,444,o),
(134,475,o),
(134,517,cs),
(134,552,o),
(143,584,o),
(160,610,c),
(192,664,o),
(254,693,o),
(327,693,cs)
);
},
{
closed = 1;
nodes = (
(243,335,o),
(194,316,o),
(155,286,cs),
(115,256,o),
(87,215,o),
(87,155,cs),
(87,70,o),
(150,19,o),
(249,19,cs),
(309,19,o),
(356,35,o),
(391,67,cs),
(427,99,o),
(446,139,o),
(446,187,cs),
(446,220,o),
(438,245,o),
(423,265,c),
(391,303,o),
(339,324,o),
(282,349,c)
);
},
{
closed = 1;
nodes = (
(226,669,o),
(157,608,o),
(157,517,cs),
(157,490,o),
(163,467,o),
(174,450,cs),
(197,414,o),
(238,393,o),
(285,373,c),
(312,382,o),
(340,393,o),
(367,407,cs),
(421,435,o),
(459,480,o),
(459,550,cs),
(459,628,o),
(409,669,o),
(326,669,cs)
);
}
);
width = 568;
}
);
unicode = 56;
},
{
glyphname = nine;
layers = (
{
background = {
shapes = (
{
closed = 1;
nodes = (
(83,598,o),
(13,490,o),
(13,391,c),
(13,300,o),
(71,210,o),
(183,210,cs),
(202,210,o),
(225,214,o),
(245,220,c),
(279,180,l),
(303,360,l),
(279,350,o),
(259,345,o),
(242,345,cs),
(204,345,o),
(189,367,o),
(189,410,c),
(189,452,o),
(204,473,o),
(235,473,c),
(282,473,o),
(286,433,o),
(286,363,c),
(286,214,o),
(240,170,o),
(53,93,c),
(53,74,l),
(177,-12,l),
(186,-12,l),
(361,76,o),
(463,211,o),
(463,366,c),
(463,509,o),
(378,598,o),
(240,598,c)
);
}
);
};
layerId = "52170CEE-5BA0-420B-B358-B20FB7EDC86A";
shapes = (
{
closed = 1;
nodes = (
(184,0,l),
(194,0,l),
(430,111,o),
(575,282,o),
(575,474,cs),
(575,625,o),
(484,719,o),
(327,719,cs),
(142,719,o),
(49,588,o),
(49,466,cs),
(49,363,o),
(114,262,o),
(234,262,cs),
(257,262,o),
(275,266,o),
(297,275,c),
(331,229,l),
(385,438,l),
(357,426,o),
(331,420,o),
(311,420,cs),
(272,420,o),
(258,441,o),
(258,487,cs),
(258,537,o),
(278,573,o),
(319,573,cs),
(358,573,o),
(370,545,o),
(370,475,cs),
(370,297,o),
(284,191,o),
(55,123,c),
(53,100,l)
);
}
);
width = 568;
},
{
background = {
shapes = (
{
closed = 1;
nodes = (
(121,595,o),
(49,515,o),
(49,406,c),
(49,306,o),
(108,237,o),
(209,237,cs),
(258,237,o),
(300,253,o),
(336,279,c),
(352,261,l),
(365,358,l),
(325,320,o),
(280,299,o),
(233,299,cs),
(164,299,o),
(125,342,o),
(125,419,c),
(125,496,o),
(169,537,o),
(239,537,cs),
(321,537,o),
(356,482,o),
(356,375,c),
(356,212,o),
(273,112,o),
(66,40,c),
(66,31,l),
(133,-7,l),
(138,-7,l),
(325,68,o),
(433,206,o),
(433,376,c),
(433,514,o),
(372,595,o),
(246,595,cs)
);
}
);
};
layerId = "C64F1ECC-30E2-4AB6-9CDD-B17FE72FA4E1";
shapes = (
{
closed = 1;
nodes = (
(130,0,l),
(140,0,l),
(444,113,o),
(541,321,o),
(541,485,cs),
(541,619,o),
(470,707,o),
(328,707,cs),
(141,707,o),
(89,554,o),
(89,467,cs),
(89,366,o),
(164,287,o),
(271,287,cs),
(324,287,o),
(367,305,o),
(416,336,c),
(431,315,l),
(457,438,l),
(405,386,o),
(344,359,o),
(290,359,cs),
(218,359,o),
(181,403,o),
(181,478,cs),
(181,551,o),
(211,634,o),
(323,634,cs),
(426,634,o),
(450,563,o),
(450,478,cs),
(450,336,o),
(392,163,o),
(54,56,c),
(53,46,l)
);
}
);
width = 568;
},
{
background = {
shapes = (
{
closed = 1;
nodes = (
(131,594,o),
(68,530,o),
(68,414,c),
(68,310,o),
(127,253,o),
(226,253,cs),
(288,253,o),
(342,276,o),
(388,313,c),
(394,308,l),
(400,346,l),
(350,301,o),
(291,273,o),
(227,273,cs),
(140,273,o),
(88,323,o),
(88,414,c),
(88,517,o),
(144,574,o),
(246,574,c),
(343,574,o),
(396,505,o),
(396,382,c),
(396,211,o),
(292,80,o),
(98,11,c),
(98,7,l),
(107,-4,l),
(111,-4,l),
(305,64,o),
(416,203,o),
(416,382,c),
(416,518,o),
(355,594,o),
(246,594,c)
);
}
);
};
layerId = "AC2035D7-313F-43E0-B352-008DE9991D96";
shapes = (
{
closed = 1;
nodes = (
(102,0,l),
(112,0,l),
(435,108,o),
(514,340,o),
(514,489,cs),
(514,617,o),
(453,693,o),
(336,693,c),
(158,693,o),
(116,549,o),
(116,464,cs),
(116,356,o),
(181,298,o),
(287,298,cs),
(356,298,o),
(415,323,o),
(469,366,c),
(476,360,l),
(487,404,l),
(428,352,o),
(360,321,o),
(288,321,cs),
(195,321,o),
(139,372,o),
(139,466,cs),
(139,545,o),
(178,670,o),
(335,670,c),
(440,670,o),
(491,601,o),
(491,486,cs),
(491,335,o),
(405,123,o),
(94,17,c),
(94,13,l)
);
}
);
width = 568;
}
);
unicode = 57;
},
{
glyphname = less;
layers = (
{
layerId = "52170CEE-5BA0-420B-B358-B20FB7EDC86A";
shapes = (
{
closed = 1;
nodes = (
(486,524,l),
(514,403,l),
(505,389,l),
(191,288,l),
(190,278,l),
(478,179,l),
(436,61,l),
(416,47,l),
(34,193,l),
(55,364,l),
(70,382,l)
);
}
);
width = 537;
},
{
layerId = "C64F1ECC-30E2-4AB6-9CDD-B17FE72FA4E1";
shapes = (
{
closed = 1;
nodes = (
(490,507,l),
(505,453,l),
(499,444,l),
(112,294,l),
(112,287,l),
(464,145,l),
(443,92,l),
(432,85,l),
(37,250,l),
(46,327,l),
(55,336,l)
);
}
);
width = 544;
},
{
layerId = "AC2035D7-313F-43E0-B352-008DE9991D96";
shapes = (
{
closed = 1;
nodes = (
(494,497,l),
(499,482,l),
(496,476,l),
(70,297,l),
(69,293,l),
(456,126,l),
(448,109,l),
(443,107,l),
(39,282,l),
(43,306,l),
(46,310,l)
);
}
);
width = 546;
}
);
unicode = 60;
},
{
glyphname = greater;
layers = (
{
layerId = "52170CEE-5BA0-420B-B358-B20FB7EDC86A";
shapes = (
{
closed = 1;
nodes = (
(122,524,l),
(503,382,l),
(514,364,l),
(494,193,l),
(75,47,l),
(59,61,l),
(46,179,l),
(359,278,l),
(360,288,l),
(70,389,l),
(64,403,l)
);
}
);
width = 549;
},
{
layerId = "C64F1ECC-30E2-4AB6-9CDD-B17FE72FA4E1";
shapes = (
{
closed = 1;
nodes = (
(119,507,l),
(513,336,l),
(520,327,l),
(511,250,l),
(73,85,l),
(64,92,l),
(57,145,l),
(444,287,l),
(444,294,l),
(95,444,l),
(92,453,l)
);
}
);
width = 549;
},
{
layerId = "AC2035D7-313F-43E0-B352-008DE9991D96";
shapes = (
{
closed = 1;
nodes = (
(115,497,l),
(517,310,l),
(519,306,l),
(515,282,l),
(69,107,l),
(64,109,l),
(60,126,l),
(489,293,l),
(489,297,l),
(107,476,l),
(105,482,l)
);
}
);
width = 547;
}
);
unicode = 62;
},
{
glyphname = question;
layers = (
{
layerId = "52170CEE-5BA0-420B-B358-B20FB7EDC86A";
shapes = (
{
closed = 1;
nodes = (
(104,207,o),
(61,163,o),
(61,94,cs),
(61,27,o),
(96,-10,o),
(163,-10,cs),
(232,-10,o),
(273,34,o),
(273,103,cs),
(273,170,o),
(236,207,o),
(172,207,cs)
);
},
{
closed = 1;
nodes = (
(106,261,l),
(257,283,l),
(258,324,ls),
(259,353,o),
(270,370,o),
(296,383,cs),
(330,400,ls),
(411,440,o),
(459,503,o),
(459,570,cs),
(459,671,o),
(350,729,o),
(151,737,c),
(132,728,l),
(82,620,l),
(95,600,l),
(131,598,o),
(263,596,o),
(263,538,cs),
(263,509,o),
(240,489,o),
(203,474,cs),
(172,462,ls),
(118,441,o),
(96,409,o),
(95,355,cs),
(94,275,l)
);
}
);
width = 383;
},
{
layerId = "C64F1ECC-30E2-4AB6-9CDD-B17FE72FA4E1";
shapes = (
{
closed = 1;
nodes = (
(177,101,o),
(195,82,o),
(195,50,cs),
(195,17,o),
(175,-5,o),
(142,-5,cs),
(110,-5,o),
(90,15,o),
(90,47,cs),
(90,80,o),
(112,101,o),
(145,101,cs)
);
},
{
closed = 1;
nodes = (
(123,230,l),
(118,237,l),
(120,289,ls),
(122,349,o),
(143,392,o),
(188,417,cs),
(242,447,ls),
(293,475,o),
(321,504,o),
(321,549,cs),
(321,612,o),
(259,650,o),
(123,659,c),
(118,668,l),
(141,716,l),
(153,721,l),
(247,715,o),
(407,686,o),
(407,563,cs),
(407,500,o),
(365,440,o),
(294,397,cs),
(234,361,ls),
(207,345,o),
(194,324,o),
(192,286,cs),
(190,237,l)
);
}
);
width = 363;
},
{
layerId = "AC2035D7-313F-43E0-B352-008DE9991D96";
shapes = (
{
closed = 1;
nodes = (
(116,41,o),
(107,32,o),
(107,20,cs),
(107,7,o),
(116,-2,o),
(129,-2,cs),
(141,-2,o),
(150,7,o),
(150,20,cs),
(150,32,o),
(141,41,o),
(129,41,cs)
);
},
{
closed = 1;
nodes = (
(133,211,l),
(151,212,l),
(156,282,ls),
(158,315,o),
(173,341,o),
(196,355,cs),
(276,404,ls),
(343,445,o),
(378,500,o),
(378,559,cs),
(378,644,o),
(293,703,o),
(153,712,c),
(145,709,l),
(137,695,l),
(139,692,l),
(221,686,o),
(355,661,o),
(355,554,cs),
(355,502,o),
(320,459,o),
(265,424,cs),
(186,374,ls),
(152,353,o),
(138,326,o),
(135,282,cs),
(131,216,l)
);
}
);
width = 352;
}
);
unicode = 63;
},
{
glyphname = at;
layers = (
{
layerId = "52170CEE-5BA0-420B-B358-B20FB7EDC86A";
shapes = (
{
closed = 1;
nodes = (
(616,720,o),
(686,705,o),
(746,677,cs),
(865,619,o),
(935,510,o),
(935,357,cs),
(935,129,o),
(769,2,o),
(476,2,c),
(626,141,l),
(661,141,o),
(691,151,o),
(717,169,cs),
(769,206,o),
(798,272,o),
(798,351,cs),
(798,402,o),
(786,446,o),
(763,482,cs),
(715,555,o),
(628,595,o),
(510,590,cs),
(439,586,o),
(378,569,o),
(325,537,cs),
(219,472,o),
(159,359,o),
(159,223,cs),
(159,147,o),
(177,84,o),
(212,32,cs),
(281,-73,o),
(407,-130,o),
(572,-130,c),
(580,-149,l),
(525,-246,l),
(424,-246,o),
(335,-228,o),
(260,-194,cs),
(108,-126,o),
(21,8,o),
(21,200,cs),
(21,345,o),
(71,474,o),
(162,569,cs),
(252,664,o),
(380,720,o),
(536,720,cs)
);
},
{
closed = 1;
nodes = (
(700,505,l),
(712,496,l),
(660,46,l),
(476,2,l),
(532,470,l)
);
},
{
closed = 1;
nodes = (
(487,498,l),
(675,466,l),
(575,332,l),
(452,364,l),
(435,364,o),
(423,354,o),
(415,334,cs),
(406,314,o),
(403,284,o),
(403,245,cs),
(403,226,o),
(404,211,o),
(406,199,cs),
(410,175,o),
(416,164,o),
(425,164,cs),
(432,164,o),
(442,171,o),
(452,186,cs),
(473,215,o),
(500,273,o),
(535,365,c),
(495,115,l),
(475,115,l),
(453,72,o),
(429,33,o),
(399,-5,c),
(375,-5,l),
(318,9,o),
(280,32,o),
(261,61,cs),
(242,91,o),
(233,126,o),
(233,168,cs),
(233,230,o),
(252,297,o),
(293,358,cs),
(332,418,o),
(394,468,o),
(480,498,c)
);
}
);
width = 946;
},
{
layerId = "C64F1ECC-30E2-4AB6-9CDD-B17FE72FA4E1";
shapes = (
{
closed = 1;
nodes = (
(576,673,o),
(642,659,o),
(697,630,cs),
(807,573,o),
(870,467,o),
(870,328,cs),
(870,121,o),
(736,4,o),
(496,-4,c),
(553,61,l),
(606,63,o),
(652,75,o),
(690,97,cs),
(766,140,o),
(807,219,o),
(807,324,cs),
(807,383,o),
(794,434,o),
(769,477,cs),
(718,564,o),
(622,615,o),
(491,612,cs),
(414,611,o),
(346,593,o),
(288,560,cs),
(171,492,o),
(103,369,o),
(103,216,cs),
(103,137,o),
(120,69,o),
(155,13,cs),
(223,-100,o),
(353,-162,o),
(521,-162,c),
(524,-171,l),
(496,-217,l),
(405,-216,o),
(325,-198,o),
(256,-165,cs),
(119,-97,o),
(38,31,o),
(38,204,cs),
(38,341,o),
(84,457,o),
(165,541,cs),
(246,625,o),
(361,673,o),
(501,673,cs)
);
},
{
closed = 1;
nodes = (
(632,509,l),
(643,503,l),
(584,16,l),
(496,-4,l),
(557,472,l)
);
},
{
closed = 1;
nodes = (
(508,509,l),
(614,468,l),
(581,401,l),
(485,438,l),
(433,438,o),
(391,411,o),
(363,365,cs),
(335,319,o),
(320,257,o),
(320,189,cs),
(320,162,o),
(322,142,o),
(326,127,cs),
(333,98,o),
(344,87,o),
(353,87,cs),
(361,87,o),
(376,98,o),
(397,121,cs),
(439,166,o),
(498,258,o),
(555,393,c),
(538,214,l),
(515,214,l),
(466,130,o),
(408,51,o),
(344,-9,c),
(328,-9,l),
(300,7,o),
(279,29,o),
(264,58,cs),
(249,86,o),
(241,122,o),
(241,166,cs),
(241,241,o),
(263,318,o),
(307,383,cs),
(350,447,o),
(415,494,o),
(502,509,c)
);
}
);
width = 903;
},
{
layerId = "AC2035D7-313F-43E0-B352-008DE9991D96";
shapes = (
{
closed = 1;
nodes = (
(554,646,o),
(616,632,o),
(669,604,cs),
(773,547,o),
(833,443,o),
(833,310,cs),
(833,117,o),
(717,8,o),
(506,-4,c),
(511,15,l),
(576,19,o),
(630,33,o),
(675,57,cs),
(763,104,o),
(811,189,o),
(811,310,cs),
(811,373,o),
(798,428,o),
(772,475,cs),
(719,570,o),
(618,625,o),
(482,625,cs),
(399,625,o),
(327,608,o),
(266,573,cs),
(142,503,o),
(70,375,o),
(70,212,cs),
(70,131,o),
(88,61,o),
(123,2,cs),
(193,-115,o),
(323,-180,o),
(491,-180,c),
(492,-185,l),
(478,-202,l),
(393,-200,o),
(319,-182,o),
(254,-148,cs),
(124,-80,o),
(48,44,o),
(48,207,cs),
(48,339,o),
(91,448,o),
(168,526,cs),
(244,604,o),
(351,646,o),
(482,646,cs)
);
},
{
closed = 1;
nodes = (
(587,501,l),
(593,498,l),
(533,0,l),
(506,-4,l),
(567,489,l)
);
},
{
closed = 1;
nodes = (
(502,499,l),
(583,492,l),
(579,471,l),
(500,477,l),
(429,476,o),
(371,438,o),
(332,377,cs),
(292,316,o),
(272,237,o),
(272,154,cs),
(272,122,o),
(275,97,o),
(280,78,cs),
(291,40,o),
(307,26,o),
(316,26,cs),
(321,26,o),
(336,40,o),
(362,69,cs),
(414,125,o),
(492,235,o),
(565,388,c),
(545,296,l),
(539,296,l),
(475,173,o),
(396,65,o),
(319,-4,c),
(307,-4,l),
(288,10,o),
(273,28,o),
(264,51,cs),
(255,74,o),
(250,107,o),
(250,150,cs),
(250,241,o),
(273,325,o),
(315,389,cs),
(357,453,o),
(418,494,o),
(498,499,c)
);
}
);
width = 879;
}
);
leftKerningGroup = C2;
rightKerningGroup = D;
unicode = 64;
},
{
glyphname = A;
layers = (
{
anchors = (
{
name = m.fi;
position = "{399, 707}";
},
{
name = m.uni01EB_1;
position = "{642, 0}";
},
{
name = b.uni0324_5;
position = "{311, 0}";
}
);
layerId = "52170CEE-5BA0-420B-B358-B20FB7EDC86A";
shapes = (
{
closed = 1;
nodes = (
(536,707,l),
(642,0,l),
(420,0,l),
(382,511,l),
(369,511,l),
(185,0,l),
(-29,0,l),
(272,707,l)
);
},
{
closed = 1;
nodes = (
(453,281,l),
(434,120,l),
(188,120,l),
(207,281,l)
);
}
);
width = 685;
},
{
anchors = (
{
name = m.fi;
position = "{399, 707}";
},
{
name = m.uni01EB_1;
position = "{642, 0}";
},
{
name = b.uni0324_5;
position = "{311, 0}";
}
);
layerId = "C64F1ECC-30E2-4AB6-9CDD-B17FE72FA4E1";
shapes = (
{
closed = 1;
nodes = (
(420,700,l),
(553,0,l),
(459,0,l),
(356,605,l),
(348,605,l),
(76,0,l),
(-16,0,l),
(312,700,l)
);
},
{
closed = 1;
nodes = (
(466,266,l),
(456,186,l),
(128,186,l),
(138,266,l)
);
}
);
width = 604;
},
{
anchors = (
{
name = m.fi;
position = "{385, 702}";
},
{
name = m.uni01EB_1;
position = "{603, 0}";
},
{
name = b.uni0324_5;
position = "{295, 0}";
}
);
layerId = "AC2035D7-313F-43E0-B352-008DE9991D96";
shapes = (
{
closed = 1;
nodes = (
(363,696,l),
(513,0,l),
(488,0,l),
(347,658,l),
(344,658,l),
(17,0,l),
(-9,0,l),
(340,696,l)
);
},
{
closed = 1;
nodes = (
(449,254,l),
(452,233,l),
(120,233,l),
(128,254,l)
);
}
);
width = 572;
}
);
leftKerningGroup = A2;
rightKerningGroup = A;
unicode = 65;
},
{
glyphname = B;
layers = (
{
layerId = "52170CEE-5BA0-420B-B358-B20FB7EDC86A";
shapes = (
{
closed = 1;
nodes = (
(427,708,ls),
(500,708,o),
(560,695,o),
(605,667,cs),
(650,640,o),
(673,598,o),
(673,543,cs),
(673,472,o),
(631,402,o),
(544,364,c),
(627,330,o),
(657,289,o),
(657,214,cs),
(657,70,o),
(546,-8,o),
(275,-8,cs),
(254,-8,o),
(229,-8,o),
(202,-7,cs),
(146,-5,o),
(87,-1,o),
(36,0,c),
(185,152,l),
(199,149,o),
(214,146,o),
(233,144,cs),
(269,140,o),
(307,137,o),
(328,137,cs),
(394,137,o),
(436,167,o),
(436,218,cs),
(436,252,o),
(417,266,o),
(381,280,c),
(145,280,l),
(163,415,l),
(376,415,l),
(424,429,o),
(447,458,o),
(447,502,cs),
(447,549,o),
(424,562,o),
(333,562,cs),
(306,562,o),
(282,561,o),
(224,558,c),
(122,707,l)
);
},
{
closed = 1;
nodes = (
(336,707,l),
(254,0,l),
(36,0,l),
(122,707,l)
);
}
);
width = 689;
},
{
layerId = "C64F1ECC-30E2-4AB6-9CDD-B17FE72FA4E1";
shapes = (
{
closed = 1;
nodes = (
(343,701,ls),
(400,701,o),
(444,689,o),
(477,664,cs),
(509,639,o),
(525,603,o),
(525,554,cs),
(525,463,o),
(480,398,o),
(403,365,c),
(484,338,o),
(524,292,o),
(524,219,cs),
(524,74,o),
(424,-4,o),
(221,-4,cs),
(214,-4,o),
(200,-4,o),
(181,-4,cs),
(142,-3,o),
(94,-1,o),
(67,0,c),
(130,81,l),
(141,80,o),
(153,78,o),
(167,77,cs),
(195,74,o),
(224,73,o),
(244,73,cs),
(363,73,o),
(429,124,o),
(429,215,cs),
(429,276,o),
(393,309,o),
(321,320,c),
(141,320,l),
(151,393,l),
(317,393,l),
(390,410,o),
(429,457,o),
(429,538,cs),
(429,598,o),
(397,625,o),
(318,625,cs),
(281,625,o),
(237,625,o),
(192,624,c),
(155,700,l)
);
},
{
closed = 1;
nodes = (
(248,700,l),
(164,0,l),
(66,0,l),
(154,700,l)
);
}
);
width = 568;
},
{
layerId = "AC2035D7-313F-43E0-B352-008DE9991D96";
shapes = (
{
closed = 1;
nodes = (
(302,698,ls),
(351,698,o),
(389,686,o),
(415,662,cs),
(440,638,o),
(453,604,o),
(453,560,cs),
(453,461,o),
(408,396,o),
(331,365,c),
(412,352,o),
(462,303,o),
(462,216,cs),
(462,80,o),
(370,-3,o),
(201,-3,cs),
(191,-3,o),
(179,-3,o),
(166,-3,c),
(138,-2,o),
(111,-1,o),
(87,0,c),
(98,23,l),
(109,22,o),
(120,22,o),
(131,21,cs),
(153,20,o),
(175,19,o),
(198,19,cs),
(350,19,o),
(439,92,o),
(439,213,cs),
(439,293,o),
(389,342,o),
(297,349,c),
(143,349,l),
(145,371,l),
(289,371,l),
(380,390,o),
(430,460,o),
(430,555,cs),
(430,627,o),
(385,675,o),
(308,675,cs),
(265,675,o),
(222,675,o),
(179,675,c),
(176,696,l)
);
},
{
closed = 1;
nodes = (
(198,696,l),
(109,0,l),
(87,0,l),
(176,696,l)
);
}
);
width = 514;
}
);
leftKerningGroup = B2;
rightKerningGroup = B;
unicode = 66;
},
{
glyphname = C;
layers = (
{
anchors = (
{
name = m.fi;
position = "{376, 707}";
},
{
name = b.uni0324_5;
position = "{357, 0}";
}
);
layerId = "52170CEE-5BA0-420B-B358-B20FB7EDC86A";
shapes = (
{
closed = 1;
nodes = (
(498,719,o),
(567,708,o),
(616,689,c),
(558,515,l),
(543,507,l),
(507,527,o),
(455,541,o),
(413,541,cs),
(376,541,o),
(346,533,o),
(324,518,cs),
(280,486,o),
(262,423,o),
(262,322,cs),
(262,217,o),
(301,169,o),
(381,169,cs),
(420,169,o),
(478,178,o),
(519,192,c),
(534,181,l),
(496,9,l),
(442,-8,o),
(401,-12,o),
(353,-12,cs),
(142,-12,o),
(27,95,o),
(27,287,cs),
(27,377,o),
(43,454,o),
(74,519,cs),
(135,648,o),
(258,719,o),
(432,719,cs)
);
}
);
width = 563;
},
{
anchors = (
{
name = m.fi;
position = "{376, 707}";
},
{
name = b.uni0324_5;
position = "{357, 0}";
}
);
layerId = "C64F1ECC-30E2-4AB6-9CDD-B17FE72FA4E1";
shapes = (
{
closed = 1;
nodes = (
(467,707,o),
(527,688,o),
(574,655,c),
(545,569,l),
(535,567,l),
(496,604,o),
(447,628,o),
(383,628,cs),
(334,628,o),
(291,615,o),
(256,589,cs),
(185,537,o),
(147,437,o),
(147,294,cs),
(147,150,o),
(208,72,o),
(313,72,cs),
(374,72,o),
(439,97,o),
(494,138,c),
(503,132,l),
(484,43,l),
(421,8,o),
(366,-8,o),
(298,-8,cs),
(139,-8,o),
(49,97,o),
(49,280,cs),
(49,369,o),
(63,445,o),
(91,509,cs),
(146,636,o),
(251,707,o),
(395,707,cs)
);
}
);
width = 547;
},
{
anchors = (
{
name = m.fi;
position = "{373, 702}";
},
{
name = b.uni0324_5;
position = "{331, 0}";
}
);
layerId = "AC2035D7-313F-43E0-B352-008DE9991D96";
shapes = (
{
closed = 1;
nodes = (
(447,700,o),
(512,677,o),
(557,636,c),
(547,617,l),
(539,617,l),
(499,656,o),
(444,678,o),
(380,678,cs),
(317,678,o),
(263,662,o),
(219,630,cs),
(130,565,o),
(82,443,o),
(82,276,cs),
(82,111,o),
(153,16,o),
(285,16,cs),
(350,16,o),
(422,43,o),
(482,90,c),
(489,87,l),
(485,68,l),
(421,21,o),
(348,-5,o),
(284,-5,cs),
(139,-5,o),
(60,97,o),
(60,274,cs),
(60,362,o),
(73,438,o),
(99,502,cs),
(150,629,o),
(247,700,o),
(382,700,cs)
);
}
);
width = 543;
}
);
leftKerningGroup = C2;
rightKerningGroup = C;
unicode = 67;
},
{
glyphname = D;
layers = (
{
anchors = (
{
name = m.fi;
position = "{384, 707}";
},
{
name = b.uni049C_3;
position = "{357, 354}";
},
{
name = b.uni0324_5;
position = "{333, 0}";
}
);
layerId = "52170CEE-5BA0-420B-B358-B20FB7EDC86A";
shapes = (
{
closed = 1;
nodes = (
(430,711,ls),
(617,711,o),
(727,612,o),
(727,434,cs),
(727,342,o),
(712,263,o),
(680,197,cs),
(617,64,o),
(494,-10,o),
(311,-10,cs),
(276,-10,o),
(229,-10,o),
(178,-8,cs),
(127,-5,o),
(78,-3,o),
(35,0,c),
(244,166,l),
(261,163,o),
(283,159,o),
(305,157,cs),
(327,155,o),
(347,153,o),
(361,153,cs),
(389,153,o),
(412,161,o),
(432,177,cs),
(472,209,o),
(495,280,o),
(495,402,cs),
(495,503,o),
(466,541,o),
(401,541,cs),
(388,541,o),
(371,539,o),
(354,539,c),
(335,538,o),
(316,537,o),
(297,534,c),
(121,707,l)
);
},
{
closed = 1;
nodes = (
(344,707,l),
(254,0,l),
(35,0,l),
(121,707,l)
);
}
);
width = 729;
},
{
anchors = (
{
name = m.fi;
position = "{384, 707}";
},
{
name = b.uni049C_3;
position = "{357, 354}";
},
{
name = b.uni0324_5;
position = "{333, 0}";
}
);
layerId = "C64F1ECC-30E2-4AB6-9CDD-B17FE72FA4E1";
shapes = (
{
closed = 1;
nodes = (
(392,704,ls),
(561,704,o),
(658,606,o),
(658,431,cs),
(658,342,o),
(644,264,o),
(616,199,cs),
(559,67,o),
(451,-7,o),
(292,-7,cs),
(271,-7,o),
(230,-5,o),
(186,-4,cs),
(141,-3,o),
(95,-1,o),
(67,0,c),
(141,81,l),
(164,78,o),
(198,76,o),
(233,74,cs),
(268,72,o),
(297,71,o),
(310,71,cs),
(363,71,o),
(408,84,o),
(445,110,cs),
(520,162,o),
(560,263,o),
(560,414,cs),
(560,557,o),
(501,627,o),
(382,627,cs),
(369,627,o),
(338,626,o),
(305,625,cs),
(272,624,o),
(239,622,o),
(223,621,c),
(155,700,l)
);
},
{
closed = 1;
nodes = (
(248,700,l),
(162,0,l),
(66,0,l),
(154,700,l)
);
}
);
width = 679;
},
{
anchors = (
{
name = m.fi;
position = "{389, 702}";
},
{
name = b.uni049C_3;
position = "{353, 352}";
},
{
name = b.uni0324_5;
position = "{327, 0}";
}
);
layerId = "AC2035D7-313F-43E0-B352-008DE9991D96";
shapes = (
{
closed = 1;
nodes = (
(382,701,l),
(543,701,o),
(632,602,o),
(632,429,cs),
(632,341,o),
(618,265,o),
(591,200,cs),
(536,70,o),
(432,-5,o),
(284,-5,cs),
(271,-5,o),
(234,-4,o),
(193,-3,cs),
(152,-2,o),
(111,-1,o),
(87,0,c),
(102,22,l),
(119,21,o),
(158,21,o),
(198,19,cs),
(237,17,o),
(274,16,o),
(287,16,cs),
(356,16,o),
(414,33,o),
(462,67,cs),
(557,135,o),
(609,259,o),
(609,426,cs),
(609,587,o),
(529,679,o),
(380,679,cs),
(368,679,o),
(328,678,o),
(285,677,cs),
(241,676,o),
(201,674,o),
(186,674,c),
(175,696,l)
);
},
{
closed = 1;
nodes = (
(197,696,l),
(109,0,l),
(87,0,l),
(175,696,l)
);
}
);
width = 665;
}
);
leftKerningGroup = B2;
rightKerningGroup = D;
unicode = 68;
},
{
glyphname = E;
layers = (
{
anchors = (
{
name = m.fi;
position = "{368, 707}";
},
{
name = m.uni01EB_1;
position = "{500, 11}";
},
{
name = b.uni0324_5;
position = "{325, 0}";
},
{
name = t.uni1FDF.case_6;
position = "{76, 707}";
}
);
layerId = "52170CEE-5BA0-420B-B358-B20FB7EDC86A";
shapes = (
{
closed = 1;
nodes = (
(344,707,l),
(253,0,l),
(34,0,l),
(121,707,l)
);
},
{
closed = 1;
nodes = (
(555,168,l),
(565,152,l),
(532,0,l),
(180,0,l),
(181,12,l),
(201,168,l)
);
},
{
closed = 1;
nodes = (
(526,439,l),
(536,424,l),
(503,271,l),
(225,271,l),
(226,283,l),
(245,439,l)
);
},
{
closed = 1;
nodes = (
(628,707,l),
(638,691,l),
(604,538,l),
(247,538,l),
(248,550,l),
(268,707,l)
);
}
);
width = 591;
},
{
anchors = (
{
name = m.fi;
position = "{368, 707}";
},
{
name = m.uni01EB_1;
position = "{500, 11}";
},
{
name = b.uni0324_5;
position = "{325, 0}";
},
{
name = t.uni1FDF.case_6;
position = "{76, 707}";
}
);
layerId = "C64F1ECC-30E2-4AB6-9CDD-B17FE72FA4E1";
shapes = (
{
closed = 1;
nodes = (
(248,700,l),
(159,0,l),
(66,0,l),
(154,700,l)
);
},
{
closed = 1;
nodes = (
(459,79,l),
(462,70,l),
(447,0,l),
(129,0,l),
(127,8,l),
(139,79,l)
);
},
{
closed = 1;
nodes = (
(440,397,l),
(446,389,l),
(429,320,l),
(173,319,l),
(170,327,l),
(182,397,l)
);
},
{
closed = 1;
nodes = (
(536,700,l),
(541,691,l),
(524,620,l),
(207,620,l),
(205,628,l),
(217,700,l)
);
}
);
width = 510;
},
{
anchors = (
{
name = m.fi;
position = "{369, 702}";
},
{
name = m.uni01EB_1;
position = "{466, 11}";
},
{
name = b.uni0324_5;
position = "{301, 0}";
},
{
name = t.uni1FDF.case_6;
position = "{75, 702}";
}
);
layerId = "AC2035D7-313F-43E0-B352-008DE9991D96";
shapes = (
{
closed = 1;
nodes = (
(197,696,l),
(109,0,l),
(87,0,l),
(175,696,l)
);
},
{
closed = 1;
nodes = (
(411,22,l),
(414,17,l),
(407,0,l),
(103,0,l),
(98,4,l),
(105,22,l)
);
},
{
closed = 1;
nodes = (
(400,371,l),
(403,367,l),
(396,349,l),
(146,349,l),
(142,354,l),
(149,371,l)
);
},
{
closed = 1;
nodes = (
(492,696,l),
(495,691,l),
(488,674,l),
(187,674,l),
(183,678,l),
(190,696,l)
);
}
);
width = 472;
}
);
leftKerningGroup = B2;
rightKerningGroup = E;
unicode = 69;
},
{
glyphname = F;
layers = (
{
layerId = "52170CEE-5BA0-420B-B358-B20FB7EDC86A";
shapes = (
{
closed = 1;
nodes = (
(344,707,l),
(253,0,l),
(34,0,l),
(121,707,l)
);
},
{
closed = 1;
nodes = (
(501,412,l),
(511,397,l),
(478,244,l),
(222,244,l),
(241,412,l)
);
},
{
closed = 1;
nodes = (
(593,707,l),
(603,691,l),
(569,538,l),
(247,538,l),
(248,550,l),
(268,707,l)
);
}
);
width = 525;
},
{
layerId = "C64F1ECC-30E2-4AB6-9CDD-B17FE72FA4E1";
shapes = (
{
closed = 1;
nodes = (
(248,700,l),
(159,0,l),
(66,0,l),
(154,700,l)
);
},
{
closed = 1;
nodes = (
(424,382,l),
(429,374,l),
(412,306,l),
(171,306,l),
(180,383,l)
);
},
{
closed = 1;
nodes = (
(515,700,l),
(521,691,l),
(502,620,l),
(206,620,l),
(204,628,l),
(216,700,l)
);
}
);
width = 458;
},
{
layerId = "AC2035D7-313F-43E0-B352-008DE9991D96";
shapes = (
{
closed = 1;
nodes = (
(197,696,l),
(109,0,l),
(87,0,l),
(175,696,l)
);
},
{
closed = 1;
nodes = (
(389,360,l),
(391,356,l),
(384,339,l),
(145,339,l),
(149,360,l)
);
},
{
closed = 1;
nodes = (
(482,696,l),
(485,691,l),
(478,674,l),
(188,674,l),
(183,678,l),
(190,696,l)
);
}
);
width = 430;
}
);
leftKerningGroup = B2;
rightKerningGroup = F;
unicode = 70;
},
{
glyphname = G;
layers = (
{
anchors = (
{
name = bottom;
position = "{344, 0}";
},
{
name = top;
position = "{397, 684}";
}
);
layerId = "52170CEE-5BA0-420B-B358-B20FB7EDC86A";
shapes = (
{
closed = 1;
nodes = (
(177,718,o),
(25,564,o),
(25,281,cs),
(25,82,o),
(149,-13,o),
(334,-13,cs),
(416,-13,o),
(495,6,o),
(572,36,c),
(602,279,l),
(416,279,l),
(400,156,l),
(387,153,o),
(375,152,o),
(362,152,cs),
(271,152,o),
(247,193,o),
(247,283,cs),
(247,405,o),
(253,544,o),
(400,544,cs),
(465,544,o),
(513,523,o),
(569,492,c),
(586,492,l),
(655,685,l),
(595,709,o),
(514,718,o),
(450,718,cs)
);
},
{
closed = 1;
nodes = (
(316,279,l),
(602,279,l),
(618,424,l),
(333,424,l),
(306,296,l)
);
}
);
width = 632;
},
{
anchors = (
{
name = bottom;
position = "{336, 0}";
},
{
name = top;
position = "{383, 700}";
}
);
background = {
shapes = (
{
closed = 1;
nodes = (
(164,647,o),
(37,503,o),
(37,253,cs),
(37,88,o),
(121,-7,o),
(277,-7,cs),
(348,-7,o),
(401,4,o),
(486,31,c),
(505,176,l),
(516,267,l),
(436,261,l),
(426,164,l),
(415,80,l),
(360,65,o),
(330,60,o),
(287,60,cs),
(179,60,o),
(125,125,o),
(125,255,cs),
(125,476,o),
(217,577,o),
(369,577,cs),
(424,577,o),
(473,559,o),
(524,526,c),
(535,526,l),
(563,602,l),
(513,631,o),
(448,647,o),
(388,647,cs)
);
},
{
closed = 1;
nodes = (
(165,647,o),
(43,502,o),
(43,248,cs),
(43,88,o),
(127,-7,o),
(293,-7,cs),
(363,-7,o),
(418,5,o),
(491,31,c),
(505,172,l),
(517,259,l),
(437,253,l),
(427,160,l),
(415,89,l),
(360,71,o),
(331,66,o),
(299,66,cs),
(184,66,o),
(131,125,o),
(131,255,cs),
(131,466,o),
(212,575,o),
(367,575,cs),
(425,575,o),
(468,559,o),
(526,519,c),
(535,521,l),
(564,602,l),
(504,634,o),
(445,647,o),
(382,647,cs)
);
}
);
};
guides = (
{
position = "{0, 250}";
}
);
layerId = "C64F1ECC-30E2-4AB6-9CDD-B17FE72FA4E1";
shapes = (
{
closed = 1;
nodes = (
(152,707,o),
(47,513,o),
(47,271,cs),
(47,94,o),
(141,-8,o),
(320,-8,cs),
(399,-8,o),
(463,8,o),
(536,34,c),
(567,313,l),
(477,313,l),
(453,97,l),
(412,84,o),
(370,72,o),
(327,72,cs),
(190,72,o),
(143,150,o),
(143,278,cs),
(143,453,o),
(195,628,o),
(401,628,cs),
(470,628,o),
(519,605,o),
(574,567,c),
(584,569,l),
(616,657,l),
(554,690,o),
(487,707,o),
(417,707,cs)
);
},
{
closed = 1;
nodes = (
(287,313,l),
(567,313,l),
(576,388,l),
(298,388,l),
(281,321,l)
);
}
);
width = 628;
},
{
anchors = (
{
name = bottom;
position = "{310, 0}";
},
{
name = top;
position = "{310, 637}";
}
);
layerId = "143260AF-56FD-4D5B-A4EB-249987C9C96C";
name = "LightItalic.Light Jan 23 13, 11:05";
shapes = (
{
closed = 1;
nodes = (
(152,641,o),
(46,524,o),
(46,313,cs),
(46,109,o),
(139,-5,o),
(307,-5,c),
(375,-1,o),
(441,27,o),
(493,74,c),
(502,74,l),
(502,105,l),
(440,47,o),
(370,15,o),
(306,15,cs),
(152,15,o),
(66,121,o),
(66,312,cs),
(66,511,o),
(165,621,o),
(342,621,cs),
(396,621,o),
(458,601,o),
(517,566,c),
(524,566,l),
(530,584,l),
(467,621,o),
(400,641,o),
(342,641,cs)
);
},
{
closed = 1;
nodes = (
(497,299,l),
(497,196,l),
(497,14,l),
(502,8,o),
(507,4,o),
(513,0,c),
(517,3,l),
(517,196,l),
(517,303,l)
);
}
);
width = 620;
},
{
anchors = (
{
name = bottom;
position = "{303, 0}";
},
{
name = top;
position = "{303, 647}";
}
);
layerId = "F0F9AA54-ECDC-41EE-982E-57234FB6EA5B";
name = "LightItalic.Bold Jan 23 13, 11:08";
shapes = (
{
closed = 1;
nodes = (
(150,658,o),
(20,531,o),
(20,301,cs),
(20,100,o),
(130,-12,o),
(328,-12,c),
(363,-3,o),
(396,14,o),
(422,34,c),
(447,34,l),
(447,178,l),
(416,167,o),
(392,162,o),
(364,162,cs),
(271,162,o),
(233,207,o),
(233,316,cs),
(233,435,o),
(273,484,o),
(370,484,cs),
(417,484,o),
(459,473,o),
(513,448,c),
(536,448,l),
(579,628,l),
(527,647,o),
(457,658,o),
(383,658,cs)
);
},
{
closed = 1;
nodes = (
(383,325,l),
(387,190,l),
(387,79,l),
(428,35,o),
(484,2,o),
(542,-12,c),
(566,2,l),
(565,210,l),
(570,335,l)
);
}
);
width = 605;
},
{
anchors = (
{
name = bottom;
position = "{351, 0}";
},
{
name = top;
position = "{378, 700}";
}
);
guides = (
{
position = "{0, 250}";
}
);
layerId = "AC2035D7-313F-43E0-B352-008DE9991D96";
shapes = (
{
closed = 1;
nodes = (
(161,704,o),
(60,504,o),
(60,275,cs),
(60,122,o),
(122,-4,o),
(292,-4,cs),
(368,-4,o),
(438,11,o),
(511,33,c),
(550,351,l),
(529,351,l),
(491,49,l),
(425,30,o),
(361,16,o),
(292,16,cs),
(136,16,o),
(82,138,o),
(82,277,cs),
(82,490,o),
(174,682,o),
(412,682,cs),
(472,682,o),
(530,658,o),
(579,625,c),
(586,625,l),
(595,645,l),
(542,681,o),
(479,704,o),
(415,704,cs)
);
},
{
closed = 1;
nodes = (
(262,351,l),
(550,351,l),
(553,373,l),
(259,373,l),
(256,369,l)
);
}
);
width = 632;
}
);
leftKerningGroup = C2;
rightKerningGroup = G;
unicode = 71;
},
{
glyphname = H;
layers = (
{
anchors = (
{
name = m.fi;
position = "{443, 707}";
},
{
name = b.tailcy_2;
position = "{455, 0}";
},
{
name = b.uni049C_3;
position = "{408, 354}";
},
{
name = b.uni0324_5;
position = "{357, 0}";
},
{
name = t.uni1FDF.case_6;
position = "{76, 707}";
}
);
layerId = "52170CEE-5BA0-420B-B358-B20FB7EDC86A";
shapes = (
{
closed = 1;
nodes = (
(765,707,l),
(675,0,l),
(455,0,l),
(543,707,l)
);
},
{
closed = 1;
nodes = (
(344,707,l),
(253,0,l),
(34,0,l),
(121,707,l)
);
},
{
closed = 1;
nodes = (
(534,439,l),
(512,262,l),
(256,262,l),
(277,440,l)
);
}
);
width = 778;
},
{
anchors = (
{
name = m.fi;
position = "{443, 707}";
},
{
name = b.tailcy_2;
position = "{455, 0}";
},
{
name = b.uni049C_3;
position = "{408, 354}";
},
{
name = b.uni0324_5;
position = "{357, 0}";
},
{
name = t.uni1FDF.case_6;
position = "{76, 707}";
}
);
layerId = "C64F1ECC-30E2-4AB6-9CDD-B17FE72FA4E1";
shapes = (
{
closed = 1;
nodes = (
(677,700,l),
(589,0,l),
(496,0,l),
(582,700,l)
);
},
{
closed = 1;
nodes = (
(247,700,l),
(159,0,l),
(66,0,l),
(153,700,l)
);
},
{
closed = 1;
nodes = (
(559,394,l),
(548,313,l),
(182,313,l),
(192,394,l)
);
}
);
width = 716;
},
{
anchors = (
{
name = m.fi;
position = "{434, 702}";
},
{
name = b.tailcy_2;
position = "{489, 0}";
},
{
name = b.uni049C_3;
position = "{399, 352}";
},
{
name = b.uni0324_5;
position = "{348, 0}";
},
{
name = t.uni1FDF.case_6;
position = "{75, 702}";
}
);
layerId = "AC2035D7-313F-43E0-B352-008DE9991D96";
shapes = (
{
closed = 1;
nodes = (
(639,696,l),
(551,0,l),
(530,0,l),
(617,696,l)
);
},
{
closed = 1;
nodes = (
(197,696,l),
(109,0,l),
(87,0,l),
(175,696,l)
);
},
{
closed = 1;
nodes = (
(585,365,l),
(581,343,l),
(145,343,l),
(149,365,l)
);
}
);
width = 699;
}
);
leftKerningGroup = B2;
rightKerningGroup = H;
unicode = 72;
},
{
glyphname = I;
layers = (
{
anchors = (
{
name = m.fi;
position = "{230, 707}";
},
{
name = m.uni01EB_1;
position = "{253, 0}";
},
{
name = b.uni0324_5;
position = "{147, 0}";
},
{
name = t.uni1FDF.case_6;
position = "{76, 707}";
}
);
layerId = "52170CEE-5BA0-420B-B358-B20FB7EDC86A";
shapes = (
{
closed = 1;
nodes = (
(344,707,l),
(253,0,l),
(34,0,l),
(121,707,l)
);
}
);
width = 358;
},
{
anchors = (
{
name = m.fi;
position = "{230, 707}";
},
{
name = m.uni01EB_1;
position = "{253, 0}";
},
{
name = b.uni0324_5;
position = "{147, 0}";
},
{
name = t.uni1FDF.case_6;
position = "{76, 707}";
}
);
layerId = "C64F1ECC-30E2-4AB6-9CDD-B17FE72FA4E1";
shapes = (
{
closed = 1;
nodes = (
(247,700,l),
(159,0,l),
(66,0,l),
(153,700,l)
);
}
);
width = 287;
},
{
anchors = (
{
name = m.fi;
position = "{214, 702}";
},
{
name = m.uni01EB_1;
position = "{203, 0}";
},
{
name = b.uni0324_5;
position = "{132, 0}";
},
{
name = t.uni1FDF.case_6;
position = "{75, 702}";
}
);
layerId = "AC2035D7-313F-43E0-B352-008DE9991D96";
shapes = (
{
closed = 1;
nodes = (
(197,696,l),
(109,0,l),
(87,0,l),
(175,696,l)
);
}
);
width = 257;
}
);
leftKerningGroup = B2;
rightKerningGroup = H;
unicode = 73;
},
{
glyphname = J;
layers = (
{
anchors = (
{
name = m.fi;
position = "{351, 707}";
}
);
layerId = "52170CEE-5BA0-420B-B358-B20FB7EDC86A";
shapes = (
{
closed = 1;
nodes = (
(138,-12,l),
(310,-12,o),
(417,73,o),
(437,246,c),
(503,707,l),
(300,707,l),
(228,220,ls),
(220,168,o),
(198,148,o),
(162,148,cs),
(135,148,o),
(100,157,o),
(43,185,c),
(18,176,l),
(-31,22,l),
(-22,6,l)
);
}
);
width = 518;
},
{
anchors = (
{
name = m.fi;
position = "{349, 707}";
}
);
layerId = "C64F1ECC-30E2-4AB6-9CDD-B17FE72FA4E1";
shapes = (
{
closed = 1;
nodes = (
(126,-8,l),
(258,-8,o),
(319,70,o),
(340,202,c),
(406,700,l),
(317,700,l),
(254,189,ls),
(245,112,o),
(201,71,o),
(142,71,cs),
(109,71,o),
(77,79,o),
(42,95,c),
(29,93,l),
(6,17,l),
(9,10,l)
);
}
);
width = 452;
},
{
anchors = (
{
name = m.fi;
position = "{322, 702}";
}
);
layerId = "AC2035D7-313F-43E0-B352-008DE9991D96";
shapes = (
{
closed = 1;
nodes = (
(116,-4,l),
(219,-4,o),
(282,52,o),
(295,164,cs),
(362,696,l),
(341,696,l),
(273,164,l),
(258,68,o),
(207,18,o),
(123,18,cs),
(95,18,o),
(68,24,o),
(44,31,c),
(40,29,l),
(33,7,l),
(35,4,l)
);
}
);
width = 428;
}
);
leftKerningGroup = J;
rightKerningGroup = H;
unicode = 74;
},
{
glyphname = K;
layers = (
{
anchors = (
{
name = m.fi;
position = "{413, 707}";
},
{
name = b.uni0324_5;
position = "{343, 0}";
}
);
layerId = "52170CEE-5BA0-420B-B358-B20FB7EDC86A";
shapes = (
{
closed = 1;
nodes = (
(740,707,l),
(491,360,l),
(549,252,o),
(614,150,o),
(680,46,c),
(675,22,l),
(600,5,o),
(526,-5,o),
(452,-13,c),
(429,0,l),
(376,119,o),
(321,239,o),
(272,363,c),
(274,376,l),
(509,707,l)
);
},
{
closed = 1;
nodes = (
(344,707,l),
(253,0,l),
(34,0,l),
(121,707,l)
);
}
);
width = 689;
},
{
anchors = (
{
name = m.fi;
position = "{413, 707}";
},
{
name = b.uni0324_5;
position = "{343, 0}";
}
);
layerId = "C64F1ECC-30E2-4AB6-9CDD-B17FE72FA4E1";
shapes = (
{
closed = 1;
nodes = (
(616,700,l),
(311,369,l),
(383,250,o),
(466,131,o),
(550,20,c),
(547,9,l),
(516,0,o),
(487,-6,o),
(455,-10,c),
(447,-4,l),
(364,115,o),
(284,239,o),
(212,367,c),
(213,373,l),
(512,700,l)
);
},
{
closed = 1;
nodes = (
(247,700,l),
(158,0,l),
(64,0,l),
(153,700,l)
);
}
);
width = 575;
},
{
anchors = (
{
name = m.fi;
position = "{397, 702}";
},
{
name = b.uni0324_5;
position = "{330, 0}";
}
);
layerId = "AC2035D7-313F-43E0-B352-008DE9991D96";
shapes = (
{
closed = 1;
nodes = (
(561,696,l),
(216,370,l),
(297,245,o),
(392,118,o),
(487,5,c),
(487,1,l),
(483,-3,o),
(477,-4,o),
(472,-8,c),
(467,-7,l),
(370,112,o),
(271,241,o),
(186,370,c),
(186,373,l),
(526,696,l)
);
},
{
closed = 1;
nodes = (
(198,696,l),
(109,0,l),
(87,0,l),
(176,696,l)
);
}
);
width = 527;
}
);
leftKerningGroup = B2;
rightKerningGroup = K;
unicode = 75;
},
{
glyphname = L;
layers = (
{
anchors = (
{
name = m.fi;
position = "{219, 707}";
},
{
name = b.uni049C_3;
position = "{259, 354}";
},
{
name = m.uni031B_4;
position = "{486, 358}";
},
{
name = b.uni0324_5;
position = "{230, 0}";
}
);
layerId = "52170CEE-5BA0-420B-B358-B20FB7EDC86A";
shapes = (
{
closed = 1;
nodes = (
(337,707,l),
(248,0,l),
(28,0,l),
(115,707,l)
);
},
{
closed = 1;
nodes = (
(472,179,l),
(482,164,l),
(449,0,l),
(164,0,l),
(165,12,l),
(186,179,l)
);
}
);
width = 494;
},
{
anchors = (
{
name = m.fi;
position = "{219, 707}";
},
{
name = b.uni049C_3;
position = "{259, 354}";
},
{
name = m.uni031B_4;
position = "{486, 358}";
},
{
name = b.uni0324_5;
position = "{230, 0}";
}
);
layerId = "C64F1ECC-30E2-4AB6-9CDD-B17FE72FA4E1";
shapes = (
{
closed = 1;
nodes = (
(248,700,l),
(159,0,l),
(66,0,l),
(154,700,l)
);
},
{
closed = 1;
nodes = (
(412,79,l),
(416,70,l),
(400,0,l),
(123,0,l),
(121,8,l),
(134,79,l)
);
}
);
width = 441;
},
{
anchors = (
{
name = m.fi;
position = "{205, 702}";
},
{
name = b.uni049C_3;
position = "{246, 352}";
},
{
name = m.uni031B_4;
position = "{458, 395}";
},
{
name = b.uni0324_5;
position = "{227, 0}";
}
);
layerId = "AC2035D7-313F-43E0-B352-008DE9991D96";
shapes = (
{
closed = 1;
nodes = (
(198,696,l),
(110,0,l),
(88,0,l),
(176,696,l)
);
},
{
closed = 1;
nodes = (
(380,22,l),
(383,17,l),
(377,0,l),
(100,0,l),
(97,4,l),
(103,22,l)
);
}
);
width = 417;
}
);
leftKerningGroup = B2;
rightKerningGroup = L;
unicode = 76;
},
{
glyphname = M;
layers = (
{
anchors = (
{
name = m.fi;
position = "{496, 707}";
},
{
name = b.uni0324_5;
position = "{410, 0}";
}
);
layerId = "52170CEE-5BA0-420B-B358-B20FB7EDC86A";
shapes = (
{
closed = 1;
nodes = (
(845,707,l),
(816,0,l),
(622,0,l),
(654,392,l),
(641,392,l),
(486,67,l),
(321,67,l),
(266,392,l),
(253,392,l),
(180,0,l),
(-3,0,l),
(152,707,l),
(405,707,l),
(444,349,l),
(458,349,l),
(596,707,l)
);
}
);
width = 881;
},
{
anchors = (
{
name = m.fi;
position = "{496, 707}";
},
{
name = b.uni0324_5;
position = "{410, 0}";
}
);
layerId = "C64F1ECC-30E2-4AB6-9CDD-B17FE72FA4E1";
shapes = (
{
closed = 1;
nodes = (
(756,700,l),
(731,0,l),
(648,0,l),
(669,555,l),
(662,555,l),
(424,80,l),
(347,80,l),
(237,555,l),
(228,555,l),
(109,0,l),
(31,0,l),
(188,700,l),
(294,700,l),
(402,201,l),
(410,201,l),
(650,700,l)
);
}
);
width = 824;
},
{
anchors = (
{
name = m.fi;
position = "{487, 702}";
},
{
name = b.uni0324_5;
position = "{402, 0}";
}
);
layerId = "AC2035D7-313F-43E0-B352-008DE9991D96";
shapes = (
{
closed = 1;
nodes = (
(717,696,l),
(699,0,l),
(676,0,l),
(691,643,l),
(687,643,l),
(397,88,l),
(370,88,l),
(225,643,l),
(221,643,l),
(74,0,l),
(51,0,l),
(211,696,l),
(236,696,l),
(384,120,l),
(389,120,l),
(691,696,l)
);
}
);
width = 810;
}
);
leftKerningGroup = M2;
rightKerningGroup = M;
unicode = 77;
},
{
glyphname = N;
layers = (
{
anchors = (
{
name = m.fi;
position = "{443, 707}";
},
{
name = b.uni0324_5;
position = "{357, 0}";
}
);
layerId = "52170CEE-5BA0-420B-B358-B20FB7EDC86A";
shapes = (
{
closed = 1;
nodes = (
(767,711,l),
(676,0,l),
(438,0,l),
(286,378,l),
(273,378,l),
(234,0,l),
(35,0,l),
(121,707,l),
(359,707,l),
(512,329,l),
(525,329,l),
(565,699,l)
);
}
);
width = 776;
},
{
anchors = (
{
name = m.fi;
position = "{443, 707}";
},
{
name = b.uni0324_5;
position = "{357, 0}";
}
);
layerId = "C64F1ECC-30E2-4AB6-9CDD-B17FE72FA4E1";
shapes = (
{
closed = 1;
nodes = (
(678,702,l),
(587,0,l),
(489,0,l),
(226,553,l),
(218,553,l),
(153,0,l),
(66,0,l),
(155,700,l),
(252,700,l),
(515,147,l),
(523,147,l),
(590,696,l)
);
}
);
width = 716;
},
{
anchors = (
{
name = m.fi;
position = "{434, 702}";
},
{
name = b.uni0324_5;
position = "{348, 0}";
}
);
layerId = "AC2035D7-313F-43E0-B352-008DE9991D96";
shapes = (
{
closed = 1;
nodes = (
(639,697,l),
(549,0,l),
(529,0,l),
(197,650,l),
(192,650,l),
(109,0,l),
(87,0,l),
(176,696,l),
(197,696,l),
(529,46,l),
(533,46,l),
(617,695,l)
);
}
);
width = 699;
}
);
leftKerningGroup = B2;
rightKerningGroup = H;
unicode = 78;
},
{
glyphname = O;
layers = (
{
anchors = (
{
name = m.fi;
position = "{414, 707}";
},
{
name = m.uni01EB_1;
position = "{467, 11}";
},
{
name = b.uni049C_3;
position = "{371, 354}";
},
{
name = m.uni031B_4;
position = "{751, 707}";
},
{
name = b.uni0324_5;
position = "{328, 0}";
},
{
name = t.uni1FDF.case_6;
position = "{76, 707}";
}
);
layerId = "52170CEE-5BA0-420B-B358-B20FB7EDC86A";
shapes = (
{
closed = 1;
nodes = (
(602,720,o),
(715,624,o),
(715,408,cs),
(715,328,o),
(700,256,o),
(670,192,cs),
(610,66,o),
(494,-13,o),
(327,-13,cs),
(234,-13,o),
(161,12,o),
(107,63,cs),
(54,115,o),
(26,193,o),
(26,301,cs),
(26,382,o),
(41,454,o),
(71,518,cs),
(131,643,o),
(248,720,o),
(415,720,cs)
);
},
{
closed = 1;
nodes = (
(352,545,o),
(319,535,o),
(295,500,cs),
(271,465,o),
(256,403,o),
(256,298,cs),
(256,242,o),
(262,204,o),
(274,182,cs),
(286,159,o),
(311,149,o),
(349,149,cs),
(388,149,o),
(422,158,o),
(446,193,cs),
(470,228,o),
(484,290,o),
(484,395,cs),
(484,451,o),
(478,490,o),
(466,512,cs),
(454,534,o),
(428,545,o),
(390,545,cs)
);
}
);
width = 719;
},
{
anchors = (
{
name = m.fi;
position = "{414, 707}";
},
{
name = m.uni01EB_1;
position = "{467, 11}";
},
{
name = b.uni049C_3;
position = "{371, 354}";
},
{
name = m.uni031B_4;
position = "{751, 707}";
},
{
name = b.uni0324_5;
position = "{328, 0}";
},
{
name = t.uni1FDF.case_6;
position = "{76, 707}";
}
);
layerId = "C64F1ECC-30E2-4AB6-9CDD-B17FE72FA4E1";
shapes = (
{
closed = 1;
nodes = (
(554,708,o),
(649,604,o),
(649,427,cs),
(649,338,o),
(636,260,o),
(609,195,cs),
(556,64,o),
(451,-9,o),
(302,-9,cs),
(223,-9,o),
(161,16,o),
(116,67,cs),
(71,118,o),
(49,188,o),
(49,278,cs),
(49,368,o),
(62,445,o),
(89,509,cs),
(142,637,o),
(246,708,o),
(394,708,cs)
);
},
{
closed = 1;
nodes = (
(302,630,o),
(242,600,o),
(203,541,cs),
(164,482,o),
(145,397,o),
(145,285,cs),
(145,212,o),
(159,158,o),
(187,123,c),
(214,87,o),
(256,69,o),
(311,69,cs),
(392,69,o),
(452,99,o),
(492,158,cs),
(531,217,o),
(550,304,o),
(550,416,cs),
(550,488,o),
(536,542,o),
(509,577,cs),
(481,612,o),
(439,630,o),
(383,630,cs)
);
}
);
width = 669;
},
{
anchors = (
{
name = m.fi;
position = "{405, 702}";
},
{
name = m.uni01EB_1;
position = "{439, 11}";
},
{
name = b.uni049C_3;
position = "{364, 352}";
},
{
name = m.uni031B_4;
position = "{735, 702}";
},
{
name = b.uni0324_5;
position = "{320, 0}";
},
{
name = t.uni1FDF.case_6;
position = "{75, 702}";
}
);
layerId = "AC2035D7-313F-43E0-B352-008DE9991D96";
shapes = (
{
closed = 1;
nodes = (
(539,701,o),
(620,602,o),
(620,427,cs),
(620,338,o),
(607,262,o),
(582,197,cs),
(531,67,o),
(431,-5,o),
(292,-5,cs),
(217,-5,o),
(159,20,o),
(120,69,cs),
(81,118,o),
(61,187,o),
(61,276,cs),
(61,364,o),
(74,440,o),
(100,503,cs),
(151,630,o),
(249,701,o),
(388,701,cs)
);
},
{
closed = 1;
nodes = (
(290,679,o),
(216,642,o),
(164,573,cs),
(111,504,o),
(84,403,o),
(84,280,cs),
(84,196,o),
(102,131,o),
(138,85,cs),
(173,39,o),
(225,16,o),
(293,16,cs),
(389,16,o),
(465,55,o),
(518,126,cs),
(570,197,o),
(597,299,o),
(597,423,cs),
(597,505,o),
(579,568,o),
(544,613,cs),
(508,657,o),
(456,679,o),
(387,679,cs)
);
}
);
width = 654;
}
);
leftKerningGroup = C2;
rightKerningGroup = D;
unicode = 79;
},
{
glyphname = P;
layers = (
{
layerId = "52170CEE-5BA0-420B-B358-B20FB7EDC86A";
shapes = (
{
closed = 1;
nodes = (
(446,708,ls),
(590,708,o),
(678,638,o),
(678,514,cs),
(678,452,o),
(664,397,o),
(636,351,cs),
(579,256,o),
(474,200,o),
(335,200,cs),
(137,200,l),
(157,365,l),
(373,353,l),
(400,367,o),
(418,383,o),
(429,404,cs),
(440,424,o),
(446,449,o),
(446,478,cs),
(446,530,o),
(418,553,o),
(360,556,c),
(230,546,l),
(121,707,l)
);
},
{
closed = 1;
nodes = (
(344,707,l),
(254,0,l),
(35,0,l),
(121,707,l)
);
}
);
width = 649;
},
{
layerId = "C64F1ECC-30E2-4AB6-9CDD-B17FE72FA4E1";
shapes = (
{
closed = 1;
nodes = (
(356,701,ls),
(472,701,o),
(548,643,o),
(548,518,cs),
(548,466,o),
(537,419,o),
(514,378,cs),
(468,295,o),
(383,244,o),
(264,244,cs),
(131,244,l),
(141,322,l),
(314,319,l),
(355,325,o),
(389,345,o),
(414,379,cs),
(439,412,o),
(452,454,o),
(452,505,cs),
(452,580,o),
(421,620,o),
(333,625,c),
(194,620,l),
(155,700,l)
);
},
{
closed = 1;
nodes = (
(248,700,l),
(159,0,l),
(66,0,l),
(154,700,l)
);
}
);
width = 550;
},
{
layerId = "AC2035D7-313F-43E0-B352-008DE9991D96";
shapes = (
{
closed = 1;
nodes = (
(320,698,ls),
(427,698,o),
(485,638,o),
(485,534,cs),
(485,479,o),
(475,433,o),
(456,394,cs),
(417,316,o),
(341,272,o),
(234,272,cs),
(132,272,l),
(135,294,l),
(269,294,l),
(330,299,o),
(377,324,o),
(412,367,cs),
(446,410,o),
(463,464,o),
(463,530,cs),
(463,619,o),
(416,672,o),
(325,676,c),
(180,675,l),
(175,696,l)
);
},
{
closed = 1;
nodes = (
(197,696,l),
(109,0,l),
(87,0,l),
(175,696,l)
);
}
);
width = 507;
}
);
leftKerningGroup = B2;
rightKerningGroup = P;
unicode = 80;
},
{
glyphname = Q;
layers = (
{
layerId = "52170CEE-5BA0-420B-B358-B20FB7EDC86A";
shapes = (
{
closed = 1;
nodes = (
(159,696,o),
(25,526,o),
(25,291,cs),
(25,82,o),
(136,-13,o),
(316,-13,cs),
(559,-13,o),
(691,160,o),
(691,394,cs),
(691,603,o),
(581,696,o),
(401,696,cs)
);
},
{
closed = 1;
nodes = (
(294,10,l),
(370,-67,o),
(459,-136,o),
(549,-203,c),
(565,-195,l),
(612,-158,o),
(650,-113,o),
(682,-61,c),
(677,-43,l),
(597,-8,o),
(523,34,o),
(447,78,c)
);
},
{
closed = 1;
nodes = (
(451,527,o),
(468,490,o),
(468,382,cs),
(468,180,o),
(412,144,o),
(337,144,cs),
(263,144,o),
(248,181,o),
(248,288,cs),
(248,491,o),
(303,527,o),
(377,527,cs)
);
}
);
width = 699;
},
{
background = {
shapes = (
{
closed = 1;
nodes = (
(141,648,o),
(37,529,o),
(37,315,cs),
(37,109,o),
(134,-8,o),
(312,-8,cs),
(495,-8,o),
(600,117,o),
(600,330,cs),
(600,536,o),
(502,648,o),
(327,648,c)
);
},
{
closed = 1;
nodes = (
(323,3,l),
(396,-73,o),
(485,-133,o),
(597,-188,c),
(605,-185,l),
(620,-170,o),
(633,-150,o),
(645,-125,c),
(642,-115,l),
(532,-75,o),
(450,-28,o),
(384,32,c)
);
},
{
closed = 1;
nodes = (
(447,577,o),
(511,495,o),
(511,323,cs),
(511,147,o),
(444,63,o),
(317,63,cs),
(189,63,o),
(125,148,o),
(125,322,cs),
(125,495,o),
(188,577,o),
(318,577,cs)
);
}
);
};
layerId = "C64F1ECC-30E2-4AB6-9CDD-B17FE72FA4E1";
shapes = (
{
closed = 1;
nodes = (
(171,708,o),
(49,546,o),
(49,278,cs),
(49,97,o),
(144,-9,o),
(302,-9,cs),
(525,-9,o),
(649,158,o),
(649,427,cs),
(649,605,o),
(555,708,o),
(394,708,cs)
);
},
{
closed = 1;
nodes = (
(309,3,l),
(376,-80,o),
(460,-145,o),
(568,-205,c),
(575,-202,l),
(594,-186,o),
(612,-164,o),
(628,-137,c),
(626,-126,l),
(519,-82,o),
(439,-31,o),
(379,35,c)
);
},
{
closed = 1;
nodes = (
(495,630,o),
(550,560,o),
(550,416,cs),
(550,191,o),
(473,69,o),
(311,69,cs),
(200,69,o),
(145,140,o),
(145,285,cs),
(145,508,o),
(219,630,o),
(383,630,cs)
);
}
);
width = 668;
},
{
anchors = (
{
name = bottom;
position = "{267, 0}";
},
{
name = center;
position = "{306, 319}";
},
{
name = ogonek;
position = "{352, 10}";
},
{
name = top;
position = "{345, 637}";
},
{
name = topleft;
position = "{65, 637}";
},
{
name = topright;
position = "{624, 637}";
}
);
layerId = "03F4572A-0377-40FA-A195-B079FA373965";
name = "LightItalic.Bold Jan 28 13, 16:22";
shapes = (
{
closed = 1;
nodes = (
(310,18,l),
(388,-95,o),
(482,-162,o),
(632,-214,c),
(718,-79,l),
(707,-61,l),
(615,-30,o),
(550,12,o),
(484,74,c)
);
},
{
closed = 1;
nodes = (
(160,642,o),
(51,495,o),
(51,253,cs),
(51,89,o),
(125,-5,o),
(262,-5,cs),
(454,-5,o),
(563,147,o),
(563,391,cs),
(563,551,o),
(489,642,o),
(350,642,c)
);
},
{
closed = 1;
nodes = (
(476,622,o),
(542,537,o),
(542,387,cs),
(542,159,o),
(440,15,o),
(263,15,cs),
(139,15,o),
(72,103,o),
(72,256,cs),
(72,483,o),
(174,622,o),
(349,622,cs)
);
}
);
width = 659;
},
{
layerId = "AC2035D7-313F-43E0-B352-008DE9991D96";
shapes = (
{
closed = 1;
nodes = (
(181,705,o),
(61,544,o),
(61,278,cs),
(61,98,o),
(143,-5,o),
(294,-5,cs),
(504,-5,o),
(624,162,o),
(624,429,cs),
(624,605,o),
(542,705,o),
(390,705,cs)
);
},
{
closed = 1;
nodes = (
(318,-1,l),
(372,-91,o),
(454,-154,o),
(580,-203,c),
(585,-203,l),
(585,-203,o),
(588,-199,o),
(593,-191,c),
(594,-184,l),
(468,-135,o),
(387,-74,o),
(337,9,c)
);
},
{
closed = 1;
nodes = (
(528,683,o),
(600,589,o),
(600,425,cs),
(600,175,o),
(489,16,o),
(295,16,cs),
(158,16,o),
(84,113,o),
(84,282,cs),
(84,530,o),
(196,683,o),
(389,683,cs)
);
}
);
width = 652;
}
);
leftKerningGroup = C2;
rightKerningGroup = D;
unicode = 81;
},
{
glyphname = R;
layers = (
{
anchors = (
{
name = m.fi;
position = "{400, 707}";
},
{
name = b.uni0324_5;
position = "{313, 0}";
}
);
layerId = "52170CEE-5BA0-420B-B358-B20FB7EDC86A";
shapes = (
{
closed = 1;
nodes = (
(446,708,ls),
(590,708,o),
(680,640,o),
(680,519,cs),
(680,470,o),
(668,424,o),
(643,382,cs),
(594,298,o),
(500,236,o),
(378,211,c),
(138,211,l),
(158,378,l),
(373,366,l),
(427,389,o),
(446,426,o),
(446,483,cs),
(446,531,o),
(420,553,o),
(360,556,c),
(230,546,l),
(121,707,l)
);
},
{
closed = 1;
nodes = (
(344,707,l),
(253,0,l),
(34,0,l),
(121,707,l)
);
},
{
closed = 1;
nodes = (
(513,318,l),
(560,229,o),
(609,139,o),
(663,51,c),
(657,27,l),
(583,5,o),
(508,-9,o),
(432,-13,c),
(414,4,l),
(379,105,o),
(343,210,o),
(316,316,c)
);
}
);
width = 689;
},
{
anchors = (
{
name = m.fi;
position = "{400, 707}";
},
{
name = b.uni0324_5;
position = "{313, 0}";
}
);
layerId = "C64F1ECC-30E2-4AB6-9CDD-B17FE72FA4E1";
shapes = (
{
closed = 1;
nodes = (
(359,701,ls),
(478,701,o),
(549,641,o),
(549,530,cs),
(549,485,o),
(539,445,o),
(520,408,cs),
(481,335,o),
(411,281,o),
(314,258,c),
(133,258,l),
(143,337,l),
(319,333,l),
(406,360,o),
(452,421,o),
(452,514,cs),
(452,587,o),
(410,621,o),
(333,625,c),
(194,620,l),
(155,700,l)
);
},
{
closed = 1;
nodes = (
(248,700,l),
(159,0,l),
(66,0,l),
(154,700,l)
);
},
{
closed = 1;
nodes = (
(372,308,l),
(416,211,o),
(468,117,o),
(523,22,c),
(521,11,l),
(492,0,o),
(463,-7,o),
(431,-10,c),
(422,-2,l),
(371,98,o),
(324,202,o),
(285,307,c)
);
}
);
width = 585;
},
{
anchors = (
{
name = m.fi;
position = "{376, 702}";
},
{
name = b.uni0324_5;
position = "{290, 0}";
}
);
layerId = "AC2035D7-313F-43E0-B352-008DE9991D96";
shapes = (
{
closed = 1;
nodes = (
(320,698,ls),
(428,698,o),
(486,640,o),
(486,536,cs),
(486,495,o),
(479,457,o),
(464,424,cs),
(434,356,o),
(377,310,o),
(294,287,c),
(134,287,l),
(138,309,l),
(295,309,l),
(403,338,o),
(464,420,o),
(464,533,cs),
(464,620,o),
(416,672,o),
(325,676,c),
(180,675,l),
(175,696,l)
);
},
{
closed = 1;
nodes = (
(197,696,l),
(109,0,l),
(87,0,l),
(175,696,l)
);
},
{
closed = 1;
nodes = (
(300,302,l),
(345,201,o),
(398,104,o),
(455,5,c),
(454,1,l),
(450,-3,o),
(448,-4,o),
(440,-8,c),
(435,-5,l),
(375,95,o),
(322,198,o),
(275,302,c)
);
}
);
width = 539;
}
);
leftKerningGroup = B2;
rightKerningGroup = R;
unicode = 82;
},
{
glyphname = S;
layers = (
{
anchors = (
{
name = m.fi;
position = "{348, 707}";
},
{
name = b.uni0324_5;
position = "{258, 0}";
}
);
layerId = "52170CEE-5BA0-420B-B358-B20FB7EDC86A";
shapes = (
{
closed = 1;
nodes = (
(441,720,o),
(514,711,o),
(585,681,c),
(531,503,l),
(499,490,l),
(441,529,o),
(379,551,o),
(343,551,cs),
(331,551,o),
(321,550,o),
(312,547,cs),
(295,541,o),
(285,527,o),
(285,513,cs),
(285,500,o),
(292,489,o),
(305,479,cs),
(330,460,o),
(373,442,o),
(418,420,cs),
(441,408,o),
(462,395,o),
(483,380,c),
(523,349,o),
(551,307,o),
(551,242,cs),
(551,197,o),
(538,154,o),
(511,116,c),
(458,37,o),
(357,-13,o),
(227,-13,cs),
(153,-13,o),
(74,1,o),
(-3,28,c),
(49,218,l),
(72,232,l),
(105,204,o),
(140,185,o),
(177,170,cs),
(214,156,o),
(245,149,o),
(268,149,cs),
(284,149,o),
(296,151,o),
(305,154,c),
(321,162,o),
(328,175,o),
(328,187,cs),
(328,201,o),
(321,213,o),
(309,223,cs),
(283,244,o),
(240,260,o),
(197,282,cs),
(174,293,o),
(153,306,o),
(133,321,cs),
(93,352,o),
(64,394,o),
(64,459,cs),
(64,508,o),
(79,551,o),
(106,591,c),
(162,669,o),
(261,720,o),
(383,720,cs)
);
}
);
width = 578;
},
{
anchors = (
{
name = m.fi;
position = "{348, 707}";
},
{
name = b.uni0324_5;
position = "{258, 0}";
}
);
layerId = "C64F1ECC-30E2-4AB6-9CDD-B17FE72FA4E1";
shapes = (
{
closed = 1;
nodes = (
(370,707,o),
(429,697,o),
(488,673,c),
(462,584,l),
(446,579,l),
(409,612,o),
(365,630,o),
(316,630,cs),
(289,630,o),
(265,625,o),
(246,615,cs),
(206,595,o),
(185,559,o),
(185,522,cs),
(185,501,o),
(191,482,o),
(204,467,c),
(229,435,o),
(272,411,o),
(318,384,cs),
(341,370,o),
(362,355,o),
(382,338,cs),
(422,304,o),
(450,262,o),
(450,199,cs),
(450,160,o),
(440,125,o),
(419,94,cs),
(377,31,o),
(301,-8,o),
(206,-8,cs),
(147,-8,o),
(74,8,o),
(19,40,c),
(43,137,l),
(55,142,l),
(78,116,o),
(104,97,o),
(133,86,cs),
(162,74,o),
(189,68,o),
(216,68,cs),
(244,68,o),
(268,73,o),
(289,83,cs),
(330,103,o),
(355,141,o),
(355,181,cs),
(355,203,o),
(349,222,o),
(336,238,cs),
(311,270,o),
(269,295,o),
(224,322,cs),
(201,335,o),
(180,350,o),
(161,367,c),
(121,399,o),
(93,443,o),
(93,506,cs),
(93,543,o),
(103,577,o),
(124,608,cs),
(164,668,o),
(238,707,o),
(329,707,cs)
);
}
);
width = 498;
},
{
anchors = (
{
name = m.fi;
position = "{328, 702}";
},
{
name = b.uni0324_5;
position = "{239, 0}";
}
);
layerId = "AC2035D7-313F-43E0-B352-008DE9991D96";
shapes = (
{
closed = 1;
nodes = (
(345,699,o),
(391,692,o),
(435,667,c),
(428,648,l),
(420,646,l),
(384,669,o),
(342,677,o),
(307,677,cs),
(270,677,o),
(238,669,o),
(211,654,cs),
(156,623,o),
(126,572,o),
(126,521,cs),
(126,494,o),
(133,471,o),
(146,453,cs),
(172,416,o),
(216,388,o),
(262,362,cs),
(285,349,o),
(306,334,o),
(327,318,cs),
(368,286,o),
(397,245,o),
(397,182,cs),
(397,148,o),
(388,117,o),
(369,89,cs),
(331,32,o),
(262,-4,o),
(181,-4,cs),
(129,-4,o),
(71,14,o),
(31,47,c),
(34,68,l),
(40,70,l),
(60,52,o),
(83,39,o),
(109,30,cs),
(134,21,o),
(159,17,o),
(183,17,cs),
(221,17,o),
(255,25,o),
(284,40,cs),
(342,71,o),
(376,125,o),
(376,180,cs),
(376,209,o),
(369,233,o),
(356,253,cs),
(329,292,o),
(286,318,o),
(240,346,cs),
(217,359,o),
(195,374,o),
(174,390,cs),
(133,421,o),
(104,461,o),
(104,522,cs),
(104,555,o),
(113,585,o),
(131,612,cs),
(167,665,o),
(233,699,o),
(310,699,cs)
);
}
);
width = 462;
}
);
leftKerningGroup = S2;
rightKerningGroup = S;
unicode = 83;
},
{
glyphname = T;
layers = (
{
anchors = (
{
name = m.fi;
position = "{337, 707}";
},
{
name = b.uni049C_3;
position = "{302, 354}";
},
{
name = b.uni0324_5;
position = "{251, 0}";
}
);
layerId = "52170CEE-5BA0-420B-B358-B20FB7EDC86A";
shapes = (
{
closed = 1;
nodes = (
(446,685,l),
(361,0,l),
(143,0,l),
(230,685,l)
);
},
{
closed = 1;
nodes = (
(603,707,l),
(613,691,l),
(581,538,l),
(55,538,l),
(44,553,l),
(75,707,l)
);
}
);
width = 566;
},
{
anchors = (
{
name = m.fi;
position = "{337, 707}";
},
{
name = b.uni049C_3;
position = "{302, 354}";
},
{
name = b.uni0324_5;
position = "{251, 0}";
}
);
layerId = "C64F1ECC-30E2-4AB6-9CDD-B17FE72FA4E1";
shapes = (
{
closed = 1;
nodes = (
(360,689,l),
(274,0,l),
(180,0,l),
(265,689,l)
);
},
{
closed = 1;
nodes = (
(543,700,l),
(547,691,l),
(531,626,l),
(75,626,l),
(70,635,l),
(87,700,l)
);
}
);
width = 513;
},
{
anchors = (
{
name = m.fi;
position = "{325, 702}";
},
{
name = b.uni049C_3;
position = "{290, 352}";
},
{
name = b.uni0324_5;
position = "{240, 0}";
}
);
layerId = "AC2035D7-313F-43E0-B352-008DE9991D96";
shapes = (
{
closed = 1;
nodes = (
(312,685,l),
(226,0,l),
(204,0,l),
(290,685,l)
);
},
{
closed = 1;
nodes = (
(514,696,l),
(518,691,l),
(511,674,l),
(87,674,l),
(84,678,l),
(91,696,l)
);
}
);
width = 491;
}
);
leftKerningGroup = T2;
rightKerningGroup = T;
unicode = 84;
},
{
glyphname = U;
layers = (
{
anchors = (
{
name = m.fi;
position = "{412, 707}";
},
{
name = m.uni01EB_1;
position = "{468, 11}";
},
{
name = m.uni031B_4;
position = "{747, 707}";
},
{
name = b.uni0324_5;
position = "{325, 0}";
}
);
layerId = "52170CEE-5BA0-420B-B358-B20FB7EDC86A";
shapes = (
{
closed = 1;
nodes = (
(709,707,l),
(653,236,ls),
(634,75,o),
(522,-13,o),
(324,-13,cs),
(153,-13,o),
(49,58,o),
(49,189,cs),
(49,203,o),
(51,219,o),
(52,236,c),
(106,707,l),
(315,707,l),
(262,265,ls),
(261,256,o),
(260,245,o),
(260,236,cs),
(260,182,o),
(285,159,o),
(343,159,cs),
(412,159,o),
(444,191,o),
(452,265,cs),
(496,707,l)
);
}
);
width = 714;
},
{
anchors = (
{
name = m.fi;
position = "{412, 707}";
},
{
name = m.uni01EB_1;
position = "{468, 11}";
},
{
name = m.uni031B_4;
position = "{747, 707}";
},
{
name = b.uni0324_5;
position = "{325, 0}";
}
);
layerId = "C64F1ECC-30E2-4AB6-9CDD-B17FE72FA4E1";
shapes = (
{
closed = 1;
nodes = (
(632,700,l),
(579,266,l),
(560,94,o),
(465,-8,o),
(298,-8,cs),
(159,-8,o),
(73,65,o),
(73,198,cs),
(73,217,o),
(74,236,o),
(78,257,c),
(132,700,l),
(220,700,l),
(166,269,l),
(165,252,o),
(163,236,o),
(163,219,cs),
(163,122,o),
(212,74,o),
(305,74,cs),
(414,74,o),
(479,134,o),
(492,257,cs),
(543,700,l)
);
}
);
width = 655;
},
{
anchors = (
{
name = m.fi;
position = "{401, 702}";
},
{
name = m.uni01EB_1;
position = "{443, 11}";
},
{
name = m.uni031B_4;
position = "{727, 702}";
},
{
name = b.uni0324_5;
position = "{317, 0}";
}
);
layerId = "AC2035D7-313F-43E0-B352-008DE9991D96";
shapes = (
{
closed = 1;
nodes = (
(602,696,l),
(546,250,l),
(530,90,o),
(438,-4,o),
(290,-4,cs),
(162,-4,o),
(88,65,o),
(88,192,cs),
(88,209,o),
(90,231,o),
(93,250,cs),
(151,696,l),
(173,696,l),
(115,250,l),
(114,231,o),
(110,214,o),
(110,197,cs),
(110,81,o),
(174,17,o),
(289,17,cs),
(422,17,o),
(505,101,o),
(524,250,cs),
(580,696,l)
);
}
);
width = 637;
}
);
leftKerningGroup = U2;
rightKerningGroup = U;
unicode = 85;
},
{
glyphname = V;
layers = (
{
layerId = "52170CEE-5BA0-420B-B358-B20FB7EDC86A";
shapes = (
{
closed = 1;
nodes = (
(732,707,l),
(431,0,l),
(167,0,l),
(60,707,l),
(282,707,l),
(321,195,l),
(334,195,l),
(518,707,l)
);
}
);
width = 673;
},
{
layerId = "C64F1ECC-30E2-4AB6-9CDD-B17FE72FA4E1";
shapes = (
{
closed = 1;
nodes = (
(639,700,l),
(312,0,l),
(203,0,l),
(70,700,l),
(165,700,l),
(269,94,l),
(274,94,l),
(547,700,l)
);
}
);
width = 589;
},
{
layerId = "AC2035D7-313F-43E0-B352-008DE9991D96";
shapes = (
{
closed = 1;
nodes = (
(600,696,l),
(253,0,l),
(229,0,l),
(78,696,l),
(103,696,l),
(244,37,l),
(248,37,l),
(573,696,l)
);
}
);
width = 555;
}
);
leftKerningGroup = V2;
rightKerningGroup = V;
unicode = 86;
},
{
glyphname = W;
leftMetricsKey = "=10";
layers = (
{
anchors = (
{
name = m.fi;
position = "{578, 707}";
}
);
layerId = "52170CEE-5BA0-420B-B358-B20FB7EDC86A";
shapes = (
{
closed = 1;
nodes = (
(551,486,l),
(539,486,l),
(365,0,l),
(152,0,l),
(60,707,l),
(262,707,l),
(287,221,l),
(299,221,l),
(469,707,l),
(691,707,l),
(721,221,l),
(733,221,l),
(898,707,l),
(1100,707,l),
(805,0,l),
(592,0,l)
);
}
);
width = 1045;
},
{
anchors = (
{
name = m.fi;
position = "{542, 700}";
}
);
layerId = "C64F1ECC-30E2-4AB6-9CDD-B17FE72FA4E1";
shapes = (
{
closed = 1;
nodes = (
(530,587,l),
(525,587,l),
(287,0,l),
(181,0,l),
(70,701,l),
(167,701,l),
(246,115,l),
(250,115,l),
(492,701,l),
(599,701,l),
(684,115,l),
(688,115,l),
(925,701,l),
(1021,701,l),
(722,0,l),
(616,0,l)
);
}
);
width = 964;
},
{
anchors = (
{
name = m.fi;
position = "{525, 696}";
}
);
layerId = "AC2035D7-313F-43E0-B352-008DE9991D96";
leftMetricsKey = "=16";
shapes = (
{
closed = 1;
nodes = (
(522,657,l),
(519,657,l),
(225,0,l),
(202,0,l),
(75,696,l),
(101,696,l),
(220,39,l),
(222,39,l),
(514,696,l),
(539,696,l),
(662,39,l),
(664,39,l),
(951,696,l),
(977,696,l),
(669,0,l),
(646,0,l)
);
}
);
width = 934;
}
);
leftKerningGroup = V2;
rightKerningGroup = V;
unicode = 87;
},
{
glyphname = X;
layers = (
{
layerId = "52170CEE-5BA0-420B-B358-B20FB7EDC86A";
shapes = (
{
closed = 1;
nodes = (
(746,707,l),
(502,363,l),
(666,0,l),
(408,0,l),
(333,201,l),
(192,0,l),
(-29,0,l),
(222,351,l),
(55,707,l),
(313,707,l),
(389,507,l),
(518,707,l)
);
}
);
width = 693;
},
{
layerId = "C64F1ECC-30E2-4AB6-9CDD-B17FE72FA4E1";
shapes = (
{
closed = 1;
nodes = (
(630,700,l),
(380,359,l),
(555,0,l),
(447,0,l),
(307,292,l),
(92,0,l),
(-7,0,l),
(261,358,l),
(92,700,l),
(200,700,l),
(331,425,l),
(530,700,l)
);
}
);
width = 617;
},
{
layerId = "AC2035D7-313F-43E0-B352-008DE9991D96";
shapes = (
{
closed = 1;
nodes = (
(577,696,l),
(317,359,l),
(506,0,l),
(478,0,l),
(299,343,l),
(37,0,l),
(8,0,l),
(288,361,l),
(112,696,l),
(141,696,l),
(305,378,l),
(547,696,l)
);
}
);
width = 586;
}
);
leftKerningGroup = X;
rightKerningGroup = K;
unicode = 88;
},
{
glyphname = Y;
layers = (
{
anchors = (
{
name = m.fi;
position = "{380, 707}";
},
{
name = b.uni049C_3;
position = "{307, 182}";
},
{
name = b.uni0324_5;
position = "{294, 0}";
},
{
name = t.uni1FDF.case_6;
position = "{76, 707}";
}
);
layerId = "52170CEE-5BA0-420B-B358-B20FB7EDC86A";
shapes = (
{
closed = 1;
nodes = (
(726,707,l),
(330,90,l),
(260,90,l),
(47,707,l),
(275,707,l),
(339,435,l),
(352,435,l),
(502,707,l)
);
},
{
closed = 1;
nodes = (
(430,309,l),
(385,0,l),
(186,0,l),
(219,309,l)
);
}
);
width = 650;
},
{
anchors = (
{
name = m.fi;
position = "{380, 707}";
},
{
name = b.uni049C_3;
position = "{307, 182}";
},
{
name = b.uni0324_5;
position = "{294, 0}";
},
{
name = t.uni1FDF.case_6;
position = "{76, 707}";
}
);
layerId = "C64F1ECC-30E2-4AB6-9CDD-B17FE72FA4E1";
shapes = (
{
closed = 1;
nodes = (
(600,700,l),
(275,195,l),
(245,195,l),
(70,700,l),
(167,700,l),
(277,351,l),
(286,351,l),
(499,700,l)
);
},
{
closed = 1;
nodes = (
(318,298,l),
(278,0,l),
(196,0,l),
(230,298,l)
);
}
);
width = 555;
},
{
anchors = (
{
name = m.fi;
position = "{358, 702}";
},
{
name = b.uni049C_3;
position = "{283, 189}";
},
{
name = b.uni0324_5;
position = "{273, 0}";
},
{
name = t.uni1FDF.case_6;
position = "{75, 702}";
}
);
layerId = "AC2035D7-313F-43E0-B352-008DE9991D96";
shapes = (
{
closed = 1;
nodes = (
(537,696,l),
(251,256,l),
(242,256,l),
(84,696,l),
(111,696,l),
(250,302,l),
(256,302,l),
(509,696,l)
);
},
{
closed = 1;
nodes = (
(263,292,l),
(226,0,l),
(204,0,l),
(241,292,l)
);
}
);
width = 512;
}
);
leftKerningGroup = Y2;
rightKerningGroup = Y;
unicode = 89;
},
{
glyphname = Z;
layers = (
{
anchors = (
{
name = m.fi;
position = "{316, 707}";
},
{
name = b.uni0324_5;
position = "{280, 0}";
}
);
layerId = "52170CEE-5BA0-420B-B358-B20FB7EDC86A";
shapes = (
{
closed = 1;
nodes = (
(643,707,l),
(624,550,l),
(275,162,l),
(586,162,l),
(592,153,l),
(554,0,l),
(-2,0,l),
(17,150,l),
(371,545,l),
(68,545,l),
(61,554,l),
(97,707,l)
);
}
);
width = 622;
},
{
anchors = (
{
name = m.fi;
position = "{316, 707}";
},
{
name = b.uni0324_5;
position = "{280, 0}";
}
);
layerId = "C64F1ECC-30E2-4AB6-9CDD-B17FE72FA4E1";
shapes = (
{
closed = 1;
nodes = (
(570,700,l),
(561,631,l),
(124,75,l),
(494,75,l),
(497,69,l),
(480,0,l),
(3,0,l),
(12,66,l),
(450,624,l),
(97,624,l),
(93,630,l),
(111,700,l)
);
}
);
width = 554;
},
{
anchors = (
{
name = m.fi;
position = "{307, 702}";
},
{
name = b.uni0324_5;
position = "{265, 0}";
}
);
layerId = "AC2035D7-313F-43E0-B352-008DE9991D96";
shapes = (
{
closed = 1;
nodes = (
(534,697,l),
(532,677,l),
(37,22,l),
(447,22,l),
(451,16,l),
(444,0,l),
(5,0,l),
(8,19,l),
(502,674,l),
(115,674,l),
(110,679,l),
(117,696,l)
);
}
);
width = 526;
}
);
leftKerningGroup = Z2;
rightKerningGroup = Z;
unicode = 90;
},
{
glyphname = bracketleft;
layers = (
{
layerId = "52170CEE-5BA0-420B-B358-B20FB7EDC86A";
shapes = (
{
closed = 1;
nodes = (
(388,709,l),
(394,699,l),
(382,605,l),
(277,589,l),
(204,-14,l),
(305,-31,l),
(293,-124,l),
(284,-134,l),
(17,-123,l),
(80,287,l),
(119,698,l)
);
}
);
width = 330;
},
{
layerId = "C64F1ECC-30E2-4AB6-9CDD-B17FE72FA4E1";
shapes = (
{
closed = 1;
nodes = (
(349,707,l),
(354,700,l),
(348,656,l),
(218,643,l),
(130,-79,l),
(257,-91,l),
(251,-135,l),
(245,-141,l),
(48,-130,l),
(103,283,l),
(149,696,l)
);
}
);
width = 316;
},
{
layerId = "AC2035D7-313F-43E0-B352-008DE9991D96";
shapes = (
{
closed = 1;
nodes = (
(341,705,l),
(344,701,l),
(342,685,l),
(199,675,l),
(103,-115,l),
(242,-124,l),
(241,-141,l),
(236,-145,l),
(78,-134,l),
(129,281,l),
(180,695,l)
);
}
);
width = 308;
}
);
unicode = 91;
},
{
glyphname = backslash;
layers = (
{
layerId = "52170CEE-5BA0-420B-B358-B20FB7EDC86A";
shapes = (
{
closed = 1;
nodes = (
(290,-129,l),
(63,728,l),
(80,746,l),
(223,746,l),
(450,-112,l),
(438,-129,l)
);
}
);
width = 499;
},
{
layerId = "C64F1ECC-30E2-4AB6-9CDD-B17FE72FA4E1";
shapes = (
{
closed = 1;
nodes = (
(246,-123,l),
(22,731,l),
(29,740,l),
(93,740,l),
(317,-115,l),
(310,-123,l)
);
}
);
width = 304;
},
{
layerId = "AC2035D7-313F-43E0-B352-008DE9991D96";
shapes = (
{
closed = 1;
nodes = (
(314,-120,l),
(92,732,l),
(95,737,l),
(112,737,l),
(335,-116,l),
(332,-120,l)
);
}
);
width = 393;
}
);
unicode = 92;
},
{
glyphname = asciicircum;
layers = (
{
layerId = "52170CEE-5BA0-420B-B358-B20FB7EDC86A";
shapes = (
{
closed = 1;
nodes = (
(380,548,l),
(480,176,l),
(464,158,l),
(343,130,l),
(277,404,l),
(268,404,l),
(133,129,l),
(118,121,l),
(2,165,l),
(190,536,l),
(210,548,l)
);
}
);
width = 502;
},
{
layerId = "C64F1ECC-30E2-4AB6-9CDD-B17FE72FA4E1";
shapes = (
{
closed = 1;
nodes = (
(313,537,l),
(430,147,l),
(423,139,l),
(368,126,l),
(268,468,l),
(261,468,l),
(69,128,l),
(59,122,l),
(9,143,l),
(226,532,l),
(237,537,l)
);
}
);
width = 465;
},
{
layerId = "AC2035D7-313F-43E0-B352-008DE9991D96";
shapes = (
{
closed = 1;
nodes = (
(277,532,l),
(403,132,l),
(401,128,l),
(383,122,l),
(263,505,l),
(259,505,l),
(33,127,l),
(27,123,l),
(13,131,l),
(249,529,l),
(253,532,l)
);
}
);
width = 444;
}
);
unicode = 94;
},
{
glyphname = underscore;
layers = (
{
layerId = "52170CEE-5BA0-420B-B358-B20FB7EDC86A";
shapes = (
{
closed = 1;
nodes = (
(438,-99,l),
(449,-114,l),
(425,-230,l),
(-63,-230,l),
(-74,-216,l),
(-50,-99,l)
);
}
);
width = 478;
},
{
layerId = "C64F1ECC-30E2-4AB6-9CDD-B17FE72FA4E1";
shapes = (
{
closed = 1;
nodes = (
(458,-96,l),
(464,-103,l),
(452,-157,l),
(-59,-157,l),
(-66,-150,l),
(-54,-96,l)
);
}
);
width = 491;
},
{
layerId = "AC2035D7-313F-43E0-B352-008DE9991D96";
shapes = (
{
closed = 1;
nodes = (
(468,-94,l),
(471,-97,l),
(466,-116,l),
(-58,-116,l),
(-60,-112,l),
(-56,-94,l)
);
}
);
width = 497;
}
);
leftKerningGroup = comma2;
rightKerningGroup = comma;
unicode = 95;
},
{
glyphname = a;
layers = (
{
anchors = (
{
name = m.fi;
position = "{290, 515}";
},
{
name = m.uni01EB_1;
position = "{461, 8}";
},
{
name = b.uni0324_5;
position = "{235, 0}";
}
);
layerId = "52170CEE-5BA0-420B-B358-B20FB7EDC86A";
shapes = (
{
closed = 1;
nodes = (
(505,529,l),
(517,520,l),
(461,8,l),
(266,-4,l),
(318,381,l),
(325,491,l)
);
},
{
closed = 1;
nodes = (
(278,522,l),
(477,488,l),
(372,346,l),
(241,379,l),
(224,379,o),
(211,368,o),
(202,347,cs),
(193,327,o),
(189,296,o),
(189,253,cs),
(189,233,o),
(190,216,o),
(192,204,cs),
(195,178,o),
(203,167,o),
(212,167,cs),
(221,167,o),
(230,175,o),
(241,190,cs),
(263,221,o),
(293,284,o),
(329,380,c),
(286,115,l),
(265,115,l),
(242,70,o),
(218,27,o),
(185,-12,c),
(159,-12,l),
(119,-2,o),
(88,12,o),
(67,29,cs),
(23,64,o),
(9,114,o),
(9,171,cs),
(9,237,o),
(28,309,o),
(72,373,cs),
(115,438,o),
(179,491,o),
(271,522,c)
);
}
);
width = 533;
},
{
anchors = (
{
name = m.fi;
position = "{290, 515}";
},
{
name = m.uni01EB_1;
position = "{461, 8}";
},
{
name = b.uni0324_5;
position = "{235, 0}";
}
);
layerId = "C64F1ECC-30E2-4AB6-9CDD-B17FE72FA4E1";
shapes = (
{
closed = 1;
nodes = (
(423,510,l),
(434,503,l),
(375,3,l),
(282,-4,l),
(339,390,l),
(342,471,l)
);
},
{
closed = 1;
nodes = (
(296,510,l),
(403,466,l),
(367,395,l),
(271,435,l),
(223,435,o),
(185,407,o),
(159,363,cs),
(133,319,o),
(118,258,o),
(118,190,cs),
(118,165,o),
(120,145,o),
(123,131,cs),
(130,102,o),
(139,93,o),
(147,93,cs),
(156,93,o),
(171,104,o),
(191,126,cs),
(231,169,o),
(285,260,o),
(340,393,c),
(324,204,l),
(299,204,l),
(252,124,o),
(197,51,o),
(138,-9,c),
(121,-9,l),
(102,2,o),
(87,16,o),
(74,32,cs),
(48,64,o),
(34,109,o),
(34,166,cs),
(34,239,o),
(56,317,o),
(98,382,cs),
(140,446,o),
(205,495,o),
(290,510,c)
);
}
);
width = 483;
},
{
anchors = (
{
name = m.fi;
position = "{296, 507}";
},
{
name = m.uni01EB_1;
position = "{418, 4}";
},
{
name = b.uni0324_5;
position = "{224, 0}";
}
);
layerId = "AC2035D7-313F-43E0-B352-008DE9991D96";
shapes = (
{
closed = 1;
nodes = (
(387,501,l),
(392,498,l),
(332,0,l),
(305,-4,l),
(357,395,l),
(366,489,l)
);
},
{
closed = 1;
nodes = (
(302,499,l),
(383,492,l),
(379,471,l),
(300,477,l),
(229,476,o),
(172,438,o),
(133,377,cs),
(93,316,o),
(72,237,o),
(72,154,cs),
(72,122,o),
(75,97,o),
(80,78,cs),
(91,40,o),
(107,26,o),
(116,26,cs),
(121,26,o),
(136,40,o),
(162,69,cs),
(214,125,o),
(292,235,o),
(365,388,c),
(345,296,l),
(340,296,l),
(276,173,o),
(196,65,o),
(119,-4,c),
(107,-4,l),
(94,5,o),
(84,16,o),
(75,29,cs),
(58,54,o),
(50,93,o),
(50,150,cs),
(50,241,o),
(73,325,o),
(115,389,cs),
(157,453,o),
(218,494,o),
(298,499,c)
);
}
);
width = 461;
}
);
leftKerningGroup = a2;
rightKerningGroup = a;
unicode = 97;
},
{
glyphname = b;
layers = (
{
anchors = (
{
name = m.fi;
position = "{299, 515}";
},
{
name = b.uni0324_5;
position = "{236, 0}";
}
);
layerId = "52170CEE-5BA0-420B-B358-B20FB7EDC86A";
shapes = (
{
closed = 1;
nodes = (
(377,522,l),
(434,508,o),
(474,486,o),
(495,456,cs),
(516,426,o),
(526,387,o),
(526,340,cs),
(526,269,o),
(506,197,o),
(463,133,cs),
(420,69,o),
(355,17,o),
(270,-12,c),
(262,-12,l),
(54,25,l),
(158,167,l),
(299,130,l),
(315,130,o),
(328,144,o),
(336,166,cs),
(344,188,o),
(347,220,o),
(347,260,cs),
(347,282,o),
(346,300,o),
(345,313,c),
(341,339,o),
(334,349,o),
(325,349,cs),
(316,349,o),
(306,341,o),
(294,325,cs),
(270,293,o),
(240,229,o),
(201,134,c),
(235,391,l),
(266,391,l),
(291,438,o),
(320,481,o),
(352,522,c)
);
},
{
closed = 1;
nodes = (
(299,769,l),
(230,249,l),
(214,126,l),
(205,-1,l),
(21,29,l),
(105,757,l)
);
}
);
width = 535;
},
{
anchors = (
{
name = m.fi;
position = "{299, 515}";
},
{
name = b.uni0324_5;
position = "{236, 0}";
}
);
layerId = "C64F1ECC-30E2-4AB6-9CDD-B17FE72FA4E1";
shapes = (
{
closed = 1;
nodes = (
(360,510,l),
(389,494,o),
(411,472,o),
(426,443,cs),
(441,414,o),
(448,378,o),
(448,334,cs),
(448,262,o),
(427,183,o),
(385,119,cs),
(343,54,o),
(278,6,o),
(191,-9,c),
(186,-9,l),
(70,19,l),
(114,93,l),
(211,66,l),
(259,66,o),
(299,93,o),
(325,138,cs),
(351,182,o),
(365,243,o),
(365,310,cs),
(365,336,o),
(363,356,o),
(360,371,cs),
(353,399,o),
(345,408,o),
(334,408,cs),
(326,408,o),
(312,397,o),
(292,375,cs),
(252,331,o),
(196,243,o),
(141,107,c),
(158,297,l),
(182,297,l),
(229,378,o),
(284,451,o),
(344,510,c)
);
},
{
closed = 1;
nodes = (
(237,769,l),
(144,117,l),
(142,46,l),
(141,3,l),
(51,20,l),
(143,761,l)
);
}
);
width = 485;
},
{
anchors = (
{
name = m.fi;
position = "{288, 508}";
},
{
name = b.uni0324_5;
position = "{225, 0}";
}
);
layerId = "AC2035D7-313F-43E0-B352-008DE9991D96";
shapes = (
{
closed = 1;
nodes = (
(355,496,l),
(374,481,o),
(388,462,o),
(398,441,c),
(407,419,o),
(412,387,o),
(412,346,cs),
(412,253,o),
(390,169,o),
(346,105,cs),
(302,41,o),
(242,0,o),
(159,-4,c),
(155,-4,l),
(79,14,l),
(83,36,l),
(157,17,l),
(230,17,o),
(288,56,o),
(328,117,cs),
(368,177,o),
(390,257,o),
(390,341,cs),
(390,373,o),
(387,398,o),
(382,416,c),
(370,451,o),
(355,465,o),
(346,465,cs),
(341,465,o),
(326,451,o),
(300,423,cs),
(247,366,o),
(169,256,o),
(94,104,c),
(103,195,l),
(119,195,l),
(184,318,o),
(264,425,o),
(343,496,c)
);
},
{
closed = 1;
nodes = (
(191,767,l),
(109,154,l),
(94,22,l),
(94,12,l),
(70,15,l),
(164,762,l)
);
}
);
width = 462;
}
);
leftKerningGroup = b2;
rightKerningGroup = b;
unicode = 98;
},
{
glyphname = c;
layers = (
{
anchors = (
{
name = m.fi;
position = "{270, 515}";
},
{
name = b.uni0324_5;
position = "{217, 0}";
}
);
layerId = "52170CEE-5BA0-420B-B358-B20FB7EDC86A";
shapes = (
{
closed = 1;
nodes = (
(419,497,l),
(424,477,l),
(368,335,l),
(325,334,l),
(298,369,o),
(288,377,o),
(268,377,cs),
(245,377,o),
(227,366,o),
(217,344,cs),
(206,322,o),
(201,287,o),
(201,239,cs),
(201,175,o),
(210,155,o),
(236,155,cs),
(258,155,o),
(274,169,o),
(308,214,c),
(333,213,l),
(392,142,l),
(344,60,o),
(296,19,o),
(214,-11,c),
(189,-11,l),
(149,-4,o),
(115,8,o),
(90,24,cs),
(37,57,o),
(13,114,o),
(13,200,cs),
(13,265,o),
(26,322,o),
(51,371,cs),
(103,468,o),
(197,525,o),
(322,525,c)
);
}
);
width = 416;
},
{
anchors = (
{
name = m.fi;
position = "{270, 515}";
},
{
name = b.uni0324_5;
position = "{217, 0}";
}
);
layerId = "C64F1ECC-30E2-4AB6-9CDD-B17FE72FA4E1";
shapes = (
{
closed = 1;
nodes = (
(367,486,l),
(373,473,l),
(348,400,l),
(329,396,l),
(300,431,o),
(279,437,o),
(254,437,cs),
(215,437,o),
(183,415,o),
(159,372,cs),
(135,329,o),
(123,269,o),
(123,193,cs),
(123,104,o),
(143,70,o),
(183,70,cs),
(222,70,o),
(256,102,o),
(293,165,c),
(306,164,l),
(334,126,l),
(287,47,o),
(242,13,o),
(177,-8,c),
(163,-8,l),
(134,-3,o),
(111,6,o),
(92,19,cs),
(55,43,o),
(37,91,o),
(37,176,cs),
(37,236,o),
(46,291,o),
(65,342,cs),
(101,442,o),
(175,509,o),
(295,509,c)
);
}
);
width = 369;
},
{
anchors = (
{
name = m.fi;
position = "{256, 507}";
},
{
name = b.uni0324_5;
position = "{199, 0}";
}
);
layerId = "AC2035D7-313F-43E0-B352-008DE9991D96";
shapes = (
{
closed = 1;
nodes = (
(348,477,l),
(354,470,l),
(347,454,l),
(342,451,l),
(315,467,o),
(289,476,o),
(272,476,cs),
(210,475,o),
(162,446,o),
(127,389,cs),
(92,331,o),
(74,253,o),
(74,154,cs),
(74,57,o),
(103,17,o),
(154,17,cs),
(195,17,o),
(246,41,o),
(290,129,c),
(297,129,l),
(307,115,l),
(260,30,o),
(212,2,o),
(155,-5,c),
(146,-5,l),
(129,-2,o),
(114,3,o),
(100,12,c),
(71,28,o),
(52,70,o),
(52,155,cs),
(52,220,o),
(60,278,o),
(77,330,cs),
(110,433,o),
(179,498,o),
(287,498,c)
);
}
);
width = 354;
}
);
leftKerningGroup = a2;
rightKerningGroup = c;
unicode = 99;
},
{
glyphname = d;
layers = (
{
anchors = (
{
name = m.fi;
position = "{390, 515}";
},
{
name = b.uni049C_3;
position = "{525, 258}";
},
{
name = m.uni031B_4;
position = "{675, 384}";
},
{
name = b.uni0324_5;
position = "{234, 0}";
}
);
layerId = "52170CEE-5BA0-420B-B358-B20FB7EDC86A";
shapes = (
{
closed = 1;
nodes = (
(282,522,l),
(479,488,l),
(375,347,l),
(244,380,l),
(225,380,o),
(210,369,o),
(201,347,cs),
(191,325,o),
(187,293,o),
(187,249,cs),
(187,229,o),
(188,213,o),
(190,201,cs),
(194,176,o),
(201,165,o),
(210,165,cs),
(218,165,o),
(228,173,o),
(240,189,cs),
(262,219,o),
(293,283,o),
(332,380,c),
(287,117,l),
(266,117,l),
(244,72,o),
(216,27,o),
(182,-12,c),
(157,-12,l),
(117,-2,o),
(86,12,o),
(66,29,c),
(22,63,o),
(8,111,o),
(8,169,cs),
(8,236,o),
(28,308,o),
(72,373,cs),
(115,438,o),
(182,491,o),
(274,522,c)
);
},
{
closed = 1;
nodes = (
(548,769,l),
(459,8,l),
(264,-4,l),
(354,757,l)
);
}
);
width = 531;
},
{
anchors = (
{
name = m.fi;
position = "{390, 515}";
},
{
name = b.uni049C_3;
position = "{525, 258}";
},
{
name = m.uni031B_4;
position = "{675, 384}";
},
{
name = b.uni0324_5;
position = "{234, 0}";
}
);
layerId = "C64F1ECC-30E2-4AB6-9CDD-B17FE72FA4E1";
shapes = (
{
closed = 1;
nodes = (
(297,510,l),
(404,466,l),
(369,395,l),
(272,435,l),
(223,435,o),
(184,407,o),
(157,363,cs),
(130,319,o),
(116,258,o),
(116,191,cs),
(116,165,o),
(118,145,o),
(121,131,cs),
(128,102,o),
(139,93,o),
(147,93,cs),
(155,93,o),
(169,104,o),
(190,126,cs),
(231,169,o),
(287,260,o),
(342,393,c),
(325,204,l),
(301,204,l),
(253,124,o),
(197,51,o),
(138,-9,c),
(120,-9,l),
(101,2,o),
(85,16,o),
(72,32,cs),
(45,64,o),
(33,108,o),
(33,167,cs),
(33,240,o),
(53,317,o),
(97,382,cs),
(140,446,o),
(204,495,o),
(292,510,c)
);
},
{
closed = 1;
nodes = (
(473,769,l),
(377,3,l),
(283,-4,l),
(379,761,l)
);
}
);
width = 485;
},
{
anchors = (
{
name = m.fi;
position = "{380, 507}";
},
{
name = b.uni049C_3;
position = "{423, 253}";
},
{
name = m.uni031B_4;
position = "{619, 424}";
},
{
name = b.uni0324_5;
position = "{223, 0}";
}
);
layerId = "AC2035D7-313F-43E0-B352-008DE9991D96";
shapes = (
{
closed = 1;
nodes = (
(306,496,l),
(387,492,l),
(382,471,l),
(304,474,l),
(231,474,o),
(173,435,o),
(133,375,cs),
(93,315,o),
(71,234,o),
(71,151,cs),
(71,120,o),
(74,95,o),
(79,77,cs),
(90,40,o),
(106,26,o),
(114,26,cs),
(119,26,o),
(134,40,o),
(161,69,cs),
(213,125,o),
(292,235,o),
(367,388,c),
(347,296,l),
(342,296,l),
(277,173,o),
(197,65,o),
(117,-4,c),
(105,-4,l),
(92,5,o),
(82,15,o),
(74,28,cs),
(57,53,o),
(49,90,o),
(49,145,cs),
(49,238,o),
(71,323,o),
(115,387,cs),
(158,451,o),
(221,491,o),
(301,496,c)
);
},
{
closed = 1;
nodes = (
(430,767,l),
(334,0,l),
(307,-4,l),
(403,762,l)
);
}
);
width = 462;
}
);
leftKerningGroup = a2;
rightKerningGroup = d;
unicode = 100;
},
{
glyphname = e;
layers = (
{
anchors = (
{
name = m.fi;
position = "{264, 515}";
},
{
name = m.uni01EB_1;
position = "{354, 44}";
},
{
name = b.uni0324_5;
position = "{234, 0}";
}
);
layerId = "52170CEE-5BA0-420B-B358-B20FB7EDC86A";
shapes = (
{
closed = 1;
nodes = (
(164,295,l),
(261,312,o),
(293,332,o),
(293,375,cs),
(293,396,o),
(284,405,o),
(263,405,cs),
(247,405,o),
(234,400,o),
(224,390,cs),
(203,368,o),
(194,325,o),
(194,256,cs),
(194,171,o),
(212,137,o),
(252,137,cs),
(280,137,o),
(302,149,o),
(363,200,c),
(384,195,l),
(442,122,l),
(390,60,o),
(320,13,o),
(238,-12,c),
(221,-12,l),
(80,4,o),
(13,72,o),
(13,200,cs),
(13,264,o),
(25,320,o),
(50,368,cs),
(98,463,o),
(191,521,o),
(313,529,c),
(331,526,l),
(417,510,o),
(464,461,o),
(464,387,cs),
(464,340,o),
(441,300,o),
(395,270,cs),
(348,238,o),
(272,211,o),
(164,186,c)
);
}
);
width = 477;
},
{
anchors = (
{
name = m.fi;
position = "{264, 515}";
},
{
name = m.uni01EB_1;
position = "{354, 44}";
},
{
name = b.uni0324_5;
position = "{234, 0}";
}
);
layerId = "C64F1ECC-30E2-4AB6-9CDD-B17FE72FA4E1";
shapes = (
{
closed = 1;
nodes = (
(108,252,l),
(239,291,o),
(306,341,o),
(306,402,cs),
(306,431,o),
(292,444,o),
(260,444,cs),
(233,444,o),
(209,434,o),
(188,414,cs),
(147,373,o),
(122,298,o),
(122,199,cs),
(122,108,o),
(145,70,o),
(194,70,cs),
(237,70,o),
(272,94,o),
(320,157,c),
(333,156,l),
(363,118,l),
(318,49,o),
(259,7,o),
(190,-8,c),
(177,-8,l),
(80,4,o),
(36,58,o),
(36,174,cs),
(37,239,o),
(47,296,o),
(68,346,cs),
(108,445,o),
(185,507,o),
(281,511,c),
(290,510,l),
(355,501,o),
(390,467,o),
(390,408,cs),
(390,363,o),
(366,323,o),
(319,286,cs),
(272,249,o),
(201,216,o),
(108,189,c)
);
}
);
width = 418;
},
{
anchors = (
{
name = m.fi;
position = "{263, 507}";
},
{
name = m.uni01EB_1;
position = "{306, 35}";
},
{
name = b.uni0324_5;
position = "{211, 0}";
}
);
layerId = "AC2035D7-313F-43E0-B352-008DE9991D96";
shapes = (
{
closed = 1;
nodes = (
(67,213,l),
(235,273,o),
(329,349,o),
(329,420,cs),
(329,452,o),
(309,476,o),
(266,476,cs),
(231,476,o),
(199,462,o),
(170,435,cs),
(112,380,o),
(73,282,o),
(73,162,cs),
(73,61,o),
(102,17,o),
(159,17,cs),
(215,17,o),
(263,57,o),
(302,129,c),
(310,129,l),
(320,115,l),
(277,43,o),
(230,3,o),
(162,-5,c),
(152,-5,l),
(79,3,o),
(51,55,o),
(51,156,cs),
(51,221,o),
(61,280,o),
(80,331,cs),
(118,433,o),
(184,498,o),
(264,499,c),
(270,499,l),
(325,495,o),
(352,467,o),
(352,424,cs),
(352,382,o),
(328,341,o),
(281,301,cs),
(234,261,o),
(162,224,o),
(67,190,c)
);
}
);
width = 387;
}
);
leftKerningGroup = a2;
rightKerningGroup = e;
unicode = 101;
},
{
glyphname = f;
layers = (
{
layerId = "52170CEE-5BA0-420B-B358-B20FB7EDC86A";
shapes = (
{
closed = 1;
nodes = (
(529,751,l),
(538,736,l),
(486,604,l),
(461,595,l),
(417,619,o),
(390,627,o),
(370,627,cs),
(339,627,o),
(322,606,o),
(314,555,cs),
(236,-106,l),
(41,-118,l),
(116,509,ls),
(135,682,o),
(239,767,o),
(404,767,c)
);
},
{
closed = 1;
nodes = (
(410,506,l),
(423,490,l),
(408,395,l),
(36,395,l),
(27,407,l),
(40,506,l)
);
}
);
width = 368;
},
{
layerId = "C64F1ECC-30E2-4AB6-9CDD-B17FE72FA4E1";
shapes = (
{
closed = 1;
nodes = (
(470,752,l),
(473,745,l),
(448,678,l),
(435,676,l),
(407,692,o),
(370,701,o),
(345,701,cs),
(292,701,o),
(249,660,o),
(239,583,cs),
(143,-130,l),
(59,-138,l),
(157,559,ls),
(176,694,o),
(238,769,o),
(366,769,c)
);
},
{
closed = 1;
nodes = (
(343,491,l),
(351,483,l),
(342,430,l),
(63,430,l),
(58,437,l),
(66,491,l)
);
}
);
width = 310;
},
{
layerId = "AC2035D7-313F-43E0-B352-008DE9991D96";
shapes = (
{
closed = 1;
nodes = (
(417,757,l),
(419,753,l),
(412,732,l),
(405,732,l),
(382,740,o),
(355,748,o),
(330,748,cs),
(254,748,o),
(209,698,o),
(197,602,cs),
(107,-142,l),
(80,-146,l),
(175,602,ls),
(190,714,o),
(245,770,o),
(336,770,c)
);
},
{
closed = 1;
nodes = (
(309,490,l),
(312,486,l),
(308,468,l),
(82,468,l),
(78,473,l),
(82,490,l)
);
}
);
width = 281;
}
);
leftKerningGroup = f;
unicode = 102;
},
{
glyphname = g;
layers = (
{
anchors = (
{
name = m.fi;
position = "{300, 515}";
}
);
layerId = "52170CEE-5BA0-420B-B358-B20FB7EDC86A";
shapes = (
{
closed = 1;
nodes = (
(498,529,l),
(510,520,l),
(456,55,l),
(449,-4,o),
(431,-54,o),
(403,-94,cs),
(346,-174,o),
(258,-214,o),
(161,-214,cs),
(114,-214,o),
(75,-206,o),
(46,-190,cs),
(-15,-157,o),
(-47,-99,o),
(-57,-34,c),
(-52,-22,l),
(92,38,l),
(96,83,l),
(182,19,l),
(158,-3,ls),
(144,-15,o),
(141,-25,o),
(141,-35,cs),
(141,-41,o),
(143,-48,o),
(146,-56,c),
(153,-69,o),
(168,-79,o),
(194,-79,cs),
(237,-79,o),
(269,-55,o),
(273,-1,c),
(325,391,l),
(330,492,l)
);
},
{
closed = 1;
nodes = (
(288,523,l),
(474,490,l),
(379,361,l),
(254,391,l),
(241,391,o),
(230,387,o),
(222,377,c),
(203,357,o),
(193,319,o),
(193,262,cs),
(193,233,o),
(195,213,o),
(200,201,cs),
(204,189,o),
(210,183,o),
(217,183,cs),
(225,183,o),
(235,191,o),
(247,206,cs),
(269,236,o),
(299,297,o),
(337,390,c),
(298,145,l),
(278,145,l),
(251,98,o),
(218,57,o),
(182,19,c),
(168,19,l),
(114,33,o),
(76,57,o),
(58,88,cs),
(39,120,o),
(29,155,o),
(29,195,cs),
(29,240,o),
(39,285,o),
(58,329,cs),
(95,415,o),
(169,487,o),
(282,523,c)
);
}
);
width = 524;
},
{
anchors = (
{
name = m.fi;
position = "{300, 515}";
}
);
layerId = "C64F1ECC-30E2-4AB6-9CDD-B17FE72FA4E1";
shapes = (
{
closed = 1;
nodes = (
(426,510,l),
(438,503,l),
(375,43,l),
(368,-11,o),
(351,-58,o),
(326,-97,cs),
(275,-175,o),
(201,-216,o),
(118,-216,cs),
(87,-216,o),
(59,-210,o),
(34,-198,cs),
(-17,-174,o),
(-49,-125,o),
(-61,-57,c),
(-57,-47,l),
(95,41,l),
(97,67,l),
(152,25,l),
(49,-50,l),
(41,-57,o),
(38,-61,o),
(38,-70,cs),
(38,-82,o),
(42,-94,o),
(50,-106,cs),
(66,-129,o),
(98,-146,o),
(139,-146,cs),
(214,-146,o),
(274,-90,o),
(289,17,cs),
(342,390,l),
(346,470,l)
);
},
{
closed = 1;
nodes = (
(298,509,l),
(411,463,l),
(370,394,l),
(274,435,l),
(243,435,o),
(217,425,o),
(196,406,c),
(155,366,o),
(133,296,o),
(133,215,cs),
(133,176,o),
(137,148,o),
(144,133,cs),
(151,118,o),
(158,110,o),
(163,110,cs),
(170,110,o),
(184,121,o),
(203,144,cs),
(242,189,o),
(296,276,o),
(349,399,c),
(330,214,l),
(304,214,l),
(261,135,o),
(208,70,o),
(152,25,c),
(139,25,l),
(108,38,o),
(86,57,o),
(72,82,c),
(57,106,o),
(50,139,o),
(50,182,cs),
(50,233,o),
(59,281,o),
(78,327,cs),
(114,419,o),
(186,490,o),
(293,509,c)
);
}
);
width = 487;
},
{
anchors = (
{
name = m.fi;
position = "{277, 508}";
}
);
layerId = "AC2035D7-313F-43E0-B352-008DE9991D96";
shapes = (
{
closed = 1;
nodes = (
(379,501,l),
(384,498,l),
(327,38,ls),
(320,-19,o),
(305,-67,o),
(284,-105,cs),
(240,-180,o),
(173,-215,o),
(90,-215,cs),
(62,-215,o),
(38,-210,o),
(18,-201,cs),
(-23,-182,o),
(-51,-147,o),
(-63,-100,c),
(-61,-93,l),
(103,40,l),
(103,51,l),
(128,34,l),
(-29,-94,l),
(-36,-98,o),
(-36,-98,o),
(-36,-105,c),
(-35,-114,o),
(-30,-125,o),
(-21,-140,cs),
(-4,-168,o),
(33,-193,o),
(90,-193,cs),
(202,-193,o),
(283,-118,o),
(304,34,cs),
(352,404,l),
(358,489,l)
);
},
{
closed = 1;
nodes = (
(302,497,l),
(376,494,l),
(372,474,l),
(299,476,l),
(255,476,o),
(217,462,o),
(185,434,cs),
(121,377,o),
(85,280,o),
(85,177,cs),
(85,133,o),
(90,103,o),
(101,87,cs),
(112,70,o),
(119,62,o),
(124,62,cs),
(129,62,o),
(143,75,o),
(166,102,cs),
(211,155,o),
(283,257,o),
(359,396,c),
(341,312,l),
(335,312,l),
(264,199,o),
(200,99,o),
(128,34,c),
(116,34,l),
(99,47,o),
(87,64,o),
(78,85,cs),
(69,106,o),
(64,135,o),
(64,173,cs),
(64,230,o),
(73,283,o),
(92,331,cs),
(128,427,o),
(199,490,o),
(298,497,c)
);
}
);
width = 452;
}
);
leftKerningGroup = g2;
rightKerningGroup = g;
unicode = 103;
},
{
glyphname = h;
layers = (
{
anchors = (
{
name = m.fi;
position = "{194, 721}";
},
{
name = b.uni049C_3;
position = "{321, 258}";
},
{
name = b.uni0324_5;
position = "{257, 0}";
}
);
layerId = "52170CEE-5BA0-420B-B358-B20FB7EDC86A";
shapes = (
{
closed = 1;
nodes = (
(404,518,l),
(496,503,o),
(553,456,o),
(551,396,c),
(550,381,l),
(505,8,l),
(306,-4,l),
(352,283,l),
(354,294,l),
(354,311,o),
(347,318,o),
(335,318,cs),
(323,318,o),
(307,307,o),
(285,284,cs),
(262,261,o),
(236,223,o),
(206,170,c),
(245,378,l),
(266,378,l),
(307,429,o),
(346,476,o),
(390,517,c)
);
},
{
closed = 1;
nodes = (
(300,769,l),
(211,8,l),
(15,-4,l),
(105,757,l)
);
}
);
width = 577;
},
{
anchors = (
{
name = m.fi;
position = "{194, 721}";
},
{
name = b.uni049C_3;
position = "{321, 258}";
},
{
name = b.uni0324_5;
position = "{257, 0}";
}
);
layerId = "C64F1ECC-30E2-4AB6-9CDD-B17FE72FA4E1";
shapes = (
{
closed = 1;
nodes = (
(371,508,l),
(423,497,o),
(462,465,o),
(461,413,c),
(460,399,l),
(410,3,l),
(314,-4,l),
(373,365,l),
(375,378,l),
(375,395,o),
(371,406,o),
(355,406,cs),
(334,406,o),
(304,380,o),
(267,328,cs),
(229,275,o),
(186,196,o),
(137,90,c),
(159,271,l),
(177,271,l),
(245,388,o),
(296,459,o),
(359,508,c)
);
},
{
closed = 1;
nodes = (
(237,769,l),
(141,3,l),
(47,-4,l),
(143,761,l)
);
}
);
width = 517;
},
{
anchors = (
{
name = m.fi;
position = "{183, 716}";
},
{
name = b.uni049C_3;
position = "{307, 253}";
},
{
name = b.uni0324_5;
position = "{241, 0}";
}
);
layerId = "AC2035D7-313F-43E0-B352-008DE9991D96";
shapes = (
{
closed = 1;
nodes = (
(366,505,l),
(399,494,o),
(425,459,o),
(422,412,c),
(420,397,l),
(360,0,l),
(333,-4,l),
(397,394,l),
(399,411,l),
(400,448,o),
(381,476,o),
(361,476,cs),
(343,476,o),
(310,444,o),
(261,380,cs),
(212,316,o),
(157,225,o),
(94,107,c),
(107,201,l),
(121,201,l),
(208,348,o),
(278,454,o),
(354,505,c)
);
},
{
closed = 1;
nodes = (
(191,767,l),
(95,0,l),
(67,-4,l),
(163,762,l)
);
}
);
width = 487;
}
);
leftKerningGroup = b2;
rightKerningGroup = a;
unicode = 104;
},
{
glyphname = k;
layers = (
{
anchors = (
{
name = m.fi;
position = "{194, 721}";
},
{
name = m.uni031B_4;
position = "{275, 515}";
},
{
name = b.uni0324_5;
position = "{264, 0}";
}
);
layerId = "52170CEE-5BA0-420B-B358-B20FB7EDC86A";
shapes = (
{
closed = 1;
nodes = (
(417,518,l),
(503,503,o),
(563,461,o),
(563,381,cs),
(563,307,o),
(512,245,o),
(448,197,c),
(474,139,o),
(505,79,o),
(535,22,c),
(525,8,l),
(361,-13,l),
(343,-4,l),
(320,60,o),
(295,123,o),
(277,186,c),
(284,211,l),
(331,238,o),
(366,280,o),
(366,302,cs),
(366,314,o),
(358,321,o),
(348,321,cs),
(334,321,o),
(316,309,o),
(290,286,cs),
(265,263,o),
(237,224,o),
(206,170,c),
(245,378,l),
(266,378,l),
(309,429,o),
(356,476,o),
(403,517,c)
);
},
{
closed = 1;
nodes = (
(300,769,l),
(211,8,l),
(15,-4,l),
(105,757,l)
);
}
);
width = 591;
},
{
anchors = (
{
name = m.fi;
position = "{194, 721}";
},
{
name = m.uni031B_4;
position = "{275, 515}";
},
{
name = b.uni0324_5;
position = "{264, 0}";
}
);
layerId = "C64F1ECC-30E2-4AB6-9CDD-B17FE72FA4E1";
shapes = (
{
closed = 1;
nodes = (
(390,508,l),
(445,496,o),
(485,463,o),
(485,396,cs),
(485,324,o),
(428,256,o),
(332,199,c),
(369,135,o),
(409,70,o),
(452,9,c),
(448,1,l),
(370,-13,l),
(361,-9,l),
(321,56,o),
(283,126,o),
(250,193,c),
(253,209,l),
(345,268,o),
(394,321,o),
(394,373,cs),
(394,400,o),
(383,406,o),
(371,406,cs),
(348,406,o),
(317,381,o),
(278,332,cs),
(239,283,o),
(192,200,o),
(139,85,c),
(164,277,l),
(180,277,l),
(249,382,o),
(307,462,o),
(375,507,c)
);
},
{
closed = 1;
nodes = (
(238,769,l),
(142,3,l),
(48,-4,l),
(144,761,l)
);
}
);
width = 512;
},
{
anchors = (
{
name = m.fi;
position = "{183, 716}";
},
{
name = m.uni031B_4;
position = "{256, 508}";
},
{
name = b.uni0324_5;
position = "{240, 0}";
}
);
layerId = "AC2035D7-313F-43E0-B352-008DE9991D96";
shapes = (
{
closed = 1;
nodes = (
(368,500,l),
(404,495,o),
(431,468,o),
(431,417,cs),
(431,341,o),
(367,268,o),
(247,200,c),
(294,133,o),
(343,65,o),
(396,0,c),
(396,-3,l),
(379,-12,l),
(375,-10,l),
(320,58,o),
(271,127,o),
(219,198,c),
(221,207,l),
(341,275,o),
(410,342,o),
(410,414,cs),
(410,461,o),
(381,476,o),
(364,476,cs),
(338,476,o),
(302,445,o),
(257,382,cs),
(211,319,o),
(156,228,o),
(93,107,c),
(107,206,l),
(121,206,l),
(206,354,o),
(274,463,o),
(351,499,c)
);
},
{
closed = 1;
nodes = (
(191,767,l),
(95,0,l),
(67,-4,l),
(163,762,l)
);
}
);
width = 465;
}
);
leftKerningGroup = b2;
rightKerningGroup = k;
unicode = 107;
},
{
glyphname = l;
layers = (
{
anchors = (
{
name = m.fi;
position = "{200, 764}";
},
{
name = m.uni031B_4;
position = "{429, 384}";
},
{
name = b.uni0324_5;
position = "{115, 0}";
}
);
layerId = "52170CEE-5BA0-420B-B358-B20FB7EDC86A";
shapes = (
{
closed = 1;
nodes = (
(304,769,l),
(214,8,l),
(19,-4,l),
(108,757,l)
);
}
);
width = 292;
},
{
anchors = (
{
name = m.fi;
position = "{200, 764}";
},
{
name = m.uni031B_4;
position = "{429, 384}";
},
{
name = b.uni0324_5;
position = "{115, 0}";
}
);
layerId = "C64F1ECC-30E2-4AB6-9CDD-B17FE72FA4E1";
shapes = (
{
closed = 1;
nodes = (
(236,769,l),
(140,3,l),
(47,-4,l),
(143,761,l)
);
}
);
width = 251;
},
{
anchors = (
{
name = m.fi;
position = "{188, 764}";
},
{
name = m.uni031B_4;
position = "{377, 424}";
},
{
name = b.uni0324_5;
position = "{100, 0}";
}
);
layerId = "AC2035D7-313F-43E0-B352-008DE9991D96";
shapes = (
{
closed = 1;
nodes = (
(190,767,l),
(94,0,l),
(66,-4,l),
(162,762,l)
);
}
);
width = 221;
}
);
leftKerningGroup = b2;
rightKerningGroup = d;
unicode = 108;
},
{
glyphname = m;
layers = (
{
anchors = (
{
name = m.fi;
position = "{467, 515}";
},
{
name = b.uni0324_5;
position = "{404, 0}";
}
);
layerId = "52170CEE-5BA0-420B-B358-B20FB7EDC86A";
shapes = (
{
closed = 1;
nodes = (
(699,518,l),
(791,503,o),
(847,456,o),
(846,396,c),
(845,381,l),
(800,8,l),
(601,-4,l),
(648,283,l),
(649,294,l),
(649,311,o),
(643,318,o),
(631,318,cs),
(619,318,o),
(603,307,o),
(581,284,cs),
(558,261,o),
(532,223,o),
(502,170,c),
(541,378,l),
(562,378,l),
(602,429,o),
(642,476,o),
(685,517,c)
);
},
{
closed = 1;
nodes = (
(266,520,l),
(211,8,l),
(16,-4,l),
(72,508,l)
);
},
{
closed = 1;
nodes = (
(403,518,l),
(495,503,o),
(550,456,o),
(549,396,c),
(548,381,l),
(503,8,l),
(304,-4,l),
(351,283,l),
(352,294,l),
(352,311,o),
(346,318,o),
(334,318,cs),
(322,318,o),
(306,307,o),
(284,284,cs),
(261,261,o),
(235,223,o),
(205,170,c),
(244,378,l),
(265,378,l),
(306,429,o),
(345,476,o),
(389,517,c)
);
}
);
width = 873;
},
{
anchors = (
{
name = m.fi;
position = "{467, 515}";
},
{
name = b.uni0324_5;
position = "{404, 0}";
}
);
layerId = "C64F1ECC-30E2-4AB6-9CDD-B17FE72FA4E1";
shapes = (
{
closed = 1;
nodes = (
(642,508,l),
(693,497,o),
(733,465,o),
(732,413,c),
(731,399,l),
(680,3,l),
(585,-4,l),
(644,365,l),
(645,378,l),
(645,395,o),
(642,406,o),
(626,406,cs),
(605,406,o),
(575,380,o),
(537,328,cs),
(499,275,o),
(456,196,o),
(407,90,c),
(430,271,l),
(448,271,l),
(516,388,o),
(567,459,o),
(630,508,c)
);
},
{
closed = 1;
nodes = (
(198,507,l),
(139,3,l),
(45,-4,l),
(107,499,l)
);
},
{
closed = 1;
nodes = (
(369,508,l),
(420,497,o),
(460,465,o),
(459,413,c),
(458,399,l),
(407,3,l),
(312,-4,l),
(371,365,l),
(372,378,l),
(372,395,o),
(369,406,o),
(353,406,cs),
(332,406,o),
(302,380,o),
(264,328,cs),
(226,275,o),
(183,196,o),
(134,90,c),
(157,271,l),
(175,271,l),
(243,388,o),
(294,459,o),
(357,508,c)
);
}
);
width = 787;
},
{
anchors = (
{
name = m.fi;
position = "{452, 508}";
},
{
name = b.uni0324_5;
position = "{389, 0}";
}
);
layerId = "AC2035D7-313F-43E0-B352-008DE9991D96";
shapes = (
{
closed = 1;
nodes = (
(636,505,l),
(669,494,o),
(694,459,o),
(691,412,cs),
(690,397,l),
(630,0,l),
(603,-4,l),
(667,394,l),
(668,411,l),
(669,448,o),
(650,476,o),
(631,476,cs),
(613,476,o),
(580,444,o),
(531,380,cs),
(482,316,o),
(427,225,o),
(364,107,c),
(377,201,l),
(392,201,l),
(477,348,o),
(548,454,o),
(624,505,c)
);
},
{
closed = 1;
nodes = (
(154,498,l),
(94,0,l),
(67,-4,l),
(127,494,l)
);
},
{
closed = 1;
nodes = (
(364,505,l),
(397,494,o),
(424,459,o),
(420,412,cs),
(419,397,l),
(358,0,l),
(331,-4,l),
(396,394,l),
(397,411,l),
(397,448,o),
(378,476,o),
(359,476,cs),
(341,476,o),
(308,444,o),
(260,380,cs),
(211,316,o),
(156,225,o),
(93,107,c),
(106,201,l),
(120,201,l),
(207,348,o),
(276,454,o),
(352,505,c)
);
}
);
width = 757;
}
);
leftKerningGroup = m;
rightKerningGroup = a;
unicode = 109;
},
{
glyphname = n;
layers = (
{
anchors = (
{
name = m.fi;
position = "{319, 515}";
},
{
name = b.uni0324_5;
position = "{256, 0}";
}
);
layerId = "52170CEE-5BA0-420B-B358-B20FB7EDC86A";
shapes = (
{
closed = 1;
nodes = (
(302,-4,l),
(351,283,l),
(352,294,l),
(352,311,o),
(345,318,o),
(333,318,cs),
(321,318,o),
(305,307,o),
(283,284,cs),
(260,261,o),
(234,223,o),
(204,170,c),
(242,378,l),
(264,378,l),
(305,429,o),
(344,476,o),
(388,517,c),
(402,518,l),
(429,512,o),
(453,505,o),
(476,494,c),
(520,471,o),
(550,437,o),
(549,396,c),
(548,381,l),
(502,8,l)
);
},
{
closed = 1;
nodes = (
(16,-4,l),
(72,508,l),
(266,520,l),
(211,8,l)
);
}
);
width = 574;
},
{
anchors = (
{
name = m.fi;
position = "{319, 515}";
},
{
name = b.uni0324_5;
position = "{256, 0}";
}
);
layerId = "C64F1ECC-30E2-4AB6-9CDD-B17FE72FA4E1";
shapes = (
{
closed = 1;
nodes = (
(312,-4,l),
(371,365,l),
(372,378,l),
(372,395,o),
(369,406,o),
(353,406,cs),
(332,406,o),
(302,380,o),
(264,328,cs),
(226,275,o),
(183,196,o),
(134,90,c),
(157,271,l),
(175,271,l),
(243,388,o),
(294,459,o),
(357,508,c),
(369,508,l),
(386,504,o),
(401,498,o),
(415,490,cs),
(443,473,o),
(460,448,o),
(459,413,c),
(458,399,l),
(407,3,l)
);
},
{
closed = 1;
nodes = (
(45,-4,l),
(107,499,l),
(198,507,l),
(139,3,l)
);
}
);
width = 514;
},
{
anchors = (
{
name = m.fi;
position = "{307, 508}";
},
{
name = b.uni0324_5;
position = "{244, 0}";
}
);
layerId = "AC2035D7-313F-43E0-B352-008DE9991D96";
shapes = (
{
closed = 1;
nodes = (
(332,-4,l),
(396,394,l),
(397,411,ls),
(400,448,o),
(380,476,o),
(360,476,cs),
(342,476,o),
(309,444,o),
(260,380,cs),
(211,316,o),
(156,225,o),
(93,107,c),
(106,201,l),
(120,201,l),
(207,348,o),
(277,454,o),
(353,505,c),
(365,505,l),
(376,502,o),
(386,496,o),
(395,487,cs),
(411,469,o),
(423,443,o),
(420,412,c),
(419,397,l),
(359,0,l)
);
},
{
closed = 1;
nodes = (
(67,-4,l),
(127,494,l),
(154,498,l),
(94,0,l)
);
}
);
width = 486;
}
);
leftKerningGroup = m;
rightKerningGroup = a;
unicode = 110;
},
{
glyphname = o;
layers = (
{
anchors = (
{
name = m.fi;
position = "{292, 515}";
},
{
name = m.uni01EB_1;
position = "{373, 49}";
},
{
name = b.uni049C_3;
position = "{257, 258}";
},
{
name = m.uni031B_4;
position = "{522, 515}";
},
{
name = b.uni0324_5;
position = "{225, 0}";
}
);
layerId = "52170CEE-5BA0-420B-B358-B20FB7EDC86A";
shapes = (
{
closed = 1;
nodes = (
(334,526,l),
(434,505,o),
(499,441,o),
(499,329,cs),
(499,259,o),
(487,199,o),
(462,150,cs),
(413,49,o),
(320,-5,o),
(194,-13,c),
(177,-11,l),
(76,12,o),
(13,79,o),
(13,200,cs),
(13,264,o),
(25,321,o),
(50,369,cs),
(99,465,o),
(193,521,o),
(317,529,c)
);
},
{
closed = 1;
nodes = (
(256,379,o),
(238,372,o),
(227,360,cs),
(204,335,o),
(200,284,o),
(200,195,cs),
(200,146,o),
(207,132,o),
(234,132,cs),
(257,132,o),
(273,139,o),
(284,151,cs),
(306,176,o),
(310,228,o),
(310,317,cs),
(310,365,o),
(304,379,o),
(278,379,cs)
);
}
);
width = 512;
},
{
anchors = (
{
name = m.fi;
position = "{292, 515}";
},
{
name = m.uni01EB_1;
position = "{373, 49}";
},
{
name = b.uni049C_3;
position = "{257, 258}";
},
{
name = m.uni031B_4;
position = "{522, 515}";
},
{
name = b.uni0324_5;
position = "{225, 0}";
}
);
layerId = "C64F1ECC-30E2-4AB6-9CDD-B17FE72FA4E1";
shapes = (
{
closed = 1;
nodes = (
(294,510,l),
(374,495,o),
(416,445,o),
(416,342,cs),
(416,275,o),
(406,215,o),
(387,164,cs),
(348,61,o),
(276,-1,o),
(173,-10,c),
(163,-9,l),
(79,7,o),
(37,58,o),
(37,166,cs),
(37,231,o),
(47,289,o),
(67,340,cs),
(107,441,o),
(181,505,o),
(284,510,c)
);
},
{
closed = 1;
nodes = (
(234,436,o),
(207,425,o),
(186,403,cs),
(143,358,o),
(122,275,o),
(122,166,cs),
(122,94,o),
(141,63,o),
(186,63,cs),
(218,63,o),
(245,74,o),
(266,97,cs),
(308,142,o),
(329,226,o),
(329,335,cs),
(329,408,o),
(310,436,o),
(266,436,cs)
);
}
);
width = 452;
},
{
anchors = (
{
name = m.fi;
position = "{275, 508}";
},
{
name = m.uni01EB_1;
position = "{318, 27}";
},
{
name = b.uni049C_3;
position = "{247, 253}";
},
{
name = m.uni031B_4;
position = "{502, 508}";
},
{
name = b.uni0324_5;
position = "{215, 0}";
}
);
layerId = "AC2035D7-313F-43E0-B352-008DE9991D96";
shapes = (
{
closed = 1;
nodes = (
(276,500,l),
(349,495,o),
(380,449,o),
(380,349,cs),
(380,283,o),
(371,224,o),
(354,171,cs),
(319,66,o),
(252,0,o),
(163,-7,c),
(157,-7,l),
(86,-2,o),
(52,45,o),
(52,146,cs),
(52,213,o),
(61,273,o),
(79,326,cs),
(114,432,o),
(180,499,o),
(271,500,c)
);
},
{
closed = 1;
nodes = (
(232,477,o),
(198,463,o),
(168,434,cs),
(108,377,o),
(74,275,o),
(74,150,cs),
(74,59,o),
(102,16,o),
(162,16,cs),
(200,16,o),
(234,31,o),
(264,60,cs),
(323,118,o),
(357,221,o),
(357,346,cs),
(357,437,o),
(331,477,o),
(271,477,cs)
);
}
);
width = 432;
}
);
leftKerningGroup = a2;
rightKerningGroup = b;
unicode = 111;
},
{
glyphname = p;
layers = (
{
anchors = (
{
name = m.fi;
position = "{300, 515}";
},
{
name = b.uni0324_5;
position = "{237, 0}";
}
);
layerId = "52170CEE-5BA0-420B-B358-B20FB7EDC86A";
shapes = (
{
closed = 1;
nodes = (
(379,522,l),
(492,495,o),
(527,435,o),
(527,340,cs),
(527,270,o),
(507,198,o),
(464,133,cs),
(422,69,o),
(357,17,o),
(271,-12,c),
(263,-12,l),
(56,25,l),
(161,167,l),
(301,130,l),
(318,130,o),
(329,143,o),
(337,166,cs),
(345,188,o),
(349,221,o),
(349,260,cs),
(349,292,o),
(347,314,o),
(343,329,cs),
(339,343,o),
(333,349,o),
(327,349,cs),
(318,349,o),
(308,342,o),
(296,325,cs),
(273,294,o),
(242,229,o),
(203,134,c),
(237,391,l),
(269,391,l),
(294,438,o),
(320,482,o),
(354,522,c)
);
},
{
closed = 1;
nodes = (
(266,520,l),
(183,-202,l),
(-11,-214,l),
(72,508,l)
);
}
);
width = 536;
},
{
anchors = (
{
name = m.fi;
position = "{300, 515}";
},
{
name = b.uni0324_5;
position = "{237, 0}";
}
);
layerId = "C64F1ECC-30E2-4AB6-9CDD-B17FE72FA4E1";
shapes = (
{
closed = 1;
nodes = (
(361,510,l),
(417,478,o),
(449,422,o),
(449,334,cs),
(449,262,o),
(428,183,o),
(385,119,cs),
(342,54,o),
(278,6,o),
(191,-9,c),
(186,-9,l),
(70,19,l),
(114,93,l),
(211,66,l),
(259,66,o),
(299,93,o),
(325,138,cs),
(351,182,o),
(365,243,o),
(365,310,cs),
(365,349,o),
(362,376,o),
(355,389,cs),
(348,402,o),
(341,408,o),
(334,408,cs),
(326,408,o),
(312,397,o),
(292,375,cs),
(252,331,o),
(195,243,o),
(142,107,c),
(157,297,l),
(182,297,l),
(229,378,o),
(284,451,o),
(345,510,c)
);
},
{
closed = 1;
nodes = (
(199,507,l),
(111,-202,l),
(17,-210,l),
(108,499,l)
);
}
);
width = 480;
},
{
anchors = (
{
name = m.fi;
position = "{290, 508}";
},
{
name = b.uni0324_5;
position = "{227, 0}";
}
);
layerId = "AC2035D7-313F-43E0-B352-008DE9991D96";
shapes = (
{
closed = 1;
nodes = (
(355,496,l),
(392,465,o),
(412,429,o),
(412,346,cs),
(412,253,o),
(390,169,o),
(347,105,cs),
(303,41,o),
(242,0,o),
(159,-4,c),
(155,-4,l),
(80,14,l),
(84,36,l),
(158,17,l),
(231,17,o),
(288,56,o),
(328,117,cs),
(368,177,o),
(390,257,o),
(390,341,cs),
(390,388,o),
(385,421,o),
(374,439,cs),
(363,456,o),
(354,465,o),
(347,465,cs),
(342,465,o),
(327,451,o),
(301,423,cs),
(248,366,o),
(169,256,o),
(94,104,c),
(115,195,l),
(120,195,l),
(185,318,o),
(266,425,o),
(343,496,c)
);
},
{
closed = 1;
nodes = (
(154,498,l),
(70,-202,l),
(43,-206,l),
(127,494,l)
);
}
);
width = 461;
}
);
leftKerningGroup = p;
rightKerningGroup = b;
unicode = 112;
},
{
glyphname = q;
layers = (
{
layerId = "52170CEE-5BA0-420B-B358-B20FB7EDC86A";
shapes = (
{
closed = 1;
nodes = (
(282,522,l),
(479,488,l),
(376,347,l),
(245,380,l),
(226,380,o),
(211,369,o),
(201,347,cs),
(191,325,o),
(187,293,o),
(187,249,cs),
(187,230,o),
(188,214,o),
(190,202,cs),
(194,176,o),
(201,165,o),
(210,165,cs),
(218,165,o),
(228,173,o),
(240,189,cs),
(262,219,o),
(293,283,o),
(332,380,c),
(287,117,l),
(266,117,l),
(244,72,o),
(216,27,o),
(182,-12,c),
(157,-12,l),
(117,-2,o),
(86,12,o),
(66,29,c),
(22,63,o),
(8,111,o),
(8,169,cs),
(8,236,o),
(28,308,o),
(72,373,cs),
(115,438,o),
(182,491,o),
(274,522,c)
);
},
{
closed = 1;
nodes = (
(507,529,l),
(519,520,l),
(436,-202,l),
(241,-214,l),
(328,491,l)
);
}
);
width = 535;
},
{
layerId = "C64F1ECC-30E2-4AB6-9CDD-B17FE72FA4E1";
shapes = (
{
closed = 1;
nodes = (
(295,510,l),
(402,466,l),
(366,395,l),
(270,435,l),
(222,435,o),
(183,407,o),
(157,363,cs),
(131,319,o),
(116,258,o),
(116,191,cs),
(116,165,o),
(118,145,o),
(121,131,cs),
(128,102,o),
(137,93,o),
(146,93,cs),
(154,93,o),
(168,104,o),
(188,126,cs),
(228,169,o),
(284,260,o),
(339,393,c),
(323,204,l),
(298,204,l),
(251,124,o),
(196,51,o),
(137,-9,c),
(120,-9,l),
(101,2,o),
(85,16,o),
(72,32,cs),
(45,64,o),
(33,108,o),
(33,167,cs),
(33,240,o),
(53,317,o),
(96,382,cs),
(139,446,o),
(204,495,o),
(289,510,c)
);
},
{
closed = 1;
nodes = (
(422,510,l),
(432,503,l),
(345,-202,l),
(251,-210,l),
(342,471,l)
);
}
);
width = 482;
},
{
layerId = "AC2035D7-313F-43E0-B352-008DE9991D96";
shapes = (
{
closed = 1;
nodes = (
(305,496,l),
(384,492,l),
(380,471,l),
(301,474,l),
(230,474,o),
(173,435,o),
(134,375,cs),
(94,315,o),
(72,234,o),
(72,151,cs),
(72,120,o),
(75,95,o),
(80,77,cs),
(90,40,o),
(106,26,o),
(114,26,cs),
(119,26,o),
(134,40,o),
(161,69,cs),
(213,125,o),
(291,235,o),
(366,388,c),
(345,296,l),
(340,296,l),
(273,173,o),
(194,65,o),
(117,-4,c),
(105,-4,l),
(92,5,o),
(82,15,o),
(74,28,cs),
(57,53,o),
(49,90,o),
(49,145,cs),
(49,238,o),
(71,323,o),
(114,387,cs),
(157,451,o),
(220,491,o),
(300,496,c)
);
},
{
closed = 1;
nodes = (
(385,501,l),
(391,498,l),
(307,-202,l),
(280,-206,l),
(365,489,l)
);
}
);
width = 460;
}
);
leftKerningGroup = a2;
rightKerningGroup = g;
unicode = 113;
},
{
glyphname = r;
layers = (
{
anchors = (
{
name = m.fi;
position = "{260, 515}";
},
{
name = b.uni0324_5;
position = "{120, 0}";
}
);
layerId = "52170CEE-5BA0-420B-B358-B20FB7EDC86A";
shapes = (
{
closed = 1;
nodes = (
(435,513,l),
(404,276,l),
(387,269,l),
(347,276,l),
(320,275,o),
(296,269,o),
(274,257,cs),
(252,245,o),
(229,227,o),
(202,198,c),
(228,385,l),
(268,385,l),
(307,446,o),
(346,487,o),
(403,519,c)
);
},
{
closed = 1;
nodes = (
(266,520,l),
(211,8,l),
(16,-4,l),
(72,508,l)
);
}
);
width = 422;
},
{
anchors = (
{
name = m.fi;
position = "{260, 515}";
},
{
name = b.uni0324_5;
position = "{120, 0}";
}
);
layerId = "C64F1ECC-30E2-4AB6-9CDD-B17FE72FA4E1";
shapes = (
{
closed = 1;
nodes = (
(383,505,l),
(365,379,l),
(357,375,l),
(348,376,l),
(313,371,o),
(281,353,o),
(248,309,cs),
(215,265,o),
(177,192,o),
(132,73,c),
(154,278,l),
(174,278,l),
(218,366,o),
(272,439,o),
(355,507,c)
);
},
{
closed = 1;
nodes = (
(197,507,l),
(138,3,l),
(44,-4,l),
(106,499,l)
);
}
);
width = 359;
},
{
anchors = (
{
name = m.fi;
position = "{246, 508}";
},
{
name = b.uni0324_5;
position = "{117, 0}";
}
);
layerId = "AC2035D7-313F-43E0-B352-008DE9991D96";
shapes = (
{
closed = 1;
nodes = (
(356,491,l),
(353,470,l),
(349,467,l),
(337,470,l),
(309,465,o),
(271,430,o),
(230,367,cs),
(189,303,o),
(142,210,o),
(94,90,c),
(105,198,l),
(119,198,l),
(199,379,o),
(279,483,o),
(339,494,c)
);
},
{
closed = 1;
nodes = (
(152,498,l),
(93,0,l),
(67,-4,l),
(127,494,l)
);
}
);
width = 335;
}
);
leftKerningGroup = m;
rightKerningGroup = r;
unicode = 114;
},
{
glyphname = s;
layers = (
{
anchors = (
{
name = m.fi;
position = "{256, 515}";
},
{
name = b.uni0324_5;
position = "{189, 0}";
}
);
layerId = "52170CEE-5BA0-420B-B358-B20FB7EDC86A";
shapes = (
{
closed = 1;
nodes = (
(334,520,o),
(379,511,o),
(423,498,c),
(378,347,l),
(353,337,l),
(312,378,o),
(265,399,o),
(236,399,cs),
(230,399,o),
(226,397,o),
(223,396,cs),
(214,392,o),
(211,387,o),
(211,378,cs),
(211,357,o),
(238,343,o),
(273,325,cs),
(290,317,o),
(308,306,o),
(325,294,cs),
(360,269,o),
(388,234,o),
(388,178,cs),
(388,141,o),
(377,108,o),
(355,80,cs),
(310,23,o),
(232,-12,o),
(139,-12,c),
(86,-7,o),
(37,2,o),
(-14,16,c),
(32,176,l),
(51,186,l),
(94,137,o),
(152,109,o),
(188,109,cs),
(198,109,o),
(205,111,o),
(210,117,cs),
(214,121,o),
(216,126,o),
(216,130,cs),
(216,147,o),
(188,164,o),
(152,182,cs),
(133,192,o),
(116,203,o),
(98,216,cs),
(62,242,o),
(34,276,o),
(35,328,cs),
(36,370,o),
(49,405,o),
(73,435,cs),
(121,492,o),
(202,524,o),
(289,524,c)
);
}
);
width = 422;
},
{
anchors = (
{
name = m.fi;
position = "{256, 515}";
},
{
name = b.uni0324_5;
position = "{189, 0}";
}
);
layerId = "C64F1ECC-30E2-4AB6-9CDD-B17FE72FA4E1";
shapes = (
{
closed = 1;
nodes = (
(275,502,o),
(306,492,o),
(337,480,c),
(311,395,l),
(297,391,l),
(269,426,o),
(236,443,o),
(207,443,cs),
(194,443,o),
(183,440,o),
(172,433,cs),
(150,420,o),
(135,397,o),
(135,372,cs),
(135,341,o),
(160,319,o),
(193,298,cs),
(209,287,o),
(225,275,o),
(242,262,c),
(274,235,o),
(299,203,o),
(299,152,cs),
(299,121,o),
(291,94,o),
(275,70,cs),
(242,22,o),
(182,-8,o),
(106,-9,c),
(65,-2,o),
(32,8,o),
(-7,28,c),
(17,117,l),
(31,122,l),
(62,79,o),
(101,56,o),
(138,56,cs),
(161,56,o),
(180,63,o),
(194,78,cs),
(207,93,o),
(214,109,o),
(214,128,cs),
(214,161,o),
(188,186,o),
(156,208,cs),
(140,219,o),
(124,230,o),
(108,243,cs),
(75,268,o),
(49,301,o),
(49,352,cs),
(49,383,o),
(58,411,o),
(76,435,cs),
(112,482,o),
(173,510,o),
(244,509,c)
);
}
);
width = 348;
},
{
anchors = (
{
name = m.fi;
position = "{247, 508}";
},
{
name = b.uni0324_5;
position = "{179, 0}";
}
);
layerId = "AC2035D7-313F-43E0-B352-008DE9991D96";
shapes = (
{
closed = 1;
nodes = (
(257,494,o),
(283,486,o),
(305,475,c),
(297,454,l),
(290,453,l),
(265,469,o),
(240,475,o),
(215,475,cs),
(192,475,o),
(171,470,o),
(152,459,cs),
(115,438,o),
(94,404,o),
(94,369,cs),
(94,330,o),
(121,302,o),
(155,277,cs),
(172,264,o),
(189,251,o),
(207,238,c),
(242,210,o),
(268,178,o),
(268,131,cs),
(268,106,o),
(261,84,o),
(248,63,c),
(220,22,o),
(170,-4,o),
(105,-7,c),
(64,0,o),
(35,12,o),
(11,31,c),
(14,50,l),
(22,55,l),
(46,34,o),
(75,16,o),
(118,16,cs),
(155,16,o),
(186,27,o),
(210,50,cs),
(233,73,o),
(245,99,o),
(245,128,cs),
(245,172,o),
(219,201,o),
(184,227,cs),
(167,240,o),
(150,252,o),
(133,265,cs),
(99,290,o),
(72,322,o),
(72,367,cs),
(72,392,o),
(79,414,o),
(92,434,cs),
(119,473,o),
(167,498,o),
(226,497,c)
);
}
);
width = 334;
}
);
leftKerningGroup = s2;
rightKerningGroup = s;
unicode = 115;
},
{
glyphname = t;
layers = (
{
anchors = (
{
name = m.fi;
position = "{223, 587}";
},
{
name = b.uni049C_3;
position = "{199, 258}";
},
{
name = m.uni031B_4;
position = "{442, 515}";
},
{
name = b.uni0324_5;
position = "{213, 0}";
}
);
layerId = "52170CEE-5BA0-420B-B358-B20FB7EDC86A";
shapes = (
{
closed = 1;
nodes = (
(118,-11,o),
(60,39,o),
(63,117,c),
(124,612,l),
(310,653,l),
(323,642,l),
(253,181,l),
(252,173,l),
(252,167,o),
(257,163,o),
(262,163,cs),
(266,163,o),
(271,165,o),
(275,170,cs),
(280,175,o),
(289,188,o),
(306,210,c),
(320,211,l),
(376,142,l),
(354,102,o),
(330,69,o),
(302,44,cs),
(275,19,o),
(245,0,o),
(211,-11,c)
);
},
{
closed = 1;
nodes = (
(35,395,l),
(25,407,l),
(37,506,l),
(410,506,l),
(423,490,l),
(411,395,l)
);
}
);
width = 400;
},
{
anchors = (
{
name = m.fi;
position = "{223, 587}";
},
{
name = b.uni049C_3;
position = "{199, 258}";
},
{
name = m.uni031B_4;
position = "{442, 515}";
},
{
name = b.uni0324_5;
position = "{213, 0}";
}
);
layerId = "C64F1ECC-30E2-4AB6-9CDD-B17FE72FA4E1";
shapes = (
{
closed = 1;
nodes = (
(116,-8,o),
(81,28,o),
(82,87,c),
(157,608,l),
(242,648,l),
(249,641,l),
(166,127,l),
(164,109,l),
(164,90,o),
(172,78,o),
(191,78,cs),
(204,78,o),
(217,84,o),
(232,97,cs),
(247,110,o),
(264,130,o),
(283,159,c),
(293,159,l),
(319,127,l),
(294,84,o),
(271,53,o),
(250,33,cs),
(229,13,o),
(205,-1,o),
(179,-8,c)
);
},
{
closed = 1;
nodes = (
(62,430,l),
(56,437,l),
(62,491,l),
(354,491,l),
(361,483,l),
(355,430,l)
);
}
);
width = 365;
},
{
anchors = (
{
name = m.fi;
position = "{207, 571}";
},
{
name = b.uni049C_3;
position = "{189, 253}";
},
{
name = m.uni031B_4;
position = "{394, 508}";
},
{
name = b.uni0324_5;
position = "{199, 0}";
}
);
layerId = "AC2035D7-313F-43E0-B352-008DE9991D96";
shapes = (
{
closed = 1;
nodes = (
(117,-5,o),
(92,21,o),
(92,70,c),
(180,633,l),
(204,644,l),
(207,641,l),
(116,95,l),
(114,73,l),
(114,37,o),
(130,16,o),
(157,16,cs),
(172,16,o),
(190,26,o),
(210,47,cs),
(230,68,o),
(250,96,o),
(270,131,c),
(277,131,l),
(287,118,l),
(261,76,o),
(239,46,o),
(222,29,cs),
(204,11,o),
(184,0,o),
(162,-5,c)
);
},
{
closed = 1;
nodes = (
(79,468,l),
(74,473,l),
(78,490,l),
(340,490,l),
(343,486,l),
(340,468,l)
);
}
);
width = 345;
}
);
leftKerningGroup = t2;
rightKerningGroup = t;
unicode = 116;
},
{
glyphname = u;
layers = (
{
anchors = (
{
name = m.fi;
position = "{312, 515}";
},
{
name = m.uni01EB_1;
position = "{489, 8}";
},
{
name = b.tailcy_2;
position = "{295, -4}";
},
{
name = m.uni031B_4;
position = "{571, 515}";
},
{
name = b.uni0324_5;
position = "{249, 0}";
}
);
layerId = "52170CEE-5BA0-420B-B358-B20FB7EDC86A";
shapes = (
{
closed = 1;
nodes = (
(255,518,l),
(219,233,l),
(218,218,l),
(218,201,o),
(225,193,o),
(238,193,cs),
(250,193,o),
(266,205,o),
(287,229,cs),
(308,252,o),
(333,290,o),
(365,344,c),
(339,127,l),
(298,127,l),
(262,79,o),
(227,37,o),
(185,-3,c),
(170,-4,l),
(78,8,o),
(20,52,o),
(20,115,c),
(22,137,l),
(57,506,l)
);
},
{
closed = 1;
nodes = (
(545,520,l),
(489,8,l),
(295,-4,l),
(351,508,l)
);
}
);
width = 561;
},
{
anchors = (
{
name = m.fi;
position = "{312, 515}";
},
{
name = m.uni01EB_1;
position = "{489, 8}";
},
{
name = b.tailcy_2;
position = "{295, -4}";
},
{
name = m.uni031B_4;
position = "{571, 515}";
},
{
name = b.uni0324_5;
position = "{249, 0}";
}
);
layerId = "C64F1ECC-30E2-4AB6-9CDD-B17FE72FA4E1";
shapes = (
{
closed = 1;
nodes = (
(200,509,l),
(144,149,l),
(142,124,l),
(141,105,o),
(150,98,o),
(162,98,cs),
(183,98,o),
(212,125,o),
(250,178,cs),
(288,231,o),
(331,310,o),
(380,415,c),
(357,230,l),
(340,230,l),
(272,115,o),
(220,48,o),
(157,-3,c),
(145,-3,l),
(96,8,o),
(55,39,o),
(56,92,c),
(57,106,l),
(109,501,l)
);
},
{
closed = 1;
nodes = (
(467,507,l),
(408,3,l),
(314,-4,l),
(376,499,l)
);
}
);
width = 518;
},
{
anchors = (
{
name = m.fi;
position = "{300, 508}";
},
{
name = m.uni01EB_1;
position = "{449, 4}";
},
{
name = b.tailcy_2;
position = "{321, -4}";
},
{
name = m.uni031B_4;
position = "{549, 508}";
},
{
name = b.uni0324_5;
position = "{238, 0}";
}
);
layerId = "AC2035D7-313F-43E0-B352-008DE9991D96";
shapes = (
{
closed = 1;
nodes = (
(163,497,l),
(98,98,l),
(97,82,l),
(96,46,o),
(115,16,o),
(134,16,cs),
(153,16,o),
(187,48,o),
(236,113,cs),
(285,177,o),
(340,268,o),
(402,385,c),
(389,292,l),
(375,292,l),
(290,144,o),
(219,39,o),
(142,-12,c),
(130,-12,l),
(97,-1,o),
(73,36,o),
(74,81,c),
(75,95,l),
(135,492,l)
);
},
{
closed = 1;
nodes = (
(428,498,l),
(368,0,l),
(341,-4,l),
(401,494,l)
);
}
);
width = 496;
}
);
leftKerningGroup = t2;
rightKerningGroup = u;
unicode = 117;
},
{
glyphname = v;
layers = (
{
layerId = "52170CEE-5BA0-420B-B358-B20FB7EDC86A";
shapes = (
{
closed = 1;
nodes = (
(506,523,l),
(515,494,o),
(521,465,o),
(521,438,cs),
(521,385,o),
(503,332,o),
(470,270,cs),
(323,0,l),
(99,0,l),
(34,509,l),
(228,520,l),
(239,200,l),
(254,200,l),
(306,318,ls),
(323,358,o),
(333,391,o),
(333,422,cs),
(333,442,o),
(329,464,o),
(319,483,c),
(328,501,l)
);
}
);
width = 515;
},
{
layerId = "C64F1ECC-30E2-4AB6-9CDD-B17FE72FA4E1";
shapes = (
{
closed = 1;
nodes = (
(417,508,l),
(433,480,o),
(441,451,o),
(441,420,cs),
(441,377,o),
(424,332,o),
(393,277,cs),
(232,0,l),
(130,0,l),
(75,499,l),
(167,507,l),
(195,98,l),
(203,98,l),
(319,302,ls),
(340,341,o),
(353,374,o),
(353,403,cs),
(353,430,o),
(344,453,o),
(328,476,c),
(331,488,l)
);
}
);
width = 450;
},
{
layerId = "AC2035D7-313F-43E0-B352-008DE9991D96";
shapes = (
{
closed = 1;
nodes = (
(367,497,l),
(388,467,o),
(399,437,o),
(399,407,cs),
(399,371,o),
(383,329,o),
(354,282,cs),
(175,0,l),
(152,0,l),
(98,491,l),
(123,498,l),
(169,33,l),
(173,33,l),
(335,293,ls),
(363,338,o),
(377,376,o),
(377,408,cs),
(377,436,o),
(365,460,o),
(346,485,c),
(347,490,l)
);
}
);
width = 417;
}
);
leftKerningGroup = v2;
rightKerningGroup = v;
unicode = 118;
},
{
glyphname = w;
layers = (
{
anchors = (
{
name = m.fi;
position = "{438, 515}";
}
);
layerId = "52170CEE-5BA0-420B-B358-B20FB7EDC86A";
shapes = (
{
closed = 1;
nodes = (
(634,0,l),
(418,0,l),
(406,254,l),
(390,254,l),
(306,0,l),
(93,0,l),
(34,509,l),
(226,520,l),
(228,217,l),
(245,217,l),
(340,515,l),
(546,515,l),
(551,218,l),
(567,218,l),
(606,318,ls),
(622,358,o),
(633,391,o),
(633,422,cs),
(633,442,o),
(629,464,o),
(619,483,c),
(628,501,l),
(806,523,l),
(816,494,o),
(821,465,o),
(821,438,cs),
(821,385,o),
(803,332,o),
(771,270,cs)
);
}
);
width = 816;
},
{
anchors = (
{
name = m.fi;
position = "{438, 515}";
}
);
layerId = "C64F1ECC-30E2-4AB6-9CDD-B17FE72FA4E1";
shapes = (
{
closed = 1;
nodes = (
(542,0,l),
(444,0,l),
(407,377,l),
(399,377,l),
(234,0,l),
(133,0,l),
(75,499,l),
(166,507,l),
(198,105,l),
(206,105,l),
(376,502,l),
(473,502,l),
(507,105,l),
(514,105,l),
(619,302,l),
(639,342,o),
(653,374,o),
(653,403,cs),
(653,430,o),
(644,453,o),
(628,476,c),
(631,488,l),
(717,508,l),
(733,480,o),
(741,451,o),
(741,420,cs),
(741,377,o),
(722,332,o),
(693,277,cs)
);
}
);
width = 750;
},
{
anchors = (
{
name = m.fi;
position = "{420, 508}";
}
);
layerId = "AC2035D7-313F-43E0-B352-008DE9991D96";
shapes = (
{
closed = 1;
nodes = (
(489,0,l),
(467,0,l),
(413,456,l),
(408,456,l),
(187,0,l),
(158,0,l),
(98,491,l),
(122,497,l),
(177,33,l),
(181,33,l),
(403,494,l),
(429,494,l),
(484,33,l),
(488,33,l),
(638,293,ls),
(662,336,o),
(679,376,o),
(679,408,cs),
(679,436,o),
(668,460,o),
(649,485,c),
(650,490,l),
(669,497,l),
(690,467,o),
(701,437,o),
(701,407,cs),
(701,371,o),
(685,330,o),
(656,282,cs)
);
}
);
width = 720;
}
);
leftKerningGroup = v2;
rightKerningGroup = v;
unicode = 119;
},
{
glyphname = x;
layers = (
{
layerId = "52170CEE-5BA0-420B-B358-B20FB7EDC86A";
shapes = (
{
closed = 1;
nodes = (
(390,254,l),
(503,4,l),
(284,-10,l),
(248,140,l),
(178,0,l),
(-34,0,l),
(141,264,l),
(44,510,l),
(256,526,l),
(296,390,l),
(360,515,l),
(565,515,l)
);
}
);
width = 549;
},
{
layerId = "C64F1ECC-30E2-4AB6-9CDD-B17FE72FA4E1";
shapes = (
{
closed = 1;
nodes = (
(299,253,l),
(423,4,l),
(322,-7,l),
(235,199,l),
(97,0,l),
(-4,0,l),
(185,260,l),
(74,497,l),
(171,508,l),
(254,320,l),
(384,501,l),
(483,501,l)
);
}
);
width = 485;
},
{
layerId = "AC2035D7-313F-43E0-B352-008DE9991D96";
shapes = (
{
closed = 1;
nodes = (
(245,250,l),
(379,4,l),
(356,-4,l),
(229,233,l),
(44,0,l),
(13,0,l),
(217,254,l),
(93,489,l),
(116,498,l),
(232,272,l),
(408,494,l),
(439,494,l)
);
}
);
width = 452;
}
);
rightKerningGroup = x;
unicode = 120;
},
{
glyphname = y;
layers = (
{
anchors = (
{
name = m.fi;
position = "{296, 515}";
},
{
name = b.uni0324_5;
position = "{449, 11}";
}
);
layerId = "52170CEE-5BA0-420B-B358-B20FB7EDC86A";
shapes = (
{
closed = 1;
nodes = (
(519,523,l),
(531,485,o),
(534,459,o),
(534,438,cs),
(534,380,o),
(520,330,o),
(486,270,c),
(377,54,ls),
(336,-27,o),
(295,-90,o),
(253,-132,cs),
(169,-217,o),
(75,-233,o),
(-52,-194,c),
(-45,-31,l),
(-28,-13,l),
(22,-24,o),
(64,-27,o),
(99,-23,c),
(168,-13,o),
(213,31,o),
(245,110,cs),
(319,297,ls),
(337,341,o),
(346,381,o),
(346,417,cs),
(346,444,o),
(342,466,o),
(332,483,c),
(341,501,l)
);
},
{
closed = 1;
nodes = (
(229,520,l),
(266,203,l),
(385,203,l),
(173,-112,l),
(34,509,l)
);
}
);
width = 530;
},
{
anchors = (
{
name = m.fi;
position = "{296, 515}";
},
{
name = b.uni0324_5;
position = "{449, 11}";
}
);
layerId = "C64F1ECC-30E2-4AB6-9CDD-B17FE72FA4E1";
shapes = (
{
closed = 1;
nodes = (
(422,508,l),
(439,473,o),
(447,446,o),
(447,419,cs),
(447,374,o),
(433,331,o),
(402,276,cs),
(251,8,ls),
(214,-59,o),
(178,-110,o),
(145,-145,cs),
(78,-215,o),
(10,-226,o),
(-83,-198,c),
(-80,-118,l),
(-70,-110,l),
(-31,-119,o),
(4,-121,o),
(33,-116,cs),
(91,-105,o),
(138,-58,o),
(187,35,cs),
(325,294,ls),
(348,336,o),
(360,375,o),
(360,412,cs),
(360,437,o),
(352,461,o),
(336,484,c),
(341,495,l)
);
},
{
closed = 1;
nodes = (
(152,507,l),
(213,107,l),
(268,107,l),
(169,-44,l),
(60,498,l)
);
}
);
width = 456;
},
{
anchors = (
{
name = m.fi;
position = "{274, 507}";
},
{
name = b.uni0324_5;
position = "{378, 8}";
}
);
layerId = "AC2035D7-313F-43E0-B352-008DE9991D96";
shapes = (
{
closed = 1;
nodes = (
(364,497,l),
(385,466,o),
(395,438,o),
(395,407,cs),
(395,371,o),
(382,330,o),
(353,282,cs),
(174,-21,ls),
(139,-79,o),
(108,-123,o),
(80,-154,cs),
(24,-214,o),
(-28,-224,o),
(-99,-200,c),
(-97,-179,l),
(-92,-177,l),
(-60,-188,o),
(-32,-191,o),
(-8,-186,cs),
(41,-175,o),
(89,-122,o),
(154,-11,cs),
(334,293,ls),
(360,336,o),
(373,375,o),
(373,408,cs),
(373,431,o),
(363,457,o),
(343,485,c),
(344,490,l)
);
},
{
closed = 1;
nodes = (
(106,498,l),
(183,46,l),
(197,46,l),
(170,0,l),
(81,491,l)
);
}
);
width = 414;
}
);
leftKerningGroup = v2;
rightKerningGroup = v;
unicode = 121;
},
{
glyphname = z;
layers = (
{
anchors = (
{
name = m.fi;
position = "{276, 515}";
},
{
name = b.uni0324_5;
position = "{212, 0}";
}
);
layerId = "52170CEE-5BA0-420B-B358-B20FB7EDC86A";
shapes = (
{
closed = 1;
nodes = (
(434,538,l),
(489,483,l),
(230,161,l),
(258,168,l),
(258,168,o),
(261,168,o),
(268,168,cs),
(281,168,o),
(297,168,o),
(298,168,cs),
(317,168,o),
(331,171,o),
(340,179,cs),
(348,186,o),
(355,203,o),
(360,233,c),
(383,239,l),
(460,219,l),
(459,159,o),
(452,114,o),
(438,81,cs),
(411,14,o),
(361,-11,o),
(300,-11,cs),
(275,-11,o),
(252,-8,o),
(232,-2,cs),
(188,10,o),
(152,25,o),
(118,25,cs),
(93,25,o),
(80,16,o),
(50,-9,c),
(26,-9,l),
(-31,45,l),
(214,355,l),
(56,355,l),
(40,368,l),
(73,503,l),
(92,515,l),
(389,515,l)
);
}
);
width = 487;
},
{
anchors = (
{
name = m.fi;
position = "{276, 515}";
},
{
name = b.uni0324_5;
position = "{212, 0}";
}
);
layerId = "C64F1ECC-30E2-4AB6-9CDD-B17FE72FA4E1";
shapes = (
{
closed = 1;
nodes = (
(395,522,l),
(424,491,l),
(120,91,l),
(153,98,l),
(163,98,o),
(174,96,o),
(186,93,c),
(210,85,o),
(235,75,o),
(254,75,cs),
(284,75,o),
(306,85,o),
(321,104,cs),
(335,123,o),
(343,157,o),
(345,206,c),
(359,214,l),
(404,191,l),
(403,145,o),
(396,107,o),
(383,78,c),
(358,18,o),
(313,-11,o),
(253,-11,cs),
(234,-11,o),
(215,-8,o),
(196,-2,cs),
(159,10,o),
(124,25,o),
(91,25,cs),
(66,25,o),
(47,18,o),
(23,-7,c),
(13,-7,l),
(-15,20,l),
(288,424,l),
(69,424,l),
(61,430,l),
(80,500,l),
(88,505,l),
(367,505,l)
);
}
);
width = 448;
},
{
anchors = (
{
name = m.fi;
position = "{266, 508}";
},
{
name = b.uni0324_5;
position = "{203, 0}";
}
);
layerId = "AC2035D7-313F-43E0-B352-008DE9991D96";
shapes = (
{
closed = 1;
nodes = (
(379,507,l),
(391,497,l),
(49,43,l),
(79,48,l),
(96,48,o),
(113,45,o),
(130,39,cs),
(164,26,o),
(199,11,o),
(232,11,cs),
(270,11,o),
(299,25,o),
(319,54,cs),
(339,83,o),
(351,126,o),
(354,185,c),
(364,186,l),
(375,174,l),
(372,133,o),
(365,99,o),
(354,72,c),
(330,18,o),
(289,-11,o),
(229,-11,cs),
(212,-11,o),
(195,-8,o),
(178,-2,cs),
(143,10,o),
(106,25,o),
(73,25,cs),
(50,25,o),
(27,18,o),
(7,-5,c),
(3,-5,l),
(-7,3,l),
(346,472,l),
(82,472,l),
(80,476,l),
(84,492,l),
(86,494,l),
(360,494,l)
);
}
);
width = 429;
}
);
leftKerningGroup = z2;
rightKerningGroup = z;
unicode = 122;
},
{
glyphname = braceleft;
layers = (
{
layerId = "52170CEE-5BA0-420B-B358-B20FB7EDC86A";
shapes = (
{
closed = 1;
nodes = (
(327,720,o),
(354,715,o),
(381,707,c),
(387,692,l),
(358,587,l),
(346,591,o),
(334,593,o),
(322,593,cs),
(286,593,o),
(265,570,o),
(265,532,cs),
(265,501,o),
(280,463,o),
(280,429,cs),
(280,380,o),
(249,333,o),
(189,307,c),
(188,299,l),
(230,277,o),
(251,239,o),
(251,200,cs),
(251,182,o),
(248,166,o),
(240,150,c),
(226,118,o),
(206,88,o),
(206,58,cs),
(206,28,o),
(222,13,o),
(251,13,cs),
(263,13,o),
(275,15,o),
(288,19,c),
(292,-86,l),
(282,-100,l),
(252,-109,o),
(224,-114,o),
(193,-114,cs),
(90,-114,o),
(35,-69,o),
(35,5,cs),
(35,31,o),
(39,54,o),
(47,75,cs),
(62,118,o),
(80,155,o),
(80,187,cs),
(80,217,o),
(62,240,o),
(28,256,c),
(40,351,l),
(87,369,o),
(110,397,o),
(110,441,cs),
(110,473,o),
(103,514,o),
(103,557,cs),
(103,662,o),
(173,720,o),
(296,720,cs)
);
}
);
width = 331;
},
{
layerId = "C64F1ECC-30E2-4AB6-9CDD-B17FE72FA4E1";
shapes = (
{
closed = 1;
nodes = (
(311,715,o),
(326,712,o),
(345,708,c),
(348,700,l),
(333,650,l),
(318,653,o),
(309,655,o),
(294,655,cs),
(241,655,o),
(215,623,o),
(215,548,cs),
(215,512,o),
(221,458,o),
(221,425,cs),
(221,356,o),
(189,313,o),
(132,288,c),
(131,284,l),
(172,265,o),
(192,230,o),
(192,187,cs),
(192,168,o),
(188,146,o),
(180,122,cs),
(164,73,o),
(144,22,o),
(144,-21,cs),
(144,-63,o),
(164,-84,o),
(203,-84,cs),
(218,-84,o),
(229,-82,o),
(244,-79,c),
(247,-128,l),
(241,-135,l),
(222,-142,o),
(205,-143,o),
(182,-143,cs),
(107,-143,o),
(69,-107,o),
(69,-39,cs),
(69,-14,o),
(73,12,o),
(81,39,cs),
(97,93,o),
(116,145,o),
(116,181,cs),
(116,226,o),
(90,253,o),
(39,262,c),
(45,309,l),
(114,322,o),
(145,359,o),
(145,431,cs),
(145,464,o),
(142,514,o),
(142,550,cs),
(142,665,o),
(193,715,o),
(288,715,cs)
);
}
);
width = 317;
},
{
layerId = "AC2035D7-313F-43E0-B352-008DE9991D96";
shapes = (
{
closed = 1;
nodes = (
(313,713,o),
(327,711,o),
(336,708,c),
(340,704,l),
(333,686,l),
(316,689,o),
(305,691,o),
(290,691,cs),
(229,691,o),
(199,654,o),
(199,538,cs),
(199,507,o),
(200,460,o),
(200,435,cs),
(200,343,o),
(170,300,o),
(111,277,c),
(111,275,l),
(151,259,o),
(170,227,o),
(170,180,cs),
(170,160,o),
(166,135,o),
(158,105,cs),
(141,45,o),
(121,-17,o),
(121,-64,cs),
(121,-114,o),
(144,-139,o),
(189,-139,cs),
(204,-139,o),
(213,-136,o),
(233,-133,c),
(235,-152,l),
(230,-155,l),
(219,-158,o),
(205,-161,o),
(189,-161,cs),
(130,-161,o),
(99,-127,o),
(99,-66,cs),
(99,-41,o),
(103,-14,o),
(111,17,cs),
(127,77,o),
(149,141,o),
(149,178,cs),
(149,230,o),
(119,259,o),
(58,266,c),
(60,286,l),
(141,297,o),
(178,334,o),
(178,437,cs),
(178,465,o),
(177,512,o),
(177,539,cs),
(177,664,o),
(218,713,o),
(297,713,cs)
);
}
);
width = 308;
}
);
unicode = 123;
},
{
glyphname = bar;
layers = (
{
layerId = "52170CEE-5BA0-420B-B358-B20FB7EDC86A";
shapes = (
{
closed = 1;
nodes = (
(309,885,l),
(322,870,l),
(178,-268,l),
(33,-280,l),
(19,-262,l),
(159,873,l)
);
}
);
width = 328;
},
{
layerId = "C64F1ECC-30E2-4AB6-9CDD-B17FE72FA4E1";
shapes = (
{
closed = 1;
nodes = (
(277,871,l),
(283,865,l),
(141,-282,l),
(75,-286,l),
(70,-276,l),
(211,866,l)
);
}
);
width = 342;
},
{
layerId = "AC2035D7-313F-43E0-B352-008DE9991D96";
shapes = (
{
closed = 1;
nodes = (
(260,864,l),
(262,862,l),
(120,-289,l),
(102,-289,l),
(99,-285,l),
(240,862,l)
);
}
);
width = 351;
}
);
unicode = 124;
},
{
glyphname = asciitilde;
layers = (
{
layerId = "52170CEE-5BA0-420B-B358-B20FB7EDC86A";
shapes = (
{
closed = 1;
nodes = (
(132,232,o),
(103,199,o),
(69,165,c),
(51,165,l),
(3,234,l),
(5,251,l),
(122,377,l),
(140,384,l),
(171,379,o),
(219,363,o),
(265,348,cs),
(311,334,o),
(351,322,o),
(369,322,cs),
(399,322,o),
(427,355,o),
(462,389,c),
(479,389,l),
(525,320,l),
(523,302,l),
(408,177,l),
(390,170,l),
(358,175,o),
(311,190,o),
(265,204,cs),
(219,218,o),
(179,232,o),
(162,232,cs)
);
}
);
width = 524;
},
{
layerId = "C64F1ECC-30E2-4AB6-9CDD-B17FE72FA4E1";
shapes = (
{
closed = 1;
nodes = (
(147,278,o),
(124,254,o),
(85,222,c),
(74,222,l),
(54,253,l),
(55,263,l),
(145,345,l),
(157,351,l),
(184,346,o),
(227,333,o),
(270,320,cs),
(313,307,o),
(352,296,o),
(369,296,cs),
(388,296,o),
(414,321,o),
(451,353,c),
(461,353,l),
(482,321,l),
(480,311,l),
(390,228,l),
(378,225,l),
(351,228,o),
(308,242,o),
(265,255,cs),
(222,267,o),
(183,278,o),
(166,278,cs)
);
}
);
width = 524;
},
{
layerId = "AC2035D7-313F-43E0-B352-008DE9991D96";
shapes = (
{
closed = 1;
nodes = (
(146,305,o),
(128,285,o),
(92,254,c),
(85,254,l),
(78,264,l),
(78,270,l),
(147,328,l),
(154,331,l),
(179,328,o),
(222,316,o),
(265,304,cs),
(308,292,o),
(347,282,o),
(364,282,cs),
(379,282,o),
(396,300,o),
(432,332,c),
(439,332,l),
(447,321,l),
(447,317,l),
(376,258,l),
(369,256,l),
(345,259,o),
(303,270,o),
(260,282,c),
(216,293,o),
(178,305,o),
(161,305,cs)
);
}
);
width = 525;
}
);
unicode = 126;
},
{
glyphname = cent;
layers = (
{
anchors = (
{
name = m.fi;
position = "{312, 557}";
},
{
name = b.uni0324_5;
position = "{292, 41}";
}
);
layerId = "52170CEE-5BA0-420B-B358-B20FB7EDC86A";
shapes = (
{
closed = 1;
nodes = (
(354,108,l),
(318,-139,l),
(212,-139,l),
(200,-123,l),
(233,108,l)
);
},
{
closed = 1;
nodes = (
(411,486,l),
(354,108,l),
(233,108,l),
(290,486,l)
);
},
{
closed = 1;
nodes = (
(425,721,l),
(442,705,l),
(411,486,l),
(290,486,l),
(323,721,l)
);
},
{
closed = 1;
nodes = (
(501,537,l),
(507,519,l),
(458,389,l),
(419,388,l),
(395,415,o),
(380,428,o),
(353,428,cs),
(323,428,o),
(301,416,o),
(287,392,cs),
(273,367,o),
(266,330,o),
(266,280,cs),
(266,212,o),
(281,185,o),
(316,185,cs),
(329,185,o),
(341,190,o),
(354,199,cs),
(366,208,o),
(380,226,o),
(396,253,c),
(419,252,l),
(478,181,l),
(430,100,o),
(380,59,o),
(297,32,c),
(273,32,l),
(230,38,o),
(196,50,o),
(169,68,cs),
(116,103,o),
(93,161,o),
(93,245,cs),
(93,302,o),
(104,354,o),
(126,403,cs),
(169,499,o),
(259,565,o),
(403,565,c)
);
}
);
width = 568;
},
{
anchors = (
{
name = m.fi;
position = "{308, 557}";
},
{
name = b.uni0324_5;
position = "{288, 41}";
}
);
layerId = "C64F1ECC-30E2-4AB6-9CDD-B17FE72FA4E1";
shapes = (
{
closed = 1;
nodes = (
(299,73,l),
(265,-131,l),
(219,-131,l),
(214,-122,l),
(244,73,l)
);
},
{
closed = 1;
nodes = (
(374,519,l),
(299,73,l),
(244,73,l),
(319,519,l)
);
},
{
closed = 1;
nodes = (
(396,712,l),
(404,703,l),
(374,519,l),
(319,519,l),
(350,712,l)
);
},
{
closed = 1;
nodes = (
(467,530,l),
(474,519,l),
(453,459,l),
(436,455,l),
(404,484,o),
(380,492,o),
(356,492,cs),
(305,492,o),
(264,469,o),
(235,424,cs),
(206,379,o),
(191,316,o),
(191,237,cs),
(191,140,o),
(217,104,o),
(266,104,cs),
(284,104,o),
(304,111,o),
(327,124,cs),
(349,137,o),
(371,164,o),
(394,204,c),
(406,203,l),
(431,169,l),
(382,89,o),
(330,55,o),
(262,39,c),
(249,39,l),
(221,44,o),
(197,52,o),
(178,64,cs),
(139,88,o),
(119,135,o),
(119,224,cs),
(119,284,o),
(128,339,o),
(147,389,cs),
(184,488,o),
(266,553,o),
(391,553,c)
);
}
);
width = 568;
},
{
anchors = (
{
name = m.fi;
position = "{306, 554}";
},
{
name = b.uni0324_5;
position = "{280, 46}";
}
);
layerId = "AC2035D7-313F-43E0-B352-008DE9991D96";
shapes = (
{
closed = 1;
nodes = (
(270,59,l),
(237,-124,l),
(221,-124,l),
(217,-120,l),
(248,59,l)
);
},
{
closed = 1;
nodes = (
(353,537,l),
(270,59,l),
(248,59,l),
(330,537,l)
);
},
{
closed = 1;
nodes = (
(377,710,l),
(382,704,l),
(353,537,l),
(330,537,l),
(360,710,l)
);
},
{
closed = 1;
nodes = (
(451,527,l),
(457,520,l),
(450,505,l),
(445,501,l),
(417,517,o),
(390,526,o),
(370,526,cs),
(304,525,o),
(253,497,o),
(217,440,cs),
(180,383,o),
(162,305,o),
(162,207,cs),
(162,106,o),
(193,66,o),
(248,66,cs),
(269,66,o),
(293,74,o),
(319,89,cs),
(345,104,o),
(370,133,o),
(394,177,c),
(401,177,l),
(410,165,l),
(361,81,o),
(310,52,o),
(249,45,c),
(241,45,l),
(222,48,o),
(205,53,o),
(190,62,cs),
(159,79,o),
(140,120,o),
(140,209,cs),
(140,274,o),
(149,332,o),
(166,383,cs),
(201,485,o),
(274,548,o),
(387,548,c)
);
}
);
width = 568;
}
);
unicode = 162;
},
{
glyphname = sterling;
layers = (
{
layerId = "52170CEE-5BA0-420B-B358-B20FB7EDC86A";
shapes = (
{
closed = 1;
nodes = (
(469,720,o),
(509,714,o),
(554,705,c),
(524,541,l),
(509,532,l),
(455,559,o),
(419,571,o),
(387,571,cs),
(351,571,o),
(324,558,o),
(316,510,c),
(281,262,ls),
(274,209,o),
(260,186,o),
(227,159,c),
(227,153,l),
(480,153,l),
(484,145,l),
(450,0,l),
(-16,0,l),
(-21,11,l),
(2,141,l),
(63,159,o),
(90,190,o),
(96,251,c),
(123,473,ls),
(142,633,o),
(253,720,o),
(425,720,cs)
);
},
{
closed = 1;
nodes = (
(441,425,l),
(445,415,l),
(423,300,l),
(22,300,l),
(19,311,l),
(40,425,l)
);
}
);
width = 568;
},
{
layerId = "C64F1ECC-30E2-4AB6-9CDD-B17FE72FA4E1";
shapes = (
{
closed = 1;
nodes = (
(418,709,o),
(457,701,o),
(498,688,c),
(484,611,l),
(477,605,l),
(440,631,o),
(402,644,o),
(369,644,cs),
(304,644,o),
(264,604,o),
(253,525,cs),
(209,196,l),
(203,139,o),
(183,103,o),
(149,77,c),
(149,73,l),
(429,73,l),
(432,66,l),
(416,0,l),
(30,0,l),
(26,8,l),
(37,60,l),
(92,72,o),
(124,113,o),
(133,186,cs),
(175,512,ls),
(191,640,o),
(265,709,o),
(381,709,cs)
);
},
{
closed = 1;
nodes = (
(377,402,l),
(380,395,l),
(368,346,l),
(76,346,l),
(72,352,l),
(83,402,l)
);
}
);
width = 568;
},
{
layerId = "AC2035D7-313F-43E0-B352-008DE9991D96";
shapes = (
{
closed = 1;
nodes = (
(390,701,o),
(426,696,o),
(465,679,c),
(459,656,l),
(455,654,l),
(428,672,o),
(390,678,o),
(359,678,cs),
(279,678,o),
(236,626,o),
(223,530,cs),
(174,154,l),
(168,93,o),
(148,53,o),
(114,26,c),
(114,24,l),
(394,24,l),
(397,17,l),
(392,0,l),
(57,0,l),
(53,4,l),
(59,22,l),
(109,29,o),
(143,76,o),
(153,154,cs),
(201,530,ls),
(215,642,o),
(271,701,o),
(359,701,cs)
);
},
{
closed = 1;
nodes = (
(342,389,l),
(344,385,l),
(338,365,l),
(106,365,l),
(103,371,l),
(110,389,l)
);
}
);
width = 568;
}
);
unicode = 163;
},
{
glyphname = currency;
layers = (
{
layerId = "52170CEE-5BA0-420B-B358-B20FB7EDC86A";
shapes = (
{
closed = 1;
nodes = (
(482,627,l),
(568,535,l),
(565,518,l),
(479,451,l),
(486,433,o),
(489,412,o),
(489,389,cs),
(489,356,o),
(480,327,o),
(465,299,c),
(536,239,l),
(537,221,l),
(433,123,l),
(416,123,l),
(361,201,l),
(334,188,o),
(306,181,o),
(276,181,cs),
(251,181,o),
(227,186,o),
(204,197,c),
(136,120,l),
(117,117,l),
(31,209,l),
(35,226,l),
(119,290,l),
(112,309,o),
(109,331,o),
(109,352,cs),
(109,385,o),
(118,416,o),
(134,444,c),
(65,505,l),
(64,523,l),
(168,620,l),
(185,619,l),
(241,542,l),
(266,553,o),
(294,559,o),
(322,559,cs),
(346,559,o),
(370,553,o),
(391,545,c),
(463,624,l)
);
},
{
closed = 1;
nodes = (
(291,449,o),
(275,445,o),
(262,438,cs),
(234,423,o),
(219,396,o),
(219,359,cs),
(219,338,o),
(225,322,o),
(237,310,cs),
(249,298,o),
(266,292,o),
(289,292,cs),
(307,292,o),
(323,296,o),
(337,303,cs),
(364,317,o),
(379,345,o),
(379,381,cs),
(379,402,o),
(373,419,o),
(361,431,cs),
(348,443,o),
(331,449,o),
(309,449,cs)
);
}
);
width = 568;
},
{
layerId = "C64F1ECC-30E2-4AB6-9CDD-B17FE72FA4E1";
shapes = (
{
closed = 1;
nodes = (
(488,596,l),
(525,556,l),
(523,546,l),
(442,477,l),
(455,457,o),
(461,433,o),
(461,405,cs),
(461,369,o),
(446,335,o),
(422,306,c),
(488,238,l),
(488,228,l),
(442,186,l),
(432,187,l),
(372,260,l),
(345,240,o),
(315,230,o),
(282,230,cs),
(251,230,o),
(224,240,o),
(201,259,c),
(125,185,l),
(115,185,l),
(76,225,l),
(80,235,l),
(161,302,l),
(148,323,o),
(141,349,o),
(141,376,cs),
(141,413,o),
(158,447,o),
(181,475,c),
(115,543,l),
(116,553,l),
(161,594,l),
(170,594,l),
(232,520,l),
(257,539,o),
(289,548,o),
(321,548,cs),
(352,548,o),
(381,538,o),
(401,522,c),
(478,595,l)
);
},
{
closed = 1;
nodes = (
(294,495,o),
(274,490,o),
(256,480,cs),
(219,459,o),
(196,423,o),
(196,379,cs),
(196,352,o),
(205,330,o),
(222,312,cs),
(239,294,o),
(261,285,o),
(288,285,cs),
(310,285,o),
(330,290,o),
(349,301,cs),
(385,321,o),
(408,357,o),
(408,401,cs),
(408,428,o),
(399,450,o),
(382,468,cs),
(365,486,o),
(342,495,o),
(315,495,cs)
);
}
);
width = 568;
},
{
layerId = "AC2035D7-313F-43E0-B352-008DE9991D96";
shapes = (
{
closed = 1;
nodes = (
(496,579,l),
(504,568,l),
(503,562,l),
(425,492,l),
(441,471,o),
(449,445,o),
(449,415,cs),
(449,374,o),
(431,338,o),
(402,310,c),
(465,238,l),
(464,233,l),
(451,222,l),
(445,223,l),
(383,294,l),
(356,271,o),
(324,259,o),
(289,259,cs),
(254,259,o),
(225,271,o),
(202,294,c),
(121,222,l),
(116,223,l),
(107,234,l),
(108,239,l),
(188,310,l),
(173,330,o),
(164,360,o),
(164,388,cs),
(164,428,o),
(182,464,o),
(211,492,c),
(147,565,l),
(149,570,l),
(160,580,l),
(166,580,l),
(229,508,l),
(256,529,o),
(290,543,o),
(323,543,cs),
(356,543,o),
(387,529,o),
(410,509,c),
(490,580,l)
);
},
{
closed = 1;
nodes = (
(298,521,o),
(276,515,o),
(255,503,cs),
(214,479,o),
(186,437,o),
(186,389,cs),
(186,360,o),
(196,334,o),
(216,313,cs),
(236,292,o),
(261,281,o),
(291,281,cs),
(314,281,o),
(337,287,o),
(358,299,cs),
(400,323,o),
(427,366,o),
(427,413,cs),
(427,443,o),
(417,469,o),
(397,490,cs),
(377,511,o),
(352,521,o),
(321,521,cs)
);
}
);
width = 568;
}
);
unicode = 164;
},
{
glyphname = yen;
layers = (
{
anchors = (
{
name = m.fi;
position = "{322, 560}";
}
);
layerId = "52170CEE-5BA0-420B-B358-B20FB7EDC86A";
shapes = (
{
closed = 1;
nodes = (
(558,256,l),
(566,245,l),
(547,137,l),
(-4,137,l),
(-9,149,l),
(10,256,l)
);
},
{
closed = 1;
nodes = (
(236,450,l),
(222,331,l),
(22,331,l),
(16,344,l),
(37,450,l)
);
},
{
closed = 1;
nodes = (
(585,450,l),
(592,440,l),
(571,331,l),
(361,331,l),
(380,450,l)
);
},
{
closed = 1;
nodes = (
(645,706,l),
(281,75,l),
(223,75,l),
(51,706,l),
(247,706,l),
(302,445,l),
(313,445,l),
(455,706,l)
);
},
{
closed = 1;
nodes = (
(375,310,l),
(351,183,l),
(335,0,l),
(150,0,l),
(183,183,l),
(196,310,l)
);
}
);
width = 568;
},
{
anchors = (
{
name = m.fi;
position = "{343, 560}";
}
);
layerId = "C64F1ECC-30E2-4AB6-9CDD-B17FE72FA4E1";
shapes = (
{
closed = 1;
nodes = (
(515,228,l),
(519,220,l),
(510,169,l),
(25,169,l),
(20,176,l),
(30,228,l)
);
},
{
closed = 1;
nodes = (
(235,414,l),
(236,355,l),
(48,355,l),
(46,364,l),
(55,414,l)
);
},
{
closed = 1;
nodes = (
(540,414,l),
(544,409,l),
(533,355,l),
(336,355,l),
(352,414,l)
);
},
{
closed = 1;
nodes = (
(567,700,l),
(274,192,l),
(248,192,l),
(102,700,l),
(184,700,l),
(279,354,l),
(285,354,l),
(486,700,l)
);
},
{
closed = 1;
nodes = (
(309,299,l),
(296,201,l),
(271,0,l),
(196,0,l),
(226,201,l),
(236,299,l)
);
}
);
width = 568;
},
{
anchors = (
{
name = m.fi;
position = "{346, 551}";
}
);
layerId = "AC2035D7-313F-43E0-B352-008DE9991D96";
shapes = (
{
closed = 1;
nodes = (
(487,213,l),
(491,209,l),
(484,184,l),
(51,184,l),
(49,188,l),
(54,213,l)
);
},
{
closed = 1;
nodes = (
(242,397,l),
(249,369,l),
(75,369,l),
(73,373,l),
(78,397,l)
);
},
{
closed = 1;
nodes = (
(512,397,l),
(515,392,l),
(509,369,l),
(325,369,l),
(340,397,l)
);
},
{
closed = 1;
nodes = (
(528,696,l),
(274,249,l),
(266,249,l),
(141,696,l),
(168,696,l),
(274,308,l),
(278,308,l),
(501,696,l)
);
},
{
closed = 1;
nodes = (
(285,292,l),
(274,212,l),
(246,0,l),
(224,0,l),
(253,212,l),
(263,292,l)
);
}
);
width = 568;
}
);
unicode = 165;
},
{
glyphname = brokenbar;
layers = (
{
layerId = "52170CEE-5BA0-420B-B358-B20FB7EDC86A";
shapes = (
{
closed = 1;
nodes = (
(309,885,l),
(322,870,l),
(262,417,l),
(115,399,l),
(103,411,l),
(159,873,l)
);
},
{
closed = 1;
nodes = (
(215,176,l),
(229,158,l),
(178,-268,l),
(33,-280,l),
(19,-262,l),
(71,159,l)
);
}
);
width = 328;
},
{
layerId = "C64F1ECC-30E2-4AB6-9CDD-B17FE72FA4E1";
shapes = (
{
closed = 1;
nodes = (
(277,871,l),
(283,865,l),
(226,407,l),
(161,400,l),
(154,406,l),
(210,866,l)
);
},
{
closed = 1;
nodes = (
(189,175,l),
(197,165,l),
(141,-282,l),
(76,-286,l),
(70,-276,l),
(124,167,l)
);
}
);
width = 342;
},
{
layerId = "AC2035D7-313F-43E0-B352-008DE9991D96";
shapes = (
{
closed = 1;
nodes = (
(260,864,l),
(262,862,l),
(205,402,l),
(187,400,l),
(183,403,l),
(240,862,l)
);
},
{
closed = 1;
nodes = (
(174,175,l),
(177,169,l),
(120,-289,l),
(102,-289,l),
(99,-285,l),
(155,171,l)
);
}
);
width = 351;
}
);
unicode = 166;
},
{
glyphname = section;
layers = (
{
layerId = "52170CEE-5BA0-420B-B358-B20FB7EDC86A";
shapes = (
{
closed = 1;
nodes = (
(289,389,l),
(226,373,o),
(191,340,o),
(191,307,cs),
(191,274,o),
(226,252,o),
(271,232,c),
(293,221,o),
(315,210,o),
(338,197,cs),
(382,172,o),
(417,136,o),
(417,79,cs),
(417,44,o),
(406,13,o),
(384,-15,cs),
(340,-70,o),
(261,-105,o),
(166,-105,cs),
(140,-105,o),
(110,-102,o),
(75,-97,cs),
(40,-91,o),
(9,-83,o),
(-19,-74,c),
(22,74,l),
(40,86,l),
(91,46,o),
(155,19,o),
(198,19,cs),
(209,19,o),
(218,20,o),
(225,23,c),
(239,27,o),
(244,37,o),
(244,45,cs),
(244,65,o),
(209,79,o),
(164,97,cs),
(141,106,o),
(119,117,o),
(96,130,cs),
(51,157,o),
(16,195,o),
(16,256,cs),
(16,291,o),
(27,325,o),
(50,356,cs),
(94,418,o),
(175,460,o),
(270,461,c)
);
},
{
closed = 1;
nodes = (
(393,719,o),
(455,707,o),
(496,691,c),
(458,549,l),
(434,542,l),
(385,574,o),
(336,590,o),
(305,590,cs),
(296,590,o),
(289,589,o),
(282,586,cs),
(269,581,o),
(262,573,o),
(262,565,cs),
(262,544,o),
(297,531,o),
(342,513,cs),
(365,504,o),
(387,493,o),
(410,480,cs),
(454,454,o),
(489,415,o),
(489,354,cs),
(489,319,o),
(478,287,o),
(456,257,cs),
(412,197,o),
(333,155,o),
(237,154,c),
(210,221,l),
(279,238,o),
(313,270,o),
(313,302,cs),
(313,338,o),
(279,358,o),
(234,378,cs),
(211,388,o),
(189,399,o),
(167,412,cs),
(122,437,o),
(87,473,o),
(87,532,cs),
(87,566,o),
(98,597,o),
(121,626,cs),
(166,682,o),
(246,719,o),
(342,719,cs)
);
}
);
width = 501;
},
{
layerId = "C64F1ECC-30E2-4AB6-9CDD-B17FE72FA4E1";
shapes = (
{
closed = 1;
nodes = (
(230,425,l),
(149,397,o),
(110,358,o),
(110,318,cs),
(110,279,o),
(144,249,o),
(186,221,cs),
(207,206,o),
(228,191,o),
(249,175,cs),
(292,143,o),
(324,105,o),
(324,50,cs),
(324,22,o),
(315,-4,o),
(298,-29,c),
(262,-78,o),
(199,-110,o),
(123,-110,cs),
(101,-110,o),
(77,-107,o),
(50,-101,cs),
(23,-95,o),
(0,-86,o),
(-20,-75,c),
(1,4,l),
(11,11,l),
(48,-26,o),
(95,-49,o),
(140,-49,cs),
(161,-49,o),
(179,-45,o),
(194,-37,cs),
(225,-21,o),
(244,6,o),
(244,31,cs),
(244,67,o),
(211,95,o),
(169,123,cs),
(148,137,o),
(126,152,o),
(105,168,cs),
(61,200,o),
(28,240,o),
(28,295,cs),
(28,322,o),
(36,348,o),
(52,373,cs),
(83,422,o),
(138,459,o),
(205,474,c)
);
},
{
closed = 1;
nodes = (
(338,707,o),
(383,699,o),
(420,683,c),
(400,604,l),
(387,601,l),
(350,629,o),
(314,643,o),
(282,643,cs),
(263,643,o),
(247,639,o),
(233,631,cs),
(204,615,o),
(187,590,o),
(187,566,cs),
(187,530,o),
(218,503,o),
(262,475,c),
(283,460,o),
(305,445,o),
(326,429,cs),
(368,397,o),
(400,358,o),
(400,302,cs),
(400,276,o),
(393,251,o),
(379,228,cs),
(350,180,o),
(298,144,o),
(227,128,c),
(199,175,l),
(292,204,o),
(319,241,o),
(319,278,cs),
(319,319,o),
(287,350,o),
(245,379,cs),
(224,394,o),
(202,409,o),
(181,425,cs),
(138,457,o),
(106,495,o),
(106,547,cs),
(106,576,o),
(115,602,o),
(132,627,c),
(167,675,o),
(229,707,o),
(302,707,cs)
);
}
);
width = 430;
},
{
layerId = "AC2035D7-313F-43E0-B352-008DE9991D96";
shapes = (
{
closed = 1;
nodes = (
(198,465,l),
(122,430,o),
(79,378,o),
(79,329,cs),
(79,284,o),
(110,247,o),
(153,211,c),
(174,192,o),
(195,174,o),
(216,156,cs),
(257,119,o),
(289,79,o),
(289,27,cs),
(289,2,o),
(282,-21,o),
(267,-43,cs),
(238,-86,o),
(183,-115,o),
(118,-115,cs),
(96,-115,o),
(75,-112,o),
(54,-105,cs),
(33,-98,o),
(14,-88,o),
(-2,-76,c),
(3,-58,l),
(10,-55,l),
(41,-79,o),
(81,-93,o),
(121,-93,cs),
(151,-93,o),
(177,-87,o),
(199,-76,cs),
(243,-53,o),
(266,-13,o),
(266,24,cs),
(266,69,o),
(234,107,o),
(193,143,cs),
(172,161,o),
(152,179,o),
(131,198,cs),
(89,235,o),
(57,275,o),
(57,327,cs),
(57,348,o),
(63,368,o),
(74,387,cs),
(96,425,o),
(137,458,o),
(186,482,c)
);
},
{
closed = 1;
nodes = (
(326,699,o),
(360,693,o),
(396,677,c),
(390,656,l),
(383,655,l),
(350,671,o),
(318,677,o),
(294,677,cs),
(266,677,o),
(242,671,o),
(222,660,cs),
(181,636,o),
(159,600,o),
(159,563,cs),
(159,522,o),
(192,484,o),
(233,449,cs),
(253,431,o),
(273,413,o),
(294,394,cs),
(335,357,o),
(368,314,o),
(368,262,cs),
(368,242,o),
(363,223,o),
(354,205,cs),
(334,168,o),
(296,138,o),
(240,111,c),
(227,128,l),
(308,164,o),
(346,211,o),
(346,260,cs),
(346,307,o),
(315,346,o),
(273,383,cs),
(252,401,o),
(231,419,o),
(210,437,cs),
(169,473,o),
(137,513,o),
(137,562,cs),
(137,587,o),
(144,610,o),
(159,631,cs),
(187,671,o),
(238,699,o),
(299,699,cs)
);
}
);
width = 418;
}
);
unicode = 167;
},
{
glyphname = copyright;
layers = (
{
layerId = "52170CEE-5BA0-420B-B358-B20FB7EDC86A";
shapes = (
{
closed = 1;
nodes = (
(454,653,o),
(512,639,o),
(562,612,cs),
(662,556,o),
(720,453,o),
(720,320,cs),
(720,254,o),
(706,196,o),
(679,146,cs),
(623,45,o),
(520,-13,o),
(388,-13,cs),
(321,-13,o),
(262,1,o),
(213,29,cs),
(113,84,o),
(55,188,o),
(55,320,cs),
(55,387,o),
(69,445,o),
(97,495,cs),
(152,595,o),
(253,653,o),
(388,653,cs)
);
},
{
closed = 1;
nodes = (
(452,507,o),
(483,502,o),
(511,497,c),
(487,388,l),
(479,382,l),
(460,390,o),
(433,394,o),
(414,394,cs),
(378,394,o),
(364,382,o),
(364,335,cs),
(364,278,o),
(380,253,o),
(424,253,cs),
(441,253,o),
(468,257,o),
(487,258,c),
(498,251,l),
(487,143,l),
(460,139,o),
(436,141,o),
(413,141,cs),
(280,141,o),
(217,204,o),
(217,319,cs),
(217,436,o),
(291,507,o),
(419,507,cs)
);
},
{
closed = 1;
nodes = (
(334,586,o),
(288,575,o),
(249,553,cs),
(169,509,o),
(122,427,o),
(122,320,cs),
(122,267,o),
(133,220,o),
(156,180,cs),
(200,100,o),
(282,54,o),
(387,54,cs),
(440,54,o),
(486,65,o),
(526,87,cs),
(605,131,o),
(652,213,o),
(652,320,cs),
(652,373,o),
(641,420,o),
(619,460,cs),
(574,540,o),
(492,586,o),
(387,586,cs)
);
}
);
width = 759;
},
{
layerId = "C64F1ECC-30E2-4AB6-9CDD-B17FE72FA4E1";
shapes = (
{
closed = 1;
nodes = (
(450,653,o),
(507,639,o),
(556,612,cs),
(652,556,o),
(709,453,o),
(709,320,cs),
(709,254,o),
(696,196,o),
(669,146,cs),
(615,45,o),
(516,-13,o),
(385,-13,cs),
(320,-13,o),
(264,1,o),
(216,29,cs),
(119,84,o),
(62,188,o),
(62,320,cs),
(62,387,o),
(76,445,o),
(103,495,cs),
(157,595,o),
(256,653,o),
(385,653,cs)
);
},
{
closed = 1;
nodes = (
(439,508,o),
(474,499,o),
(505,484,c),
(491,431,l),
(486,429,l),
(462,445,o),
(430,453,o),
(401,453,cs),
(329,453,o),
(292,412,o),
(292,327,cs),
(292,238,o),
(329,192,o),
(401,192,cs),
(430,192,o),
(465,201,o),
(492,216,c),
(499,214,l),
(494,162,l),
(463,147,o),
(428,138,o),
(396,138,cs),
(283,138,o),
(225,204,o),
(225,321,cs),
(225,441,o),
(288,508,o),
(403,508,cs)
);
},
{
closed = 1;
nodes = (
(328,615,o),
(279,603,o),
(236,579,cs),
(150,530,o),
(100,437,o),
(100,320,cs),
(100,261,o),
(112,210,o),
(136,166,cs),
(183,77,o),
(272,25,o),
(385,25,cs),
(442,25,o),
(493,37,o),
(536,62,cs),
(622,111,o),
(670,203,o),
(670,320,cs),
(670,379,o),
(658,430,o),
(635,475,cs),
(588,564,o),
(500,615,o),
(385,615,cs)
);
}
);
width = 755;
},
{
layerId = "AC2035D7-313F-43E0-B352-008DE9991D96";
shapes = (
{
closed = 1;
nodes = (
(447,653,o),
(503,639,o),
(551,612,cs),
(646,556,o),
(702,453,o),
(702,320,cs),
(702,254,o),
(689,196,o),
(662,146,cs),
(609,45,o),
(511,-13,o),
(384,-13,cs),
(320,-13,o),
(264,1,o),
(217,29,cs),
(121,84,o),
(66,188,o),
(66,320,cs),
(66,387,o),
(79,445,o),
(106,495,cs),
(158,595,o),
(256,653,o),
(384,653,cs)
);
},
{
closed = 1;
nodes = (
(432,508,o),
(469,496,o),
(500,476,c),
(495,456,l),
(489,456,l),
(464,477,o),
(428,486,o),
(393,486,cs),
(301,486,o),
(251,429,o),
(251,322,cs),
(251,215,o),
(300,158,o),
(388,158,cs),
(424,158,o),
(464,170,o),
(496,193,c),
(500,192,l),
(498,171,l),
(465,151,o),
(424,137,o),
(387,137,cs),
(284,137,o),
(229,203,o),
(229,322,cs),
(229,442,o),
(286,508,o),
(393,508,cs)
);
},
{
closed = 1;
nodes = (
(325,631,o),
(273,618,o),
(229,593,cs),
(140,541,o),
(87,445,o),
(87,320,cs),
(87,258,o),
(100,204,o),
(125,157,cs),
(175,63,o),
(266,9,o),
(383,9,cs),
(443,9,o),
(495,22,o),
(540,48,cs),
(628,99,o),
(680,196,o),
(680,320,cs),
(680,383,o),
(668,437,o),
(643,484,cs),
(594,577,o),
(503,631,o),
(384,631,cs)
);
}
);
width = 751;
}
);
leftKerningGroup = C2;
rightKerningGroup = D;
unicode = 169;
},
{
glyphname = ordfeminine;
layers = (
{
anchors = (
{
name = top;
position = "{181, 312}";
}
);
layerId = "52170CEE-5BA0-420B-B358-B20FB7EDC86A";
shapes = (
{
closed = 1;
nodes = (
(373,711,l),
(382,705,l),
(343,354,l),
(223,346,l),
(263,688,l)
);
},
{
closed = 1;
nodes = (
(228,708,l),
(357,687,l),
(294,602,l),
(205,621,l),
(193,621,o),
(183,617,o),
(176,608,c),
(158,591,o),
(151,558,o),
(151,514,cs),
(151,466,o),
(159,449,o),
(169,449,cs),
(175,449,o),
(182,455,o),
(192,467,cs),
(210,491,o),
(236,539,o),
(265,613,c),
(238,449,l),
(225,449,l),
(204,410,o),
(182,372,o),
(153,342,c),
(137,342,l),
(59,363,o),
(39,405,o),
(39,466,cs),
(39,498,o),
(46,531,o),
(59,563,cs),
(85,628,o),
(139,683,o),
(223,708,c)
);
},
{
closed = 1;
nodes = (
(32,300,l),
(341,300,l),
(354,286,l),
(342,188,l),
(33,188,l),
(20,202,l)
);
}
);
width = 368;
},
{
anchors = (
{
name = top;
position = "{185, 240}";
}
);
layerId = "C64F1ECC-30E2-4AB6-9CDD-B17FE72FA4E1";
shapes = (
{
closed = 1;
nodes = (
(343,709,l),
(351,703,l),
(310,367,l),
(237,361,l),
(276,691,l)
);
},
{
closed = 1;
nodes = (
(240,704,l),
(335,691,l),
(296,638,l),
(226,651,l),
(207,651,o),
(191,644,o),
(177,631,cs),
(149,603,o),
(135,557,o),
(135,500,cs),
(135,448,o),
(149,429,o),
(157,429,cs),
(162,429,o),
(170,436,o),
(182,451,cs),
(206,480,o),
(241,539,o),
(277,620,c),
(256,503,l),
(247,503,l),
(218,447,o),
(186,397,o),
(147,360,c),
(135,360,l),
(82,381,o),
(67,413,o),
(67,472,cs),
(67,507,o),
(73,541,o),
(86,574,cs),
(110,638,o),
(160,688,o),
(236,704,c)
);
},
{
closed = 1;
nodes = (
(27,292,l),
(326,292,l),
(332,285,l),
(327,238,l),
(29,238,l),
(22,245,l)
);
}
);
width = 343;
},
{
anchors = (
{
name = top;
position = "{198, 257}";
}
);
layerId = "AC2035D7-313F-43E0-B352-008DE9991D96";
shapes = (
{
closed = 1;
nodes = (
(307,704,l),
(311,702,l),
(273,382,l),
(248,379,l),
(286,696,l)
);
},
{
closed = 1;
nodes = (
(245,702,l),
(304,697,l),
(296,678,l),
(241,683,l),
(212,683,o),
(187,674,o),
(166,655,c),
(122,618,o),
(99,554,o),
(99,486,cs),
(99,425,o),
(119,405,o),
(128,405,cs),
(131,405,o),
(141,414,o),
(158,432,cs),
(190,468,o),
(240,535,o),
(285,630,c),
(272,563,l),
(268,563,l),
(227,488,o),
(178,423,o),
(129,379,c),
(120,379,l),
(91,398,o),
(79,424,o),
(79,480,cs),
(79,518,o),
(85,554,o),
(98,587,c),
(122,653,o),
(172,697,o),
(241,702,c)
);
},
{
closed = 1;
nodes = (
(39,311,l),
(307,311,l),
(310,307,l),
(308,289,l),
(40,289,l),
(37,292,l)
);
}
);
width = 327;
}
);
unicode = 170;
},
{
glyphname = logicalnot;
layers = (
{
layerId = "52170CEE-5BA0-420B-B358-B20FB7EDC86A";
shapes = (
{
closed = 1;
nodes = (
(486,349,l),
(491,340,l),
(454,41,l),
(325,32,l),
(312,45,l),
(333,207,l),
(24,207,l),
(12,222,l),
(38,349,l)
);
}
);
width = 525;
},
{
layerId = "C64F1ECC-30E2-4AB6-9CDD-B17FE72FA4E1";
shapes = (
{
closed = 1;
nodes = (
(466,321,l),
(472,313,l),
(441,64,l),
(383,60,l),
(376,67,l),
(400,257,l),
(38,257,l),
(33,263,l),
(45,321,l)
);
}
);
width = 524;
},
{
layerId = "AC2035D7-313F-43E0-B352-008DE9991D96";
shapes = (
{
closed = 1;
nodes = (
(455,306,l),
(461,299,l),
(434,78,l),
(415,75,l),
(412,79,l),
(437,284,l),
(46,284,l),
(44,287,l),
(48,306,l)
);
}
);
width = 524;
}
);
unicode = 172;
},
{
glyphname = softhyphen;
layers = (
{
anchors = (
{
name = top;
position = "{181, 312}";
}
);
layerId = "52170CEE-5BA0-420B-B358-B20FB7EDC86A";
shapes = (
{
closed = 1;
nodes = (
(26,362,l),
(16,249,l),
(29,235,l),
(320,235,l),
(330,348,l),
(317,362,l)
);
}
);
width = 331;
},
{
anchors = (
{
name = top;
position = "{190, 280}";
}
);
background = {
shapes = (
{
closed = 1;
nodes = (
(37,268,l),
(37,214,l),
(45,206,l),
(286,241,l),
(286,295,l),
(278,302,l)
);
}
);
};
layerId = "C64F1ECC-30E2-4AB6-9CDD-B17FE72FA4E1";
shapes = (
{
closed = 1;
nodes = (
(32,330,l),
(27,276,l),
(34,269,l),
(343,269,l),
(348,323,l),
(342,330,l)
);
}
);
width = 355;
},
{
anchors = (
{
name = top;
position = "{198, 257}";
}
);
layerId = "AC2035D7-313F-43E0-B352-008DE9991D96";
shapes = (
{
closed = 1;
nodes = (
(39,311,l),
(37,292,l),
(40,289,l),
(356,289,l),
(358,307,l),
(355,311,l)
);
}
);
width = 376;
}
);
leftKerningGroup = bullet2;
rightKerningGroup = bullet;
unicode = 173;
},
{
glyphname = registered;
layers = (
{
layerId = "52170CEE-5BA0-420B-B358-B20FB7EDC86A";
shapes = (
{
closed = 1;
nodes = (
(290,768,o),
(327,759,o),
(358,742,cs),
(421,706,o),
(458,642,o),
(458,558,cs),
(458,517,o),
(449,480,o),
(432,449,cs),
(396,385,o),
(332,348,o),
(248,348,cs),
(207,348,o),
(170,357,o),
(139,375,cs),
(75,410,o),
(38,475,o),
(38,558,cs),
(38,600,o),
(47,637,o),
(65,668,cs),
(100,731,o),
(165,768,o),
(248,768,cs)
);
},
{
closed = 1;
nodes = (
(230,672,l),
(230,458,l),
(159,458,l),
(159,672,l)
);
},
{
closed = 1;
nodes = (
(301,554,l),
(321,526,o),
(340,498,o),
(363,473,c),
(361,465,l),
(341,458,o),
(318,456,o),
(294,453,c),
(285,459,l),
(268,490,o),
(252,521,o),
(239,553,c)
);
},
{
closed = 1;
nodes = (
(199,722,o),
(160,707,o),
(130,677,cs),
(99,647,o),
(84,607,o),
(84,558,cs),
(84,509,o),
(99,470,o),
(130,440,c),
(160,409,o),
(199,394,o),
(248,394,cs),
(297,394,o),
(337,409,o),
(367,440,cs),
(397,470,o),
(412,509,o),
(412,558,cs),
(412,607,o),
(397,647,o),
(367,677,cs),
(337,707,o),
(297,722,o),
(248,722,cs)
);
},
{
closed = 1;
nodes = (
(269,673,ls),
(320,673,o),
(349,648,o),
(349,604,cs),
(349,564,o),
(314,532,o),
(259,520,c),
(185,520,l),
(185,567,l),
(257,567,l),
(269,574,o),
(276,582,o),
(276,598,cs),
(276,613,o),
(265,621,o),
(244,622,c),
(200,622,l),
(159,672,l)
);
}
);
width = 496;
},
{
layerId = "C64F1ECC-30E2-4AB6-9CDD-B17FE72FA4E1";
shapes = (
{
closed = 1;
nodes = (
(280,767,o),
(315,759,o),
(345,742,cs),
(405,709,o),
(439,649,o),
(439,569,cs),
(439,529,o),
(431,494,o),
(415,464,cs),
(382,404,o),
(320,369,o),
(240,369,cs),
(201,369,o),
(166,377,o),
(137,394,c),
(77,427,o),
(41,489,o),
(41,569,cs),
(41,609,o),
(50,644,o),
(67,673,cs),
(101,732,o),
(161,767,o),
(240,767,cs)
);
},
{
closed = 1;
nodes = (
(210,681,l),
(209,470,l),
(168,470,l),
(168,681,l)
);
},
{
closed = 1;
nodes = (
(272,562,l),
(291,535,o),
(311,506,o),
(334,478,c),
(333,474,l),
(322,470,o),
(307,467,o),
(294,466,c),
(289,470,l),
(268,499,o),
(250,531,o),
(233,562,c)
);
},
{
closed = 1;
nodes = (
(190,737,o),
(150,722,o),
(119,691,cs),
(88,660,o),
(72,620,o),
(72,569,cs),
(72,518,o),
(88,477,o),
(119,446,cs),
(150,415,o),
(190,399,o),
(241,399,cs),
(292,399,o),
(334,415,o),
(365,446,cs),
(396,477,o),
(411,518,o),
(411,569,cs),
(411,620,o),
(396,660,o),
(365,691,cs),
(334,722,o),
(292,737,o),
(241,737,cs)
);
},
{
closed = 1;
nodes = (
(249,681,ls),
(296,681,o),
(320,661,o),
(320,618,cs),
(320,583,o),
(294,552,o),
(247,544,c),
(183,544,l),
(183,575,l),
(246,575,l),
(267,583,o),
(278,595,o),
(278,615,cs),
(278,638,o),
(264,650,o),
(236,651,c),
(191,651,l),
(168,681,l)
);
}
);
width = 480;
},
{
layerId = "AC2035D7-313F-43E0-B352-008DE9991D96";
shapes = (
{
closed = 1;
nodes = (
(276,767,o),
(309,759,o),
(338,743,cs),
(395,711,o),
(429,651,o),
(429,574,cs),
(429,536,o),
(421,502,o),
(405,473,cs),
(373,414,o),
(314,381,o),
(237,381,cs),
(198,381,o),
(165,389,o),
(136,405,cs),
(78,437,o),
(44,498,o),
(44,574,cs),
(44,613,o),
(52,647,o),
(68,676,cs),
(100,734,o),
(160,767,o),
(237,767,cs)
);
},
{
closed = 1;
nodes = (
(198,687,l),
(198,477,l),
(174,477,l),
(174,687,l)
);
},
{
closed = 1;
nodes = (
(254,568,l),
(274,539,o),
(293,510,o),
(317,482,c),
(317,478,l),
(310,477,o),
(299,475,o),
(294,474,c),
(290,476,l),
(267,507,o),
(249,537,o),
(228,568,c)
);
},
{
closed = 1;
nodes = (
(185,746,o),
(143,731,o),
(112,700,cs),
(80,669,o),
(64,627,o),
(64,574,cs),
(64,523,o),
(80,481,o),
(112,450,c),
(143,418,o),
(185,402,o),
(237,402,cs),
(288,402,o),
(330,418,o),
(361,450,cs),
(392,481,o),
(408,523,o),
(408,574,cs),
(408,626,o),
(392,668,o),
(361,699,cs),
(330,730,o),
(288,746,o),
(237,746,cs)
);
},
{
closed = 1;
nodes = (
(238,687,ls),
(281,687,o),
(304,667,o),
(304,627,cs),
(304,594,o),
(282,564,o),
(241,557,c),
(183,557,l),
(183,577,l),
(240,577,l),
(267,585,o),
(280,601,o),
(280,625,cs),
(280,652,o),
(264,666,o),
(233,667,c),
(187,667,l),
(174,687,l)
);
}
);
width = 472;
}
);
leftKerningGroup = tilde2;
rightKerningGroup = tilde;
unicode = 174;
},
{
glyphname = degree;
layers = (
{
layerId = "52170CEE-5BA0-420B-B358-B20FB7EDC86A";
shapes = (
{
closed = 1;
nodes = (
(255,720,o),
(286,707,o),
(311,682,c),
(335,656,o),
(347,624,o),
(347,587,cs),
(347,558,o),
(339,531,o),
(324,506,cs),
(292,456,o),
(240,425,o),
(180,425,cs),
(142,425,o),
(111,438,o),
(87,463,cs),
(62,488,o),
(50,520,o),
(50,557,cs),
(50,587,o),
(58,614,o),
(74,639,cs),
(105,688,o),
(159,720,o),
(216,720,cs)
);
},
{
closed = 1;
nodes = (
(193,633,o),
(181,630,o),
(170,625,c),
(149,613,o),
(137,592,o),
(137,565,cs),
(137,549,o),
(142,536,o),
(152,526,cs),
(161,516,o),
(174,511,o),
(191,511,cs),
(204,511,o),
(216,514,o),
(226,520,cs),
(246,532,o),
(260,552,o),
(260,580,cs),
(260,612,o),
(241,633,o),
(206,633,cs)
);
}
);
width = 320;
},
{
layerId = "C64F1ECC-30E2-4AB6-9CDD-B17FE72FA4E1";
shapes = (
{
closed = 1;
nodes = (
(252,708,o),
(282,696,o),
(305,673,cs),
(328,649,o),
(339,620,o),
(339,585,cs),
(339,558,o),
(332,533,o),
(317,510,cs),
(288,464,o),
(239,435,o),
(183,435,cs),
(148,435,o),
(118,447,o),
(95,471,cs),
(72,494,o),
(60,523,o),
(60,557,cs),
(60,584,o),
(67,610,o),
(82,633,cs),
(111,679,o),
(161,708,o),
(216,708,cs)
);
},
{
closed = 1;
nodes = (
(192,663,o),
(175,659,o),
(159,650,cs),
(127,632,o),
(106,599,o),
(106,562,cs),
(106,540,o),
(114,521,o),
(130,504,cs),
(145,487,o),
(165,479,o),
(188,479,cs),
(207,479,o),
(224,484,o),
(240,493,cs),
(271,512,o),
(293,544,o),
(293,580,cs),
(293,627,o),
(258,663,o),
(211,663,cs)
);
}
);
width = 320;
},
{
layerId = "AC2035D7-313F-43E0-B352-008DE9991D96";
shapes = (
{
closed = 1;
nodes = (
(252,701,o),
(280,690,o),
(302,667,cs),
(323,644,o),
(334,616,o),
(334,583,cs),
(334,557,o),
(327,533,o),
(314,511,cs),
(286,467,o),
(237,440,o),
(185,440,cs),
(150,440,o),
(122,451,o),
(100,474,cs),
(78,496,o),
(67,524,o),
(67,557,cs),
(67,584,o),
(74,608,o),
(88,630,cs),
(116,673,o),
(165,701,o),
(217,701,cs)
);
},
{
closed = 1;
nodes = (
(193,679,o),
(172,674,o),
(153,663,cs),
(114,641,o),
(88,603,o),
(88,560,cs),
(88,533,o),
(98,510,o),
(117,491,cs),
(136,472,o),
(160,462,o),
(188,462,cs),
(209,462,o),
(228,468,o),
(247,479,cs),
(284,501,o),
(311,539,o),
(311,580,cs),
(311,635,o),
(270,679,o),
(215,679,cs)
);
}
);
width = 322;
}
);
leftKerningGroup = tilde2;
rightKerningGroup = tilde;
unicode = 176;
},
{
glyphname = micro;
layers = (
{
layerId = "52170CEE-5BA0-420B-B358-B20FB7EDC86A";
shapes = (
{
closed = 1;
nodes = (
(228,219,l),
(227,203,o),
(233,193,o),
(248,193,cs),
(275,193,o),
(314,243,o),
(377,344,c),
(351,127,l),
(310,127,l),
(295,98,o),
(281,74,o),
(269,53,cs),
(257,32,o),
(245,14,o),
(233,-3,c),
(218,-4,l),
(171,12,o),
(136,66,o),
(129,130,c)
);
},
{
closed = 1;
nodes = (
(557,520,l),
(501,8,l),
(307,-4,l),
(363,508,l)
);
},
{
closed = 1;
nodes = (
(268,520,l),
(228,219,l),
(189,97,l),
(185,-202,l),
(-10,-214,l),
(73,508,l)
);
}
);
width = 572;
},
{
layerId = "C64F1ECC-30E2-4AB6-9CDD-B17FE72FA4E1";
shapes = (
{
closed = 1;
nodes = (
(144,124,l),
(143,104,o),
(151,98,o),
(163,98,cs),
(204,98,o),
(284,204,o),
(381,415,c),
(358,230,l),
(341,230,l),
(316,189,o),
(290,147,o),
(262,108,cs),
(233,68,o),
(202,32,o),
(167,-3,c),
(155,-3,l),
(124,13,o),
(97,42,o),
(97,90,c)
);
},
{
closed = 1;
nodes = (
(468,507,l),
(410,3,l),
(316,-4,l),
(377,499,l)
);
},
{
closed = 1;
nodes = (
(198,507,l),
(144,124,l),
(119,64,l),
(110,-202,l),
(16,-210,l),
(107,499,l)
);
}
);
width = 512;
},
{
layerId = "AC2035D7-313F-43E0-B352-008DE9991D96";
shapes = (
{
closed = 1;
nodes = (
(100,82,l),
(95,50,o),
(117,16,o),
(145,16,cs),
(180,16,o),
(266,140,o),
(402,385,c),
(389,292,l),
(375,292,l),
(311,187,o),
(268,119,o),
(236,75,cs),
(204,30,o),
(180,7,o),
(153,-12,c),
(141,-12,l),
(100,0,o),
(82,32,o),
(83,81,c)
);
},
{
closed = 1;
nodes = (
(428,498,l),
(368,0,l),
(341,-4,l),
(401,494,l)
);
},
{
closed = 1;
nodes = (
(153,498,l),
(100,82,l),
(92,46,l),
(69,-202,l),
(41,-206,l),
(126,494,l)
);
}
);
width = 491;
}
);
unicode = 181;
},
{
glyphname = paragraph;
layers = (
{
layerId = "52170CEE-5BA0-420B-B358-B20FB7EDC86A";
shapes = (
{
closed = 1;
nodes = (
(651,707,l),
(662,692,l),
(630,545,l),
(554,545,l),
(512,157,l),
(507,116,o),
(495,79,o),
(476,48,cs),
(437,-16,o),
(362,-61,o),
(227,-104,c),
(185,-7,l),
(187,11,l),
(268,48,o),
(300,83,o),
(309,150,cs),
(351,546,l),
(316,546,l),
(284,531,o),
(263,488,o),
(263,432,cs),
(263,392,o),
(276,349,o),
(299,313,c),
(211,207,l),
(95,242,o),
(34,320,o),
(34,427,cs),
(34,515,o),
(63,584,o),
(121,633,cs),
(178,682,o),
(260,707,o),
(366,707,cs)
);
}
);
width = 617;
},
{
layerId = "C64F1ECC-30E2-4AB6-9CDD-B17FE72FA4E1";
shapes = (
{
closed = 1;
nodes = (
(556,700,l),
(562,691,l),
(547,627,l),
(462,627,l),
(405,142,ls),
(401,110,o),
(393,81,o),
(378,54,cs),
(348,1,o),
(292,-44,o),
(200,-85,c),
(178,-43,l),
(180,-32,l),
(268,17,o),
(309,68,o),
(317,137,cs),
(376,628,l),
(313,628,l),
(221,619,o),
(166,556,o),
(166,459,cs),
(166,383,o),
(207,326,o),
(287,301,c),
(250,249,l),
(134,274,o),
(68,344,o),
(68,453,cs),
(68,530,o),
(94,591,o),
(145,635,cs),
(196,678,o),
(264,700,o),
(349,700,cs)
);
}
);
width = 535;
},
{
layerId = "AC2035D7-313F-43E0-B352-008DE9991D96";
shapes = (
{
closed = 1;
nodes = (
(501,696,l),
(505,691,l),
(499,674,l),
(411,674,l),
(344,133,l),
(341,106,o),
(334,81,o),
(321,57,cs),
(295,9,o),
(251,-34,o),
(183,-74,c),
(174,-62,l),
(175,-56,l),
(267,0,o),
(314,58,o),
(322,129,c),
(389,674,l),
(311,674,l),
(183,667,o),
(108,592,o),
(108,472,cs),
(108,376,o),
(167,314,o),
(278,294,c),
(272,272,l),
(156,292,o),
(86,356,o),
(86,467,cs),
(86,538,o),
(107,594,o),
(148,635,cs),
(189,676,o),
(247,696,o),
(322,696,cs)
);
}
);
width = 489;
}
);
unicode = 182;
},
{
glyphname = ordmasculine;
layers = (
{
layerId = "52170CEE-5BA0-420B-B358-B20FB7EDC86A";
shapes = (
{
closed = 1;
nodes = (
(260,710,l),
(329,697,o),
(371,655,o),
(371,578,cs),
(371,507,o),
(353,450,o),
(317,408,cs),
(280,367,o),
(228,344,o),
(164,341,c),
(153,343,ls),
(84,356,o),
(41,400,o),
(41,483,cs),
(41,527,o),
(50,567,o),
(67,601,c),
(100,666,o),
(164,707,o),
(248,711,c)
);
},
{
closed = 1;
nodes = (
(207,622,o),
(194,617,o),
(185,607,cs),
(165,586,o),
(157,546,o),
(157,482,cs),
(157,441,o),
(165,427,o),
(188,427,cs),
(205,427,o),
(219,432,o),
(229,442,cs),
(249,463,o),
(254,505,o),
(254,569,cs),
(254,609,o),
(248,622,o),
(226,622,cs)
);
},
{
closed = 1;
nodes = (
(32,300,l),
(338,300,l),
(351,286,l),
(339,188,l),
(33,188,l),
(20,202,l)
);
}
);
width = 353;
},
{
layerId = "C64F1ECC-30E2-4AB6-9CDD-B17FE72FA4E1";
shapes = (
{
closed = 1;
nodes = (
(242,708,l),
(297,697,o),
(328,662,o),
(328,593,cs),
(328,524,o),
(313,469,o),
(283,427,cs),
(252,385,o),
(211,362,o),
(158,359,c),
(152,360,ls),
(97,368,o),
(66,406,o),
(66,478,cs),
(66,523,o),
(73,562,o),
(86,595,cs),
(113,662,o),
(165,704,o),
(234,708,c)
);
},
{
closed = 1;
nodes = (
(203,652,o),
(187,645,o),
(174,631,cs),
(148,602,o),
(135,549,o),
(135,478,cs),
(135,431,o),
(146,413,o),
(173,413,cs),
(192,413,o),
(207,420,o),
(220,434,cs),
(244,461,o),
(256,515,o),
(256,587,cs),
(256,632,o),
(246,652,o),
(222,652,cs)
);
},
{
closed = 1;
nodes = (
(27,292,l),
(310,292,l),
(316,285,l),
(311,238,l),
(29,238,l),
(22,245,l)
);
}
);
width = 327;
},
{
layerId = "AC2035D7-313F-43E0-B352-008DE9991D96";
shapes = (
{
closed = 1;
nodes = (
(229,703,l),
(281,699,o),
(301,668,o),
(301,604,cs),
(301,540,o),
(288,487,o),
(263,445,cs),
(237,403,o),
(201,381,o),
(155,378,c),
(151,378,l),
(102,381,o),
(78,412,o),
(78,479,cs),
(78,522,o),
(84,560,o),
(96,593,cs),
(120,660,o),
(165,702,o),
(226,703,c)
);
},
{
closed = 1;
nodes = (
(199,684,o),
(178,675,o),
(159,658,cs),
(121,622,o),
(99,558,o),
(99,482,cs),
(99,423,o),
(117,397,o),
(156,397,cs),
(181,397,o),
(202,406,o),
(221,424,cs),
(258,459,o),
(280,524,o),
(280,601,cs),
(280,657,o),
(263,684,o),
(224,684,cs)
);
},
{
closed = 1;
nodes = (
(39,311,l),
(288,311,l),
(291,307,l),
(289,289,l),
(40,289,l),
(37,292,l)
);
}
);
width = 308;
}
);
leftKerningGroup = xi.sups2;
rightKerningGroup = rho.sups;
unicode = 186;
},
{
glyphname = AE;
layers = (
{
anchors = (
{
name = m.fi;
position = "{606, 707}";
}
);
layerId = "52170CEE-5BA0-420B-B358-B20FB7EDC86A";
shapes = (
{
closed = 1;
nodes = (
(901,707,l),
(911,691,l),
(878,538,l),
(633,538,l),
(614,168,l),
(893,168,l),
(904,152,l),
(871,0,l),
(395,0,l),
(420,511,l),
(407,511,l),
(161,0,l),
(-54,0,l),
(334,707,l)
);
},
{
closed = 1;
nodes = (
(818,473,l),
(832,461,l),
(833,310,l),
(106,100,l),
(178,282,l)
);
}
);
width = 916;
},
{
anchors = (
{
name = m.fi;
position = "{606, 707}";
}
);
layerId = "C64F1ECC-30E2-4AB6-9CDD-B17FE72FA4E1";
shapes = (
{
closed = 1;
nodes = (
(785,700,l),
(791,691,l),
(773,624,l),
(508,624,l),
(512,75,l),
(799,75,l),
(805,66,l),
(788,0,l),
(420,0,l),
(417,605,l),
(411,605,l),
(48,0,l),
(-47,0,l),
(387,700,l)
);
},
{
closed = 1;
nodes = (
(736,422,l),
(743,415,l),
(740,347,l),
(123,209,l),
(161,293,l)
);
}
);
width = 841;
},
{
anchors = (
{
name = m.fi;
position = "{596, 702}";
}
);
layerId = "AC2035D7-313F-43E0-B352-008DE9991D96";
shapes = (
{
closed = 1;
nodes = (
(731,696,l),
(733,691,l),
(725,674,l),
(443,674,l),
(462,22,l),
(758,22,l),
(759,17,l),
(752,0,l),
(440,0,l),
(420,657,l),
(417,657,l),
(-16,0,l),
(-46,0,l),
(419,696,l)
);
},
{
closed = 1;
nodes = (
(701,384,l),
(703,381,l),
(698,363,l),
(135,265,l),
(152,290,l)
);
}
);
width = 812;
}
);
leftKerningGroup = A2;
rightKerningGroup = E;
unicode = 198;
},
